<svg xmlns="http://www.w3.org/2000/svg" width="820" height="539" viewBox="0 0 820 539">
  <g id="Grupo_1102876" data-name="Grupo 1102876" transform="translate(-390.051 -2563)">
    <rect id="Rectángulo_406051" data-name="Rectángulo 406051" width="820" height="539" transform="translate(390.051 2563)" fill="#f6f6f6"/>
    <path id="Trazado_881730" data-name="Trazado 881730" d="M2.82,12.547V17H1.32V5.625h4.2a4.215,4.215,0,0,1,2.926.953A3.231,3.231,0,0,1,9.5,9.1a3.189,3.189,0,0,1-1.035,2.551,4.4,4.4,0,0,1-2.965.895Zm0-1.227h2.7a2.7,2.7,0,0,0,1.844-.566A2.069,2.069,0,0,0,8,9.117a2.138,2.138,0,0,0-.641-1.625A2.528,2.528,0,0,0,5.6,6.859H2.82ZM16.32,17a3.036,3.036,0,0,1-.2-.891,3.225,3.225,0,0,1-2.406,1.047,2.984,2.984,0,0,1-2.051-.707,2.287,2.287,0,0,1-.8-1.793,2.39,2.39,0,0,1,1-2.051,4.733,4.733,0,0,1,2.824-.73h1.406v-.664A1.623,1.623,0,0,0,15.641,10,1.821,1.821,0,0,0,14.3,9.555a2.107,2.107,0,0,0-1.3.391,1.151,1.151,0,0,0-.523.945H11.031a2,2,0,0,1,.449-1.223A3.066,3.066,0,0,1,12.7,8.734a4.1,4.1,0,0,1,1.691-.344,3.342,3.342,0,0,1,2.289.73,2.635,2.635,0,0,1,.859,2.012v3.891a4.757,4.757,0,0,0,.3,1.852V17Zm-2.4-1.1a2.54,2.54,0,0,0,1.289-.352,2.127,2.127,0,0,0,.883-.914V12.9H14.961q-2.656,0-2.656,1.555a1.316,1.316,0,0,0,.453,1.063A1.742,1.742,0,0,0,13.922,15.9Zm10.8-1.141a1.064,1.064,0,0,0-.441-.91,4.249,4.249,0,0,0-1.539-.559A7.277,7.277,0,0,1,21,12.727a2.479,2.479,0,0,1-.953-.781,1.869,1.869,0,0,1-.309-1.078,2.193,2.193,0,0,1,.879-1.758,3.432,3.432,0,0,1,2.246-.719,3.532,3.532,0,0,1,2.332.742,2.357,2.357,0,0,1,.895,1.9H24.641a1.3,1.3,0,0,0-.5-1.023,1.888,1.888,0,0,0-1.27-.43,1.976,1.976,0,0,0-1.234.344,1.082,1.082,0,0,0-.445.9.877.877,0,0,0,.414.789,5.1,5.1,0,0,0,1.5.508,7.8,7.8,0,0,1,1.754.578,2.558,2.558,0,0,1,1,.809,1.988,1.988,0,0,1,.324,1.152,2.163,2.163,0,0,1-.906,1.816,3.8,3.8,0,0,1-2.352.684,4.257,4.257,0,0,1-1.8-.359,2.922,2.922,0,0,1-1.223-1,2.42,2.42,0,0,1-.441-1.395H20.9a1.5,1.5,0,0,0,.582,1.152,2.258,2.258,0,0,0,1.434.426,2.331,2.331,0,0,0,1.316-.332A1.02,1.02,0,0,0,24.727,14.758ZM27.672,12.7a4.993,4.993,0,0,1,.488-2.234A3.643,3.643,0,0,1,29.52,8.93a3.7,3.7,0,0,1,1.988-.539,3.565,3.565,0,0,1,2.793,1.2,4.6,4.6,0,0,1,1.066,3.18v.1a5.036,5.036,0,0,1-.473,2.215,3.589,3.589,0,0,1-1.352,1.527,3.743,3.743,0,0,1-2.02.547,3.556,3.556,0,0,1-2.785-1.2A4.575,4.575,0,0,1,27.672,12.8Zm1.453.172a3.616,3.616,0,0,0,.652,2.258,2.211,2.211,0,0,0,3.5-.012,3.955,3.955,0,0,0,.648-2.418,3.61,3.61,0,0,0-.66-2.254,2.1,2.1,0,0,0-1.754-.863,2.075,2.075,0,0,0-1.727.852A3.925,3.925,0,0,0,29.125,12.867ZM45.742,17H44.289V7.367l-2.914,1.07V7.125L45.516,5.57h.227Zm4.336-.758a.905.905,0,0,1,.223-.625.848.848,0,0,1,.668-.25.874.874,0,0,1,.676.25.887.887,0,0,1,.23.625.839.839,0,0,1-.23.6.89.89,0,0,1-.676.242.8.8,0,0,1-.891-.844Zm.008-6.9a.905.905,0,0,1,.223-.625.848.848,0,0,1,.668-.25.874.874,0,0,1,.676.25.887.887,0,0,1,.23.625.839.839,0,0,1-.23.6.89.89,0,0,1-.676.242.8.8,0,0,1-.891-.844ZM58.188,17V5.625H61.4a5.169,5.169,0,0,1,2.625.656,4.438,4.438,0,0,1,1.762,1.867,6.078,6.078,0,0,1,.629,2.781v.727a6.1,6.1,0,0,1-.621,2.82,4.369,4.369,0,0,1-1.773,1.859A5.5,5.5,0,0,1,61.336,17Zm1.5-10.141v8.914h1.578a3.435,3.435,0,0,0,2.7-1.078,4.452,4.452,0,0,0,.965-3.07v-.664a4.522,4.522,0,0,0-.91-3.012,3.24,3.24,0,0,0-2.582-1.09ZM73.672,17a3.036,3.036,0,0,1-.2-.891,3.225,3.225,0,0,1-2.406,1.047,2.984,2.984,0,0,1-2.051-.707,2.288,2.288,0,0,1-.8-1.793,2.39,2.39,0,0,1,1-2.051,4.733,4.733,0,0,1,2.824-.73h1.406v-.664A1.623,1.623,0,0,0,72.992,10a1.821,1.821,0,0,0-1.336-.449,2.108,2.108,0,0,0-1.3.391,1.151,1.151,0,0,0-.523.945H68.383a2,2,0,0,1,.449-1.223,3.066,3.066,0,0,1,1.219-.934,4.1,4.1,0,0,1,1.691-.344,3.342,3.342,0,0,1,2.289.73,2.635,2.635,0,0,1,.859,2.012v3.891a4.757,4.757,0,0,0,.3,1.852V17Zm-2.4-1.1a2.54,2.54,0,0,0,1.289-.352,2.127,2.127,0,0,0,.883-.914V12.9H72.313q-2.656,0-2.656,1.555a1.316,1.316,0,0,0,.453,1.063A1.742,1.742,0,0,0,71.273,15.9Zm7.844-9.4V8.547H80.7V9.664H79.117v5.242a1.171,1.171,0,0,0,.211.762.888.888,0,0,0,.719.254,3.5,3.5,0,0,0,.688-.094V17a4.19,4.19,0,0,1-1.109.156,1.8,1.8,0,0,1-1.461-.586,2.517,2.517,0,0,1-.492-1.664V9.664H76.133V8.547h1.539V6.5Zm2.727,6.2a4.993,4.993,0,0,1,.488-2.234A3.643,3.643,0,0,1,83.691,8.93a3.7,3.7,0,0,1,1.988-.539,3.565,3.565,0,0,1,2.793,1.2,4.6,4.6,0,0,1,1.066,3.18v.1a5.036,5.036,0,0,1-.473,2.215,3.589,3.589,0,0,1-1.352,1.527,3.743,3.743,0,0,1-2.02.547,3.556,3.556,0,0,1-2.785-1.2A4.575,4.575,0,0,1,81.844,12.8Zm1.453.172a3.616,3.616,0,0,0,.652,2.258,2.211,2.211,0,0,0,3.5-.012,3.955,3.955,0,0,0,.648-2.418,3.61,3.61,0,0,0-.66-2.254,2.1,2.1,0,0,0-1.754-.863,2.075,2.075,0,0,0-1.727.852A3.925,3.925,0,0,0,83.3,12.867Zm12.977,1.891a1.064,1.064,0,0,0-.441-.91,4.249,4.249,0,0,0-1.539-.559,7.277,7.277,0,0,1-1.742-.562,2.479,2.479,0,0,1-.953-.781,1.869,1.869,0,0,1-.309-1.078,2.193,2.193,0,0,1,.879-1.758,3.432,3.432,0,0,1,2.246-.719,3.532,3.532,0,0,1,2.332.742,2.357,2.357,0,0,1,.895,1.9H96.188a1.3,1.3,0,0,0-.5-1.023,1.888,1.888,0,0,0-1.27-.43,1.976,1.976,0,0,0-1.234.344,1.082,1.082,0,0,0-.445.9.877.877,0,0,0,.414.789,5.1,5.1,0,0,0,1.5.508A7.8,7.8,0,0,1,96.4,12.7a2.558,2.558,0,0,1,1,.809,1.988,1.988,0,0,1,.324,1.152,2.163,2.163,0,0,1-.906,1.816,3.8,3.8,0,0,1-2.352.684,4.257,4.257,0,0,1-1.8-.359,2.922,2.922,0,0,1-1.223-1A2.42,2.42,0,0,1,91,14.4h1.445a1.5,1.5,0,0,0,.582,1.152,2.258,2.258,0,0,0,1.434.426,2.331,2.331,0,0,0,1.316-.332A1.02,1.02,0,0,0,96.273,14.758ZM103.18,12.7a4.993,4.993,0,0,1,.488-2.234,3.643,3.643,0,0,1,1.359-1.531,3.7,3.7,0,0,1,1.988-.539,3.565,3.565,0,0,1,2.793,1.2,4.6,4.6,0,0,1,1.066,3.18v.1a5.036,5.036,0,0,1-.473,2.215,3.589,3.589,0,0,1-1.352,1.527,3.743,3.743,0,0,1-2.02.547,3.556,3.556,0,0,1-2.785-1.2A4.575,4.575,0,0,1,103.18,12.8Zm1.453.172a3.616,3.616,0,0,0,.652,2.258,2.211,2.211,0,0,0,3.5-.012,3.955,3.955,0,0,0,.648-2.418,3.61,3.61,0,0,0-.66-2.254,2.1,2.1,0,0,0-1.754-.863,2.075,2.075,0,0,0-1.727.852A3.925,3.925,0,0,0,104.633,12.867Zm12.141-3.023a4.331,4.331,0,0,0-.711-.055A1.9,1.9,0,0,0,114.133,11v6h-1.445V8.547h1.406l.023.977a2.251,2.251,0,0,1,2.016-1.133,1.477,1.477,0,0,1,.641.109Zm2.9,7.156h-1.445V8.547h1.445ZM118.109,6.3a.863.863,0,0,1,.215-.594.807.807,0,0,1,.637-.242.819.819,0,0,1,.641.242.854.854,0,0,1,.219.594.826.826,0,0,1-.219.586.834.834,0,0,1-.641.234.821.821,0,0,1-.637-.234A.834.834,0,0,1,118.109,6.3Zm3.531,6.4a4.968,4.968,0,0,1,.914-3.145,3.151,3.151,0,0,1,4.836-.074l.07-.937h1.32V16.8a3.439,3.439,0,0,1-.973,2.586,3.589,3.589,0,0,1-2.613.945,4.348,4.348,0,0,1-1.789-.391,3.08,3.08,0,0,1-1.336-1.07l.75-.867a2.826,2.826,0,0,0,2.273,1.148,2.214,2.214,0,0,0,1.645-.594,2.269,2.269,0,0,0,.59-1.672v-.727a2.971,2.971,0,0,1-2.367,1,2.887,2.887,0,0,1-2.4-1.2A5.224,5.224,0,0,1,121.641,12.7Zm1.453.164a3.79,3.79,0,0,0,.586,2.246,1.9,1.9,0,0,0,1.641.816,2.117,2.117,0,0,0,2.008-1.242V10.828a2.142,2.142,0,0,0-1.992-1.211,1.921,1.921,0,0,0-1.648.82A4.128,4.128,0,0,0,123.094,12.867ZM132.531,17h-1.445V8.547h1.445ZM130.969,6.3a.863.863,0,0,1,.215-.594.807.807,0,0,1,.637-.242.819.819,0,0,1,.641.242.854.854,0,0,1,.219.594.826.826,0,0,1-.219.586.834.834,0,0,1-.641.234.821.821,0,0,1-.637-.234A.834.834,0,0,1,130.969,6.3Zm5.242,2.242.047,1.063a3.08,3.08,0,0,1,2.531-1.219q2.68,0,2.7,3.023V17h-1.445V11.406a1.946,1.946,0,0,0-.418-1.352,1.675,1.675,0,0,0-1.277-.437,2.086,2.086,0,0,0-1.234.375,2.546,2.546,0,0,0-.828.984V17h-1.445V8.547ZM148.891,17a3.036,3.036,0,0,1-.2-.891,3.225,3.225,0,0,1-2.406,1.047,2.984,2.984,0,0,1-2.051-.707,2.287,2.287,0,0,1-.8-1.793,2.39,2.39,0,0,1,1-2.051,4.733,4.733,0,0,1,2.824-.73h1.406v-.664A1.623,1.623,0,0,0,148.211,10a1.821,1.821,0,0,0-1.336-.449,2.107,2.107,0,0,0-1.3.391,1.151,1.151,0,0,0-.523.945H143.6a2,2,0,0,1,.449-1.223,3.066,3.066,0,0,1,1.219-.934,4.1,4.1,0,0,1,1.691-.344,3.342,3.342,0,0,1,2.289.73,2.635,2.635,0,0,1,.859,2.012v3.891a4.757,4.757,0,0,0,.3,1.852V17Zm-2.4-1.1a2.54,2.54,0,0,0,1.289-.352,2.127,2.127,0,0,0,.883-.914V12.9h-1.133q-2.656,0-2.656,1.555a1.316,1.316,0,0,0,.453,1.063A1.742,1.742,0,0,0,146.492,15.9Zm7.453,1.1H152.5V5h1.445Zm5.82.156a3.693,3.693,0,0,1-2.8-1.129,4.19,4.19,0,0,1-1.078-3.02v-.266a5.073,5.073,0,0,1,.48-2.246,3.748,3.748,0,0,1,1.344-1.547,3.378,3.378,0,0,1,1.871-.559,3.166,3.166,0,0,1,2.563,1.086,4.7,4.7,0,0,1,.914,3.109v.6h-5.727a3,3,0,0,0,.73,2.02,2.3,2.3,0,0,0,1.777.77,2.517,2.517,0,0,0,1.3-.312,3.258,3.258,0,0,0,.93-.828l.883.688A3.55,3.55,0,0,1,159.766,17.156Zm-.18-7.578a1.928,1.928,0,0,0-1.469.637A3.1,3.1,0,0,0,157.383,12h4.234v-.109a2.753,2.753,0,0,0-.594-1.707A1.815,1.815,0,0,0,159.586,9.578Zm10.07,5.18a1.064,1.064,0,0,0-.441-.91,4.249,4.249,0,0,0-1.539-.559,7.277,7.277,0,0,1-1.742-.562,2.479,2.479,0,0,1-.953-.781,1.869,1.869,0,0,1-.309-1.078,2.193,2.193,0,0,1,.879-1.758,3.432,3.432,0,0,1,2.246-.719,3.532,3.532,0,0,1,2.332.742,2.357,2.357,0,0,1,.895,1.9H169.57a1.3,1.3,0,0,0-.5-1.023,1.888,1.888,0,0,0-1.27-.43,1.976,1.976,0,0,0-1.234.344,1.082,1.082,0,0,0-.445.9.877.877,0,0,0,.414.789,5.1,5.1,0,0,0,1.5.508,7.8,7.8,0,0,1,1.754.578,2.558,2.558,0,0,1,1,.809,1.988,1.988,0,0,1,.324,1.152,2.163,2.163,0,0,1-.906,1.816,3.8,3.8,0,0,1-2.352.684,4.257,4.257,0,0,1-1.8-.359,2.922,2.922,0,0,1-1.223-1,2.42,2.42,0,0,1-.441-1.395h1.445a1.5,1.5,0,0,0,.582,1.152,2.258,2.258,0,0,0,1.434.426,2.331,2.331,0,0,0,1.316-.332A1.02,1.02,0,0,0,169.656,14.758Z" transform="translate(425.051 2601)" fill="#12263f"/>
    <path id="Trazado_881731" data-name="Trazado 881731" d="M2.82,12.547V17H1.32V5.625h4.2a4.215,4.215,0,0,1,2.926.953A3.231,3.231,0,0,1,9.5,9.1a3.189,3.189,0,0,1-1.035,2.551,4.4,4.4,0,0,1-2.965.895Zm0-1.227h2.7a2.7,2.7,0,0,0,1.844-.566A2.069,2.069,0,0,0,8,9.117a2.138,2.138,0,0,0-.641-1.625A2.528,2.528,0,0,0,5.6,6.859H2.82ZM16.32,17a3.036,3.036,0,0,1-.2-.891,3.225,3.225,0,0,1-2.406,1.047,2.984,2.984,0,0,1-2.051-.707,2.287,2.287,0,0,1-.8-1.793,2.39,2.39,0,0,1,1-2.051,4.733,4.733,0,0,1,2.824-.73h1.406v-.664A1.623,1.623,0,0,0,15.641,10,1.821,1.821,0,0,0,14.3,9.555a2.107,2.107,0,0,0-1.3.391,1.151,1.151,0,0,0-.523.945H11.031a2,2,0,0,1,.449-1.223A3.066,3.066,0,0,1,12.7,8.734a4.1,4.1,0,0,1,1.691-.344,3.342,3.342,0,0,1,2.289.73,2.635,2.635,0,0,1,.859,2.012v3.891a4.757,4.757,0,0,0,.3,1.852V17Zm-2.4-1.1a2.54,2.54,0,0,0,1.289-.352,2.127,2.127,0,0,0,.883-.914V12.9H14.961q-2.656,0-2.656,1.555a1.316,1.316,0,0,0,.453,1.063A1.742,1.742,0,0,0,13.922,15.9Zm10.8-1.141a1.064,1.064,0,0,0-.441-.91,4.249,4.249,0,0,0-1.539-.559A7.277,7.277,0,0,1,21,12.727a2.479,2.479,0,0,1-.953-.781,1.869,1.869,0,0,1-.309-1.078,2.193,2.193,0,0,1,.879-1.758,3.432,3.432,0,0,1,2.246-.719,3.532,3.532,0,0,1,2.332.742,2.357,2.357,0,0,1,.895,1.9H24.641a1.3,1.3,0,0,0-.5-1.023,1.888,1.888,0,0,0-1.27-.43,1.976,1.976,0,0,0-1.234.344,1.082,1.082,0,0,0-.445.9.877.877,0,0,0,.414.789,5.1,5.1,0,0,0,1.5.508,7.8,7.8,0,0,1,1.754.578,2.558,2.558,0,0,1,1,.809,1.988,1.988,0,0,1,.324,1.152,2.163,2.163,0,0,1-.906,1.816,3.8,3.8,0,0,1-2.352.684,4.257,4.257,0,0,1-1.8-.359,2.922,2.922,0,0,1-1.223-1,2.42,2.42,0,0,1-.441-1.395H20.9a1.5,1.5,0,0,0,.582,1.152,2.258,2.258,0,0,0,1.434.426,2.331,2.331,0,0,0,1.316-.332A1.02,1.02,0,0,0,24.727,14.758ZM27.672,12.7a4.993,4.993,0,0,1,.488-2.234A3.643,3.643,0,0,1,29.52,8.93a3.7,3.7,0,0,1,1.988-.539,3.565,3.565,0,0,1,2.793,1.2,4.6,4.6,0,0,1,1.066,3.18v.1a5.036,5.036,0,0,1-.473,2.215,3.589,3.589,0,0,1-1.352,1.527,3.743,3.743,0,0,1-2.02.547,3.556,3.556,0,0,1-2.785-1.2A4.575,4.575,0,0,1,27.672,12.8Zm1.453.172a3.616,3.616,0,0,0,.652,2.258,2.211,2.211,0,0,0,3.5-.012,3.955,3.955,0,0,0,.648-2.418,3.61,3.61,0,0,0-.66-2.254,2.1,2.1,0,0,0-1.754-.863,2.075,2.075,0,0,0-1.727.852A3.925,3.925,0,0,0,29.125,12.867ZM48.445,17H40.992V15.961l3.938-4.375a9.355,9.355,0,0,0,1.207-1.613,2.693,2.693,0,0,0,.332-1.285,2.041,2.041,0,0,0-.539-1.461,1.885,1.885,0,0,0-1.437-.57,2.232,2.232,0,0,0-1.676.613,2.343,2.343,0,0,0-.6,1.707H40.773a3.355,3.355,0,0,1,1.012-2.539,3.751,3.751,0,0,1,2.707-.969A3.6,3.6,0,0,1,47,6.3a2.838,2.838,0,0,1,.922,2.215q0,1.68-2.141,4l-3.047,3.3h5.711Zm1.633-.758a.905.905,0,0,1,.223-.625.848.848,0,0,1,.668-.25.874.874,0,0,1,.676.25.887.887,0,0,1,.23.625.839.839,0,0,1-.23.6.89.89,0,0,1-.676.242.8.8,0,0,1-.891-.844Zm.008-6.9a.905.905,0,0,1,.223-.625.848.848,0,0,1,.668-.25.874.874,0,0,1,.676.25.887.887,0,0,1,.23.625.839.839,0,0,1-.23.6.89.89,0,0,1-.676.242.8.8,0,0,1-.891-.844ZM60.125,5.625l3.719,9.281,3.719-9.281h1.945V17h-1.5V12.57l.141-4.781L64.414,17H63.266L59.539,7.813l.148,4.758V17h-1.5V5.625ZM77.148,16.164a3.07,3.07,0,0,1-2.477.992,2.628,2.628,0,0,1-2.059-.785,3.4,3.4,0,0,1-.715-2.324v-5.5h1.445v5.461q0,1.922,1.563,1.922a2.163,2.163,0,0,0,2.2-1.234V8.547h1.445V17H77.18Zm7.109.992a3.693,3.693,0,0,1-2.8-1.129,4.19,4.19,0,0,1-1.078-3.02v-.266a5.073,5.073,0,0,1,.48-2.246,3.748,3.748,0,0,1,1.344-1.547,3.378,3.378,0,0,1,1.871-.559,3.166,3.166,0,0,1,2.563,1.086,4.7,4.7,0,0,1,.914,3.109v.6H81.828a3,3,0,0,0,.73,2.02,2.3,2.3,0,0,0,1.777.77,2.517,2.517,0,0,0,1.3-.312,3.259,3.259,0,0,0,.93-.828l.883.688A3.55,3.55,0,0,1,84.258,17.156Zm-.18-7.578a1.928,1.928,0,0,0-1.469.637A3.1,3.1,0,0,0,81.875,12h4.234v-.109a2.753,2.753,0,0,0-.594-1.707A1.815,1.815,0,0,0,84.078,9.578Zm10.07,5.18a1.064,1.064,0,0,0-.441-.91,4.249,4.249,0,0,0-1.539-.559,7.277,7.277,0,0,1-1.742-.562,2.479,2.479,0,0,1-.953-.781,1.869,1.869,0,0,1-.309-1.078,2.193,2.193,0,0,1,.879-1.758,3.432,3.432,0,0,1,2.246-.719,3.532,3.532,0,0,1,2.332.742,2.357,2.357,0,0,1,.895,1.9H94.063a1.3,1.3,0,0,0-.5-1.023,1.888,1.888,0,0,0-1.27-.43,1.976,1.976,0,0,0-1.234.344,1.082,1.082,0,0,0-.445.9.877.877,0,0,0,.414.789,5.1,5.1,0,0,0,1.5.508,7.8,7.8,0,0,1,1.754.578,2.558,2.558,0,0,1,1,.809,1.988,1.988,0,0,1,.324,1.152,2.163,2.163,0,0,1-.906,1.816,3.8,3.8,0,0,1-2.352.684,4.257,4.257,0,0,1-1.8-.359,2.922,2.922,0,0,1-1.223-1,2.42,2.42,0,0,1-.441-1.395H90.32a1.5,1.5,0,0,0,.582,1.152,2.258,2.258,0,0,0,1.434.426,2.331,2.331,0,0,0,1.316-.332A1.02,1.02,0,0,0,94.148,14.758ZM99.438,6.5V8.547h1.578V9.664H99.438v5.242a1.171,1.171,0,0,0,.211.762.888.888,0,0,0,.719.254,3.5,3.5,0,0,0,.688-.094V17a4.19,4.19,0,0,1-1.109.156,1.8,1.8,0,0,1-1.461-.586,2.517,2.517,0,0,1-.492-1.664V9.664H96.453V8.547h1.539V6.5Zm7.352,3.344a4.331,4.331,0,0,0-.711-.055A1.9,1.9,0,0,0,104.148,11v6H102.7V8.547h1.406l.023.977a2.251,2.251,0,0,1,2.016-1.133,1.477,1.477,0,0,1,.641.109ZM113.023,17a3.036,3.036,0,0,1-.2-.891,3.225,3.225,0,0,1-2.406,1.047,2.984,2.984,0,0,1-2.051-.707,2.288,2.288,0,0,1-.8-1.793,2.39,2.39,0,0,1,1-2.051,4.733,4.733,0,0,1,2.824-.73H112.8v-.664A1.623,1.623,0,0,0,112.344,10a1.821,1.821,0,0,0-1.336-.449,2.108,2.108,0,0,0-1.3.391,1.151,1.151,0,0,0-.523.945h-1.453a2,2,0,0,1,.449-1.223,3.066,3.066,0,0,1,1.219-.934,4.1,4.1,0,0,1,1.691-.344,3.342,3.342,0,0,1,2.289.73,2.635,2.635,0,0,1,.859,2.012v3.891a4.757,4.757,0,0,0,.3,1.852V17Zm-2.4-1.1a2.54,2.54,0,0,0,1.289-.352,2.127,2.127,0,0,0,.883-.914V12.9h-1.133q-2.656,0-2.656,1.555a1.316,1.316,0,0,0,.453,1.063A1.742,1.742,0,0,0,110.625,15.9Zm10.8-1.141a1.064,1.064,0,0,0-.441-.91,4.249,4.249,0,0,0-1.539-.559,7.277,7.277,0,0,1-1.742-.562,2.479,2.479,0,0,1-.953-.781,1.869,1.869,0,0,1-.309-1.078,2.193,2.193,0,0,1,.879-1.758,3.432,3.432,0,0,1,2.246-.719,3.532,3.532,0,0,1,2.332.742,2.357,2.357,0,0,1,.895,1.9h-1.453a1.3,1.3,0,0,0-.5-1.023,1.888,1.888,0,0,0-1.27-.43,1.976,1.976,0,0,0-1.234.344,1.082,1.082,0,0,0-.445.9.877.877,0,0,0,.414.789,5.1,5.1,0,0,0,1.5.508,7.8,7.8,0,0,1,1.754.578,2.558,2.558,0,0,1,1,.809,1.988,1.988,0,0,1,.324,1.152,2.163,2.163,0,0,1-.906,1.816,3.8,3.8,0,0,1-2.352.684,4.257,4.257,0,0,1-1.8-.359,2.922,2.922,0,0,1-1.223-1,2.42,2.42,0,0,1-.441-1.395H117.6a1.5,1.5,0,0,0,.582,1.152,2.258,2.258,0,0,0,1.434.426,2.331,2.331,0,0,0,1.316-.332A1.02,1.02,0,0,0,121.43,14.758ZM128.945,17V5.625h3.719a4.317,4.317,0,0,1,2.785.766,2.759,2.759,0,0,1,.934,2.266,2.31,2.31,0,0,1-.453,1.41,2.937,2.937,0,0,1-1.234.949,2.638,2.638,0,0,1,1.457.98,2.814,2.814,0,0,1,.535,1.723,3.042,3.042,0,0,1-.992,2.406,4.1,4.1,0,0,1-2.8.875Zm1.5-5.32v4.094h2.477a2.385,2.385,0,0,0,1.652-.543,1.907,1.907,0,0,0,.605-1.5q0-2.055-2.234-2.055Zm0-1.2h2.266a2.378,2.378,0,0,0,1.574-.492,1.649,1.649,0,0,0,.59-1.336,1.621,1.621,0,0,0-.547-1.363,2.69,2.69,0,0,0-1.664-.426h-2.219ZM138.3,12.7a4.993,4.993,0,0,1,.488-2.234,3.642,3.642,0,0,1,1.359-1.531,3.7,3.7,0,0,1,1.988-.539,3.565,3.565,0,0,1,2.793,1.2,4.6,4.6,0,0,1,1.066,3.18v.1a5.036,5.036,0,0,1-.473,2.215,3.589,3.589,0,0,1-1.352,1.527,3.743,3.743,0,0,1-2.02.547,3.556,3.556,0,0,1-2.785-1.2A4.575,4.575,0,0,1,138.3,12.8Zm1.453.172a3.616,3.616,0,0,0,.652,2.258,2.211,2.211,0,0,0,3.5-.012,3.954,3.954,0,0,0,.648-2.418,3.61,3.61,0,0,0-.66-2.254,2.1,2.1,0,0,0-1.754-.863,2.075,2.075,0,0,0-1.727.852A3.925,3.925,0,0,0,139.75,12.867Zm7.672-.172a4.993,4.993,0,0,1,.488-2.234A3.642,3.642,0,0,1,149.27,8.93a3.7,3.7,0,0,1,1.988-.539,3.565,3.565,0,0,1,2.793,1.2,4.6,4.6,0,0,1,1.066,3.18v.1a5.036,5.036,0,0,1-.473,2.215,3.589,3.589,0,0,1-1.352,1.527,3.743,3.743,0,0,1-2.02.547,3.556,3.556,0,0,1-2.785-1.2,4.575,4.575,0,0,1-1.066-3.164Zm1.453.172a3.616,3.616,0,0,0,.652,2.258,2.211,2.211,0,0,0,3.5-.012,3.954,3.954,0,0,0,.648-2.418,3.61,3.61,0,0,0-.66-2.254,2.1,2.1,0,0,0-1.754-.863,2.075,2.075,0,0,0-1.727.852A3.925,3.925,0,0,0,148.875,12.867ZM158.891,6.5V8.547h1.578V9.664h-1.578v5.242a1.171,1.171,0,0,0,.211.762.888.888,0,0,0,.719.254,3.5,3.5,0,0,0,.688-.094V17a4.19,4.19,0,0,1-1.109.156,1.8,1.8,0,0,1-1.461-.586,2.517,2.517,0,0,1-.492-1.664V9.664h-1.539V8.547h1.539V6.5Zm8.188,8.258a1.064,1.064,0,0,0-.441-.91,4.249,4.249,0,0,0-1.539-.559,7.277,7.277,0,0,1-1.742-.562,2.479,2.479,0,0,1-.953-.781,1.869,1.869,0,0,1-.309-1.078,2.193,2.193,0,0,1,.879-1.758,3.432,3.432,0,0,1,2.246-.719,3.532,3.532,0,0,1,2.332.742,2.357,2.357,0,0,1,.895,1.9h-1.453a1.3,1.3,0,0,0-.5-1.023,1.888,1.888,0,0,0-1.27-.43,1.976,1.976,0,0,0-1.234.344,1.082,1.082,0,0,0-.445.9.877.877,0,0,0,.414.789,5.1,5.1,0,0,0,1.5.508,7.8,7.8,0,0,1,1.754.578,2.558,2.558,0,0,1,1,.809,1.988,1.988,0,0,1,.324,1.152,2.163,2.163,0,0,1-.906,1.816,3.8,3.8,0,0,1-2.352.684,4.257,4.257,0,0,1-1.8-.359,2.922,2.922,0,0,1-1.223-1A2.42,2.42,0,0,1,161.8,14.4h1.445a1.5,1.5,0,0,0,.582,1.152,2.258,2.258,0,0,0,1.434.426,2.331,2.331,0,0,0,1.316-.332A1.02,1.02,0,0,0,167.078,14.758ZM172.367,6.5V8.547h1.578V9.664h-1.578v5.242a1.171,1.171,0,0,0,.211.762.888.888,0,0,0,.719.254,3.5,3.5,0,0,0,.688-.094V17a4.19,4.19,0,0,1-1.109.156,1.8,1.8,0,0,1-1.461-.586,2.517,2.517,0,0,1-.492-1.664V9.664h-1.539V8.547h1.539V6.5Zm7.352,3.344a4.331,4.331,0,0,0-.711-.055A1.9,1.9,0,0,0,177.078,11v6h-1.445V8.547h1.406l.023.977a2.251,2.251,0,0,1,2.016-1.133,1.477,1.477,0,0,1,.641.109ZM185.953,17a3.036,3.036,0,0,1-.2-.891,3.225,3.225,0,0,1-2.406,1.047,2.984,2.984,0,0,1-2.051-.707,2.287,2.287,0,0,1-.8-1.793,2.39,2.39,0,0,1,1-2.051,4.733,4.733,0,0,1,2.824-.73h1.406v-.664A1.623,1.623,0,0,0,185.273,10a1.821,1.821,0,0,0-1.336-.449,2.107,2.107,0,0,0-1.3.391,1.151,1.151,0,0,0-.523.945h-1.453a2,2,0,0,1,.449-1.223,3.066,3.066,0,0,1,1.219-.934,4.1,4.1,0,0,1,1.691-.344,3.342,3.342,0,0,1,2.289.73,2.635,2.635,0,0,1,.859,2.012v3.891a4.757,4.757,0,0,0,.3,1.852V17Zm-2.4-1.1a2.54,2.54,0,0,0,1.289-.352,2.127,2.127,0,0,0,.883-.914V12.9h-1.133q-2.656,0-2.656,1.555a1.316,1.316,0,0,0,.453,1.063A1.742,1.742,0,0,0,183.555,15.9Zm13.023-3.031a5.062,5.062,0,0,1-.883,3.109,2.829,2.829,0,0,1-2.391,1.18,3.1,3.1,0,0,1-2.422-.977v4.07h-1.445V8.547h1.32l.07.938a2.977,2.977,0,0,1,2.453-1.094,2.882,2.882,0,0,1,2.41,1.148,5.117,5.117,0,0,1,.887,3.2Zm-1.445-.164a3.735,3.735,0,0,0-.609-2.258,1.963,1.963,0,0,0-1.672-.828,2.125,2.125,0,0,0-1.969,1.164V14.82a2.129,2.129,0,0,0,1.984,1.156,1.954,1.954,0,0,0,1.652-.824A4.077,4.077,0,0,0,195.133,12.7Z" transform="translate(425.051 2666)" fill="#12263f"/>
    <path id="Trazado_881732" data-name="Trazado 881732" d="M2.82,12.547V17H1.32V5.625h4.2a4.215,4.215,0,0,1,2.926.953A3.231,3.231,0,0,1,9.5,9.1a3.189,3.189,0,0,1-1.035,2.551,4.4,4.4,0,0,1-2.965.895Zm0-1.227h2.7a2.7,2.7,0,0,0,1.844-.566A2.069,2.069,0,0,0,8,9.117a2.138,2.138,0,0,0-.641-1.625A2.528,2.528,0,0,0,5.6,6.859H2.82ZM16.32,17a3.036,3.036,0,0,1-.2-.891,3.225,3.225,0,0,1-2.406,1.047,2.984,2.984,0,0,1-2.051-.707,2.287,2.287,0,0,1-.8-1.793,2.39,2.39,0,0,1,1-2.051,4.733,4.733,0,0,1,2.824-.73h1.406v-.664A1.623,1.623,0,0,0,15.641,10,1.821,1.821,0,0,0,14.3,9.555a2.107,2.107,0,0,0-1.3.391,1.151,1.151,0,0,0-.523.945H11.031a2,2,0,0,1,.449-1.223A3.066,3.066,0,0,1,12.7,8.734a4.1,4.1,0,0,1,1.691-.344,3.342,3.342,0,0,1,2.289.73,2.635,2.635,0,0,1,.859,2.012v3.891a4.757,4.757,0,0,0,.3,1.852V17Zm-2.4-1.1a2.54,2.54,0,0,0,1.289-.352,2.127,2.127,0,0,0,.883-.914V12.9H14.961q-2.656,0-2.656,1.555a1.316,1.316,0,0,0,.453,1.063A1.742,1.742,0,0,0,13.922,15.9Zm10.8-1.141a1.064,1.064,0,0,0-.441-.91,4.249,4.249,0,0,0-1.539-.559A7.277,7.277,0,0,1,21,12.727a2.479,2.479,0,0,1-.953-.781,1.869,1.869,0,0,1-.309-1.078,2.193,2.193,0,0,1,.879-1.758,3.432,3.432,0,0,1,2.246-.719,3.532,3.532,0,0,1,2.332.742,2.357,2.357,0,0,1,.895,1.9H24.641a1.3,1.3,0,0,0-.5-1.023,1.888,1.888,0,0,0-1.27-.43,1.976,1.976,0,0,0-1.234.344,1.082,1.082,0,0,0-.445.9.877.877,0,0,0,.414.789,5.1,5.1,0,0,0,1.5.508,7.8,7.8,0,0,1,1.754.578,2.558,2.558,0,0,1,1,.809,1.988,1.988,0,0,1,.324,1.152,2.163,2.163,0,0,1-.906,1.816,3.8,3.8,0,0,1-2.352.684,4.257,4.257,0,0,1-1.8-.359,2.922,2.922,0,0,1-1.223-1,2.42,2.42,0,0,1-.441-1.395H20.9a1.5,1.5,0,0,0,.582,1.152,2.258,2.258,0,0,0,1.434.426,2.331,2.331,0,0,0,1.316-.332A1.02,1.02,0,0,0,24.727,14.758ZM27.672,12.7a4.993,4.993,0,0,1,.488-2.234A3.643,3.643,0,0,1,29.52,8.93a3.7,3.7,0,0,1,1.988-.539,3.565,3.565,0,0,1,2.793,1.2,4.6,4.6,0,0,1,1.066,3.18v.1a5.036,5.036,0,0,1-.473,2.215,3.589,3.589,0,0,1-1.352,1.527,3.743,3.743,0,0,1-2.02.547,3.556,3.556,0,0,1-2.785-1.2A4.575,4.575,0,0,1,27.672,12.8Zm1.453.172a3.616,3.616,0,0,0,.652,2.258,2.211,2.211,0,0,0,3.5-.012,3.955,3.955,0,0,0,.648-2.418,3.61,3.61,0,0,0-.66-2.254,2.1,2.1,0,0,0-1.754-.863,2.075,2.075,0,0,0-1.727.852A3.925,3.925,0,0,0,29.125,12.867Zm13.969-2.258H44.18a2.387,2.387,0,0,0,1.609-.539,1.8,1.8,0,0,0,.586-1.414,1.764,1.764,0,0,0-1.992-2,2.072,2.072,0,0,0-1.5.535,1.873,1.873,0,0,0-.559,1.418H40.883a2.9,2.9,0,0,1,.988-2.246,3.6,3.6,0,0,1,2.512-.895,3.558,3.558,0,0,1,2.523.852,3.076,3.076,0,0,1,.914,2.367,2.5,2.5,0,0,1-.48,1.438,2.9,2.9,0,0,1-1.309,1.039,2.8,2.8,0,0,1,1.449.984,2.734,2.734,0,0,1,.512,1.68,3.1,3.1,0,0,1-1,2.43,3.745,3.745,0,0,1-2.6.9,3.844,3.844,0,0,1-2.605-.867,2.877,2.877,0,0,1-1-2.289h1.453a1.859,1.859,0,0,0,.586,1.438,2.229,2.229,0,0,0,1.57.539,2.187,2.187,0,0,0,1.6-.547,2.108,2.108,0,0,0,.555-1.57,1.912,1.912,0,0,0-.609-1.523,2.655,2.655,0,0,0-1.758-.547H43.094Zm6.984,5.633a.905.905,0,0,1,.223-.625.848.848,0,0,1,.668-.25.874.874,0,0,1,.676.25.887.887,0,0,1,.23.625.839.839,0,0,1-.23.6.89.89,0,0,1-.676.242.8.8,0,0,1-.891-.844Zm.008-6.9a.905.905,0,0,1,.223-.625.848.848,0,0,1,.668-.25.874.874,0,0,1,.676.25.887.887,0,0,1,.23.625.839.839,0,0,1-.23.6.89.89,0,0,1-.676.242.8.8,0,0,1-.891-.844Zm14.383,4.688H59.7L58.633,17H57.086L61.43,5.625h1.313L67.094,17H65.555ZM60.156,12.8h3.867l-1.937-5.32ZM62.828,2.578h1.75l-2.094,2.3H61.32Zm9.656,7.266a4.331,4.331,0,0,0-.711-.055A1.9,1.9,0,0,0,69.844,11v6H68.4V8.547H69.8l.023.977a2.251,2.251,0,0,1,2.016-1.133,1.477,1.477,0,0,1,.641.109Zm8.484,3.023a5.026,5.026,0,0,1-.891,3.113,2.846,2.846,0,0,1-2.391,1.176,2.947,2.947,0,0,1-2.477-1.133l-.07.977H73.813V5h1.445V9.477a2.93,2.93,0,0,1,2.414-1.086A2.863,2.863,0,0,1,80.09,9.555a5.177,5.177,0,0,1,.879,3.188ZM79.523,12.7a3.906,3.906,0,0,0-.57-2.281,1.888,1.888,0,0,0-1.641-.8,2.122,2.122,0,0,0-2.055,1.328V14.6a2.181,2.181,0,0,0,2.07,1.328,1.878,1.878,0,0,0,1.617-.8A4.153,4.153,0,0,0,79.523,12.7Zm2.883-.008a4.993,4.993,0,0,1,.488-2.234A3.643,3.643,0,0,1,84.254,8.93a3.7,3.7,0,0,1,1.988-.539,3.565,3.565,0,0,1,2.793,1.2,4.6,4.6,0,0,1,1.066,3.18v.1a5.036,5.036,0,0,1-.473,2.215,3.589,3.589,0,0,1-1.352,1.527,3.743,3.743,0,0,1-2.02.547,3.556,3.556,0,0,1-2.785-1.2A4.575,4.575,0,0,1,82.406,12.8Zm1.453.172a3.616,3.616,0,0,0,.652,2.258,2.211,2.211,0,0,0,3.5-.012,3.955,3.955,0,0,0,.648-2.418A3.61,3.61,0,0,0,88,10.441a2.1,2.1,0,0,0-1.754-.863,2.075,2.075,0,0,0-1.727.852A3.925,3.925,0,0,0,83.859,12.867ZM93.484,17H92.039V5h1.445Zm5.82.156a3.693,3.693,0,0,1-2.8-1.129,4.19,4.19,0,0,1-1.078-3.02v-.266a5.073,5.073,0,0,1,.48-2.246,3.748,3.748,0,0,1,1.344-1.547,3.378,3.378,0,0,1,1.871-.559,3.166,3.166,0,0,1,2.563,1.086,4.7,4.7,0,0,1,.914,3.109v.6H96.875a3,3,0,0,0,.73,2.02,2.3,2.3,0,0,0,1.777.77,2.517,2.517,0,0,0,1.3-.312,3.259,3.259,0,0,0,.93-.828l.883.688A3.55,3.55,0,0,1,99.3,17.156Zm-.18-7.578a1.928,1.928,0,0,0-1.469.637A3.1,3.1,0,0,0,96.922,12h4.234v-.109a2.753,2.753,0,0,0-.594-1.707A1.815,1.815,0,0,0,99.125,9.578Zm10.07,5.18a1.064,1.064,0,0,0-.441-.91,4.249,4.249,0,0,0-1.539-.559,7.277,7.277,0,0,1-1.742-.562,2.479,2.479,0,0,1-.953-.781,1.869,1.869,0,0,1-.309-1.078,2.193,2.193,0,0,1,.879-1.758,3.432,3.432,0,0,1,2.246-.719,3.532,3.532,0,0,1,2.332.742,2.357,2.357,0,0,1,.895,1.9h-1.453a1.3,1.3,0,0,0-.5-1.023,1.888,1.888,0,0,0-1.27-.43,1.976,1.976,0,0,0-1.234.344,1.082,1.082,0,0,0-.445.9.877.877,0,0,0,.414.789,5.1,5.1,0,0,0,1.5.508,7.8,7.8,0,0,1,1.754.578,2.558,2.558,0,0,1,1,.809,1.988,1.988,0,0,1,.324,1.152,2.163,2.163,0,0,1-.906,1.816,3.8,3.8,0,0,1-2.352.684,4.257,4.257,0,0,1-1.8-.359,2.922,2.922,0,0,1-1.223-1,2.42,2.42,0,0,1-.441-1.395h1.445a1.5,1.5,0,0,0,.582,1.152,2.258,2.258,0,0,0,1.434.426,2.331,2.331,0,0,0,1.316-.332A1.02,1.02,0,0,0,109.2,14.758Zm6.938-2.055a4.952,4.952,0,0,1,.922-3.129,3.137,3.137,0,0,1,4.766-.168V5h1.445V17h-1.328l-.07-.906a2.943,2.943,0,0,1-2.414,1.063,2.887,2.887,0,0,1-2.395-1.2,5.008,5.008,0,0,1-.926-3.141Zm1.445.164a3.749,3.749,0,0,0,.594,2.25,1.92,1.92,0,0,0,1.641.813A2.108,2.108,0,0,0,121.82,14.7V10.813a2.125,2.125,0,0,0-1.992-1.2,1.929,1.929,0,0,0-1.656.82A4.128,4.128,0,0,0,117.578,12.867Zm11.438,4.289a3.693,3.693,0,0,1-2.8-1.129,4.19,4.19,0,0,1-1.078-3.02v-.266a5.073,5.073,0,0,1,.48-2.246,3.748,3.748,0,0,1,1.344-1.547,3.378,3.378,0,0,1,1.871-.559A3.166,3.166,0,0,1,131.4,9.477a4.7,4.7,0,0,1,.914,3.109v.6h-5.727a3,3,0,0,0,.73,2.02,2.3,2.3,0,0,0,1.777.77,2.517,2.517,0,0,0,1.3-.312,3.258,3.258,0,0,0,.93-.828l.883.688A3.55,3.55,0,0,1,129.016,17.156Zm-.18-7.578a1.928,1.928,0,0,0-1.469.637A3.1,3.1,0,0,0,126.633,12h4.234v-.109a2.753,2.753,0,0,0-.594-1.707A1.815,1.815,0,0,0,128.836,9.578Zm8.758,3.125a4.952,4.952,0,0,1,.922-3.129,3.137,3.137,0,0,1,4.766-.168V5h1.445V17H143.4l-.07-.906a2.943,2.943,0,0,1-2.414,1.063,2.887,2.887,0,0,1-2.395-1.2,5.008,5.008,0,0,1-.926-3.141Zm1.445.164a3.749,3.749,0,0,0,.594,2.25,1.919,1.919,0,0,0,1.641.813,2.108,2.108,0,0,0,2.008-1.234V10.813a2.125,2.125,0,0,0-1.992-1.2,1.929,1.929,0,0,0-1.656.82A4.128,4.128,0,0,0,139.039,12.867Zm11.438,4.289a3.693,3.693,0,0,1-2.8-1.129,4.19,4.19,0,0,1-1.078-3.02v-.266a5.073,5.073,0,0,1,.48-2.246,3.748,3.748,0,0,1,1.344-1.547,3.378,3.378,0,0,1,1.871-.559,3.166,3.166,0,0,1,2.563,1.086,4.7,4.7,0,0,1,.914,3.109v.6h-5.727a3,3,0,0,0,.73,2.02,2.3,2.3,0,0,0,1.777.77,2.517,2.517,0,0,0,1.3-.312,3.258,3.258,0,0,0,.93-.828l.883.688A3.55,3.55,0,0,1,150.477,17.156Zm-.18-7.578a1.928,1.928,0,0,0-1.469.637A3.1,3.1,0,0,0,148.094,12h4.234v-.109a2.753,2.753,0,0,0-.594-1.707A1.815,1.815,0,0,0,150.3,9.578Zm8.539,6.4a2.082,2.082,0,0,0,1.352-.469,1.649,1.649,0,0,0,.641-1.172H162.2a2.621,2.621,0,0,1-.5,1.383,3.293,3.293,0,0,1-1.23,1.047,3.55,3.55,0,0,1-1.629.391A3.482,3.482,0,0,1,156.09,16a4.59,4.59,0,0,1-1.02-3.152v-.242a5.089,5.089,0,0,1,.453-2.2,3.451,3.451,0,0,1,1.3-1.492,3.7,3.7,0,0,1,2-.531,3.39,3.39,0,0,1,2.363.852,3.043,3.043,0,0,1,1,2.211h-1.367a1.992,1.992,0,0,0-.621-1.348,1.932,1.932,0,0,0-1.379-.527,2.023,2.023,0,0,0-1.707.793,3.724,3.724,0,0,0-.605,2.293v.273a3.65,3.65,0,0,0,.6,2.25A2.033,2.033,0,0,0,158.836,15.977ZM165.391,17h-1.445V8.547h1.445ZM163.828,6.3a.863.863,0,0,1,.215-.594.807.807,0,0,1,.637-.242.819.819,0,0,1,.641.242.854.854,0,0,1,.219.594.826.826,0,0,1-.219.586.834.834,0,0,1-.641.234.821.821,0,0,1-.637-.234A.834.834,0,0,1,163.828,6.3Zm8.8,8.453a1.064,1.064,0,0,0-.441-.91,4.249,4.249,0,0,0-1.539-.559,7.277,7.277,0,0,1-1.742-.562,2.479,2.479,0,0,1-.953-.781,1.869,1.869,0,0,1-.309-1.078,2.193,2.193,0,0,1,.879-1.758,3.432,3.432,0,0,1,2.246-.719,3.532,3.532,0,0,1,2.332.742,2.357,2.357,0,0,1,.895,1.9h-1.453a1.3,1.3,0,0,0-.5-1.023,1.888,1.888,0,0,0-1.27-.43,1.976,1.976,0,0,0-1.234.344,1.082,1.082,0,0,0-.445.9.877.877,0,0,0,.414.789,5.1,5.1,0,0,0,1.5.508,7.8,7.8,0,0,1,1.754.578,2.558,2.558,0,0,1,1,.809,1.988,1.988,0,0,1,.324,1.152,2.163,2.163,0,0,1-.906,1.816,3.8,3.8,0,0,1-2.352.684,4.257,4.257,0,0,1-1.8-.359,2.922,2.922,0,0,1-1.223-1,2.42,2.42,0,0,1-.441-1.395H168.8a1.5,1.5,0,0,0,.582,1.152,2.258,2.258,0,0,0,1.434.426,2.331,2.331,0,0,0,1.316-.332A1.02,1.02,0,0,0,172.625,14.758Zm4.9,2.242h-1.445V8.547h1.445ZM175.961,6.3a.863.863,0,0,1,.215-.594.807.807,0,0,1,.637-.242.819.819,0,0,1,.641.242.854.854,0,0,1,.219.594.826.826,0,0,1-.219.586.834.834,0,0,1-.641.234.821.821,0,0,1-.637-.234A.834.834,0,0,1,175.961,6.3Zm3.492,6.391a4.993,4.993,0,0,1,.488-2.234A3.642,3.642,0,0,1,181.3,8.93a3.7,3.7,0,0,1,1.988-.539,3.565,3.565,0,0,1,2.793,1.2,4.6,4.6,0,0,1,1.066,3.18v.1a5.036,5.036,0,0,1-.473,2.215,3.589,3.589,0,0,1-1.352,1.527,3.743,3.743,0,0,1-2.02.547,3.556,3.556,0,0,1-2.785-1.2,4.575,4.575,0,0,1-1.066-3.164Zm1.453.172a3.616,3.616,0,0,0,.652,2.258,2.211,2.211,0,0,0,3.5-.012A3.954,3.954,0,0,0,185.7,12.7a3.61,3.61,0,0,0-.66-2.254,2.1,2.1,0,0,0-1.754-.863,2.075,2.075,0,0,0-1.727.852A3.925,3.925,0,0,0,180.906,12.867ZM183.945,5h1.75L183.6,7.3h-1.164Zm6.383,3.547.047,1.063a3.08,3.08,0,0,1,2.531-1.219q2.68,0,2.7,3.023V17h-1.445V11.406a1.946,1.946,0,0,0-.418-1.352,1.675,1.675,0,0,0-1.277-.437,2.086,2.086,0,0,0-1.234.375,2.546,2.546,0,0,0-.828.984V17h-1.445V8.547Z" transform="translate(415.051 2813)" fill="#12263f"/>
    <path id="Trazado_881733" data-name="Trazado 881733" d="M2.82,12.547V17H1.32V5.625h4.2a4.215,4.215,0,0,1,2.926.953A3.231,3.231,0,0,1,9.5,9.1a3.189,3.189,0,0,1-1.035,2.551,4.4,4.4,0,0,1-2.965.895Zm0-1.227h2.7a2.7,2.7,0,0,0,1.844-.566A2.069,2.069,0,0,0,8,9.117a2.138,2.138,0,0,0-.641-1.625A2.528,2.528,0,0,0,5.6,6.859H2.82ZM16.32,17a3.036,3.036,0,0,1-.2-.891,3.225,3.225,0,0,1-2.406,1.047,2.984,2.984,0,0,1-2.051-.707,2.287,2.287,0,0,1-.8-1.793,2.39,2.39,0,0,1,1-2.051,4.733,4.733,0,0,1,2.824-.73h1.406v-.664A1.623,1.623,0,0,0,15.641,10,1.821,1.821,0,0,0,14.3,9.555a2.107,2.107,0,0,0-1.3.391,1.151,1.151,0,0,0-.523.945H11.031a2,2,0,0,1,.449-1.223A3.066,3.066,0,0,1,12.7,8.734a4.1,4.1,0,0,1,1.691-.344,3.342,3.342,0,0,1,2.289.73,2.635,2.635,0,0,1,.859,2.012v3.891a4.757,4.757,0,0,0,.3,1.852V17Zm-2.4-1.1a2.54,2.54,0,0,0,1.289-.352,2.127,2.127,0,0,0,.883-.914V12.9H14.961q-2.656,0-2.656,1.555a1.316,1.316,0,0,0,.453,1.063A1.742,1.742,0,0,0,13.922,15.9Zm10.8-1.141a1.064,1.064,0,0,0-.441-.91,4.249,4.249,0,0,0-1.539-.559A7.277,7.277,0,0,1,21,12.727a2.479,2.479,0,0,1-.953-.781,1.869,1.869,0,0,1-.309-1.078,2.193,2.193,0,0,1,.879-1.758,3.432,3.432,0,0,1,2.246-.719,3.532,3.532,0,0,1,2.332.742,2.357,2.357,0,0,1,.895,1.9H24.641a1.3,1.3,0,0,0-.5-1.023,1.888,1.888,0,0,0-1.27-.43,1.976,1.976,0,0,0-1.234.344,1.082,1.082,0,0,0-.445.9.877.877,0,0,0,.414.789,5.1,5.1,0,0,0,1.5.508,7.8,7.8,0,0,1,1.754.578,2.558,2.558,0,0,1,1,.809,1.988,1.988,0,0,1,.324,1.152,2.163,2.163,0,0,1-.906,1.816,3.8,3.8,0,0,1-2.352.684,4.257,4.257,0,0,1-1.8-.359,2.922,2.922,0,0,1-1.223-1,2.42,2.42,0,0,1-.441-1.395H20.9a1.5,1.5,0,0,0,.582,1.152,2.258,2.258,0,0,0,1.434.426,2.331,2.331,0,0,0,1.316-.332A1.02,1.02,0,0,0,24.727,14.758ZM27.672,12.7a4.993,4.993,0,0,1,.488-2.234A3.643,3.643,0,0,1,29.52,8.93a3.7,3.7,0,0,1,1.988-.539,3.565,3.565,0,0,1,2.793,1.2,4.6,4.6,0,0,1,1.066,3.18v.1a5.036,5.036,0,0,1-.473,2.215,3.589,3.589,0,0,1-1.352,1.527,3.743,3.743,0,0,1-2.02.547,3.556,3.556,0,0,1-2.785-1.2A4.575,4.575,0,0,1,27.672,12.8Zm1.453.172a3.616,3.616,0,0,0,.652,2.258,2.211,2.211,0,0,0,3.5-.012,3.955,3.955,0,0,0,.648-2.418,3.61,3.61,0,0,0-.66-2.254,2.1,2.1,0,0,0-1.754-.863,2.075,2.075,0,0,0-1.727.852A3.925,3.925,0,0,0,29.125,12.867Zm17.969.313h1.578v1.18H47.094V17H45.641V14.359h-5.18v-.852l5.094-7.883h1.539Zm-4.992,0h3.539V7.6l-.172.313Zm7.977,3.063a.905.905,0,0,1,.223-.625.848.848,0,0,1,.668-.25.874.874,0,0,1,.676.25.887.887,0,0,1,.23.625.839.839,0,0,1-.23.6.89.89,0,0,1-.676.242.8.8,0,0,1-.891-.844Zm.008-6.9a.905.905,0,0,1,.223-.625.848.848,0,0,1,.668-.25.874.874,0,0,1,.676.25.887.887,0,0,1,.23.625.839.839,0,0,1-.23.6.89.89,0,0,1-.676.242.8.8,0,0,1-.891-.844Zm14.383,4.688H59.7L58.633,17H57.086L61.43,5.625h1.313L67.094,17H65.555ZM60.156,12.8h3.867l-1.937-5.32Zm7.9-.094a4.968,4.968,0,0,1,.914-3.145A3.151,3.151,0,0,1,73.8,9.484l.07-.937H75.2V16.8a3.439,3.439,0,0,1-.973,2.586,3.589,3.589,0,0,1-2.613.945,4.348,4.348,0,0,1-1.789-.391,3.08,3.08,0,0,1-1.336-1.07l.75-.867a2.826,2.826,0,0,0,2.273,1.148,2.214,2.214,0,0,0,1.645-.594,2.269,2.269,0,0,0,.59-1.672v-.727a2.971,2.971,0,0,1-2.367,1,2.887,2.887,0,0,1-2.4-1.2A5.224,5.224,0,0,1,68.055,12.7Zm1.453.164a3.79,3.79,0,0,0,.586,2.246,1.9,1.9,0,0,0,1.641.816,2.117,2.117,0,0,0,2.008-1.242V10.828A2.142,2.142,0,0,0,71.75,9.617a1.921,1.921,0,0,0-1.648.82A4.128,4.128,0,0,0,69.508,12.867ZM81.461,9.844a4.331,4.331,0,0,0-.711-.055A1.9,1.9,0,0,0,78.82,11v6H77.375V8.547h1.406l.023.977A2.251,2.251,0,0,1,80.82,8.391a1.477,1.477,0,0,1,.641.109ZM86.3,17.156a3.693,3.693,0,0,1-2.8-1.129,4.19,4.19,0,0,1-1.078-3.02v-.266A5.073,5.073,0,0,1,82.9,10.5a3.748,3.748,0,0,1,1.344-1.547,3.378,3.378,0,0,1,1.871-.559A3.166,3.166,0,0,1,88.68,9.477a4.7,4.7,0,0,1,.914,3.109v.6H83.867a3,3,0,0,0,.73,2.02,2.3,2.3,0,0,0,1.777.77,2.517,2.517,0,0,0,1.3-.312,3.259,3.259,0,0,0,.93-.828l.883.688A3.55,3.55,0,0,1,86.3,17.156Zm-.18-7.578a1.928,1.928,0,0,0-1.469.637A3.1,3.1,0,0,0,83.914,12h4.234v-.109a2.753,2.753,0,0,0-.594-1.707A1.815,1.815,0,0,0,86.117,9.578Zm4.8,3.125a4.968,4.968,0,0,1,.914-3.145,3.151,3.151,0,0,1,4.836-.074l.07-.937h1.32V16.8a3.439,3.439,0,0,1-.973,2.586,3.589,3.589,0,0,1-2.613.945,4.348,4.348,0,0,1-1.789-.391,3.08,3.08,0,0,1-1.336-1.07L92.1,18a2.826,2.826,0,0,0,2.273,1.148,2.214,2.214,0,0,0,1.645-.594,2.269,2.269,0,0,0,.59-1.672v-.727a2.971,2.971,0,0,1-2.367,1,2.887,2.887,0,0,1-2.4-1.2A5.224,5.224,0,0,1,90.922,12.7Zm1.453.164a3.79,3.79,0,0,0,.586,2.246,1.9,1.9,0,0,0,1.641.816,2.117,2.117,0,0,0,2.008-1.242V10.828a2.142,2.142,0,0,0-1.992-1.211,1.921,1.921,0,0,0-1.648.82A4.128,4.128,0,0,0,92.375,12.867ZM105.461,17a3.036,3.036,0,0,1-.2-.891,3.225,3.225,0,0,1-2.406,1.047,2.984,2.984,0,0,1-2.051-.707,2.288,2.288,0,0,1-.8-1.793,2.39,2.39,0,0,1,1-2.051,4.733,4.733,0,0,1,2.824-.73h1.406v-.664A1.623,1.623,0,0,0,104.781,10a1.821,1.821,0,0,0-1.336-.449,2.108,2.108,0,0,0-1.3.391,1.151,1.151,0,0,0-.523.945h-1.453a2,2,0,0,1,.449-1.223,3.066,3.066,0,0,1,1.219-.934,4.1,4.1,0,0,1,1.691-.344,3.342,3.342,0,0,1,2.289.73,2.635,2.635,0,0,1,.859,2.012v3.891a4.757,4.757,0,0,0,.3,1.852V17Zm-2.4-1.1a2.54,2.54,0,0,0,1.289-.352,2.127,2.127,0,0,0,.883-.914V12.9H104.1q-2.656,0-2.656,1.555a1.316,1.316,0,0,0,.453,1.063A1.742,1.742,0,0,0,103.063,15.9Zm9.273.078a2.082,2.082,0,0,0,1.352-.469,1.649,1.649,0,0,0,.641-1.172H115.7a2.621,2.621,0,0,1-.5,1.383,3.293,3.293,0,0,1-1.23,1.047,3.55,3.55,0,0,1-1.629.391A3.482,3.482,0,0,1,109.59,16a4.59,4.59,0,0,1-1.02-3.152v-.242a5.089,5.089,0,0,1,.453-2.2,3.451,3.451,0,0,1,1.3-1.492,3.7,3.7,0,0,1,2-.531,3.39,3.39,0,0,1,2.363.852,3.043,3.043,0,0,1,1,2.211h-1.367a1.992,1.992,0,0,0-.621-1.348,1.932,1.932,0,0,0-1.379-.527,2.023,2.023,0,0,0-1.707.793,3.724,3.724,0,0,0-.605,2.293v.273a3.65,3.65,0,0,0,.6,2.25A2.033,2.033,0,0,0,112.336,15.977ZM118.891,17h-1.445V8.547h1.445ZM117.328,6.3a.863.863,0,0,1,.215-.594.807.807,0,0,1,.637-.242.819.819,0,0,1,.641.242.854.854,0,0,1,.219.594.826.826,0,0,1-.219.586.834.834,0,0,1-.641.234.821.821,0,0,1-.637-.234A.834.834,0,0,1,117.328,6.3ZM120.82,12.7a4.993,4.993,0,0,1,.488-2.234,3.643,3.643,0,0,1,1.359-1.531,3.7,3.7,0,0,1,1.988-.539,3.565,3.565,0,0,1,2.793,1.2,4.6,4.6,0,0,1,1.066,3.18v.1a5.036,5.036,0,0,1-.473,2.215,3.589,3.589,0,0,1-1.352,1.527,3.743,3.743,0,0,1-2.02.547,3.556,3.556,0,0,1-2.785-1.2A4.575,4.575,0,0,1,120.82,12.8Zm1.453.172a3.616,3.616,0,0,0,.652,2.258,2.211,2.211,0,0,0,3.5-.012,3.955,3.955,0,0,0,.648-2.418,3.61,3.61,0,0,0-.66-2.254,2.1,2.1,0,0,0-1.754-.863,2.075,2.075,0,0,0-1.727.852A3.925,3.925,0,0,0,122.273,12.867ZM125.313,5h1.75l-2.094,2.3H123.8ZM131.7,8.547l.047,1.063a3.08,3.08,0,0,1,2.531-1.219q2.68,0,2.7,3.023V17h-1.445V11.406a1.946,1.946,0,0,0-.418-1.352,1.675,1.675,0,0,0-1.277-.437,2.086,2.086,0,0,0-1.234.375,2.546,2.546,0,0,0-.828.984V17h-1.445V8.547Z" transform="translate(510.051 2894)" fill="#12263f"/>
    <path id="Trazado_881734" data-name="Trazado 881734" d="M2.82,12.547V17H1.32V5.625h4.2a4.215,4.215,0,0,1,2.926.953A3.231,3.231,0,0,1,9.5,9.1a3.189,3.189,0,0,1-1.035,2.551,4.4,4.4,0,0,1-2.965.895Zm0-1.227h2.7a2.7,2.7,0,0,0,1.844-.566A2.069,2.069,0,0,0,8,9.117a2.138,2.138,0,0,0-.641-1.625A2.528,2.528,0,0,0,5.6,6.859H2.82ZM16.32,17a3.036,3.036,0,0,1-.2-.891,3.225,3.225,0,0,1-2.406,1.047,2.984,2.984,0,0,1-2.051-.707,2.287,2.287,0,0,1-.8-1.793,2.39,2.39,0,0,1,1-2.051,4.733,4.733,0,0,1,2.824-.73h1.406v-.664A1.623,1.623,0,0,0,15.641,10,1.821,1.821,0,0,0,14.3,9.555a2.107,2.107,0,0,0-1.3.391,1.151,1.151,0,0,0-.523.945H11.031a2,2,0,0,1,.449-1.223A3.066,3.066,0,0,1,12.7,8.734a4.1,4.1,0,0,1,1.691-.344,3.342,3.342,0,0,1,2.289.73,2.635,2.635,0,0,1,.859,2.012v3.891a4.757,4.757,0,0,0,.3,1.852V17Zm-2.4-1.1a2.54,2.54,0,0,0,1.289-.352,2.127,2.127,0,0,0,.883-.914V12.9H14.961q-2.656,0-2.656,1.555a1.316,1.316,0,0,0,.453,1.063A1.742,1.742,0,0,0,13.922,15.9Zm10.8-1.141a1.064,1.064,0,0,0-.441-.91,4.249,4.249,0,0,0-1.539-.559A7.277,7.277,0,0,1,21,12.727a2.479,2.479,0,0,1-.953-.781,1.869,1.869,0,0,1-.309-1.078,2.193,2.193,0,0,1,.879-1.758,3.432,3.432,0,0,1,2.246-.719,3.532,3.532,0,0,1,2.332.742,2.357,2.357,0,0,1,.895,1.9H24.641a1.3,1.3,0,0,0-.5-1.023,1.888,1.888,0,0,0-1.27-.43,1.976,1.976,0,0,0-1.234.344,1.082,1.082,0,0,0-.445.9.877.877,0,0,0,.414.789,5.1,5.1,0,0,0,1.5.508,7.8,7.8,0,0,1,1.754.578,2.558,2.558,0,0,1,1,.809,1.988,1.988,0,0,1,.324,1.152,2.163,2.163,0,0,1-.906,1.816,3.8,3.8,0,0,1-2.352.684,4.257,4.257,0,0,1-1.8-.359,2.922,2.922,0,0,1-1.223-1,2.42,2.42,0,0,1-.441-1.395H20.9a1.5,1.5,0,0,0,.582,1.152,2.258,2.258,0,0,0,1.434.426,2.331,2.331,0,0,0,1.316-.332A1.02,1.02,0,0,0,24.727,14.758ZM27.672,12.7a4.993,4.993,0,0,1,.488-2.234A3.643,3.643,0,0,1,29.52,8.93a3.7,3.7,0,0,1,1.988-.539,3.565,3.565,0,0,1,2.793,1.2,4.6,4.6,0,0,1,1.066,3.18v.1a5.036,5.036,0,0,1-.473,2.215,3.589,3.589,0,0,1-1.352,1.527,3.743,3.743,0,0,1-2.02.547,3.556,3.556,0,0,1-2.785-1.2A4.575,4.575,0,0,1,27.672,12.8Zm1.453.172a3.616,3.616,0,0,0,.652,2.258,2.211,2.211,0,0,0,3.5-.012,3.955,3.955,0,0,0,.648-2.418,3.61,3.61,0,0,0-.66-2.254,2.1,2.1,0,0,0-1.754-.863,2.075,2.075,0,0,0-1.727.852A3.925,3.925,0,0,0,29.125,12.867ZM41.656,11.3l.578-5.672h5.828V6.961h-4.6l-.344,3.1a3.671,3.671,0,0,1,1.9-.492A3.138,3.138,0,0,1,47.484,10.6a4.026,4.026,0,0,1,.914,2.777,3.886,3.886,0,0,1-.949,2.77A3.46,3.46,0,0,1,44.8,17.156a3.6,3.6,0,0,1-2.461-.836,3.337,3.337,0,0,1-1.086-2.312h1.367a2.3,2.3,0,0,0,.7,1.473,2.162,2.162,0,0,0,1.484.5,1.95,1.95,0,0,0,1.582-.687,2.874,2.874,0,0,0,.574-1.9,2.638,2.638,0,0,0-.621-1.832,2.113,2.113,0,0,0-1.652-.691,2.383,2.383,0,0,0-1.484.414l-.383.313Zm8.422,4.945a.905.905,0,0,1,.223-.625.848.848,0,0,1,.668-.25.874.874,0,0,1,.676.25.887.887,0,0,1,.23.625.839.839,0,0,1-.23.6.89.89,0,0,1-.676.242.8.8,0,0,1-.891-.844Zm.008-6.9a.905.905,0,0,1,.223-.625.848.848,0,0,1,.668-.25.874.874,0,0,1,.676.25.887.887,0,0,1,.23.625.839.839,0,0,1-.23.6.89.89,0,0,1-.676.242.8.8,0,0,1-.891-.844Zm9.6,3.2V17h-1.5V5.625h4.2a4.215,4.215,0,0,1,2.926.953A3.231,3.231,0,0,1,66.367,9.1a3.189,3.189,0,0,1-1.035,2.551,4.4,4.4,0,0,1-2.965.895Zm0-1.227h2.7a2.7,2.7,0,0,0,1.844-.566,2.069,2.069,0,0,0,.641-1.637,2.138,2.138,0,0,0-.641-1.625,2.528,2.528,0,0,0-1.758-.633H59.688ZM72.141,9.844a4.331,4.331,0,0,0-.711-.055A1.9,1.9,0,0,0,69.5,11v6H68.055V8.547h1.406l.023.977A2.251,2.251,0,0,1,71.5,8.391a1.477,1.477,0,0,1,.641.109Zm4.836,7.313a3.693,3.693,0,0,1-2.8-1.129,4.19,4.19,0,0,1-1.078-3.02v-.266a5.073,5.073,0,0,1,.48-2.246,3.748,3.748,0,0,1,1.344-1.547A3.378,3.378,0,0,1,76.8,8.391a3.166,3.166,0,0,1,2.563,1.086,4.7,4.7,0,0,1,.914,3.109v.6H74.547a3,3,0,0,0,.73,2.02,2.3,2.3,0,0,0,1.777.77,2.517,2.517,0,0,0,1.3-.312,3.259,3.259,0,0,0,.93-.828l.883.688A3.55,3.55,0,0,1,76.977,17.156ZM76.8,9.578a1.928,1.928,0,0,0-1.469.637A3.1,3.1,0,0,0,74.594,12h4.234v-.109a2.753,2.753,0,0,0-.594-1.707A1.815,1.815,0,0,0,76.8,9.578Zm4.8,3.125a4.952,4.952,0,0,1,.922-3.129,3.137,3.137,0,0,1,4.766-.168V5h1.445V17H87.4l-.07-.906a2.943,2.943,0,0,1-2.414,1.063,2.887,2.887,0,0,1-2.395-1.2,5.008,5.008,0,0,1-.926-3.141Zm1.445.164a3.749,3.749,0,0,0,.594,2.25,1.92,1.92,0,0,0,1.641.813A2.108,2.108,0,0,0,87.281,14.7V10.813a2.125,2.125,0,0,0-1.992-1.2,1.929,1.929,0,0,0-1.656.82A4.128,4.128,0,0,0,83.039,12.867ZM92.539,17H91.094V8.547h1.445ZM90.977,6.3a.863.863,0,0,1,.215-.594.807.807,0,0,1,.637-.242.819.819,0,0,1,.641.242.854.854,0,0,1,.219.594.826.826,0,0,1-.219.586.834.834,0,0,1-.641.234.821.821,0,0,1-.637-.234A.834.834,0,0,1,90.977,6.3Zm7.266,9.672a2.082,2.082,0,0,0,1.352-.469,1.649,1.649,0,0,0,.641-1.172H101.6a2.621,2.621,0,0,1-.5,1.383,3.293,3.293,0,0,1-1.23,1.047,3.55,3.55,0,0,1-1.629.391A3.482,3.482,0,0,1,95.5,16a4.59,4.59,0,0,1-1.02-3.152v-.242a5.089,5.089,0,0,1,.453-2.2,3.451,3.451,0,0,1,1.3-1.492,3.7,3.7,0,0,1,2-.531,3.39,3.39,0,0,1,2.363.852,3.043,3.043,0,0,1,1,2.211h-1.367a1.992,1.992,0,0,0-.621-1.348,1.932,1.932,0,0,0-1.379-.527,2.023,2.023,0,0,0-1.707.793,3.724,3.724,0,0,0-.605,2.293v.273a3.65,3.65,0,0,0,.6,2.25A2.033,2.033,0,0,0,98.242,15.977Zm8.375,0a2.082,2.082,0,0,0,1.352-.469,1.649,1.649,0,0,0,.641-1.172h1.367a2.621,2.621,0,0,1-.5,1.383,3.293,3.293,0,0,1-1.23,1.047,3.55,3.55,0,0,1-1.629.391A3.482,3.482,0,0,1,103.871,16a4.59,4.59,0,0,1-1.02-3.152v-.242a5.089,5.089,0,0,1,.453-2.2,3.451,3.451,0,0,1,1.3-1.492,3.7,3.7,0,0,1,2-.531,3.39,3.39,0,0,1,2.363.852,3.043,3.043,0,0,1,1,2.211h-1.367a1.992,1.992,0,0,0-.621-1.348,1.932,1.932,0,0,0-1.379-.527,2.023,2.023,0,0,0-1.707.793,3.724,3.724,0,0,0-.605,2.293v.273a3.65,3.65,0,0,0,.6,2.25A2.033,2.033,0,0,0,106.617,15.977ZM113.172,17h-1.445V8.547h1.445ZM111.609,6.3a.863.863,0,0,1,.215-.594.807.807,0,0,1,.637-.242.819.819,0,0,1,.641.242.854.854,0,0,1,.219.594.826.826,0,0,1-.219.586.834.834,0,0,1-.641.234.821.821,0,0,1-.637-.234A.834.834,0,0,1,111.609,6.3ZM115.1,12.7a4.993,4.993,0,0,1,.488-2.234,3.643,3.643,0,0,1,1.359-1.531,3.7,3.7,0,0,1,1.988-.539,3.565,3.565,0,0,1,2.793,1.2,4.6,4.6,0,0,1,1.066,3.18v.1a5.036,5.036,0,0,1-.473,2.215,3.589,3.589,0,0,1-1.352,1.527,3.743,3.743,0,0,1-2.02.547,3.556,3.556,0,0,1-2.785-1.2A4.575,4.575,0,0,1,115.1,12.8Zm1.453.172a3.616,3.616,0,0,0,.652,2.258,2.211,2.211,0,0,0,3.5-.012,3.955,3.955,0,0,0,.648-2.418,3.61,3.61,0,0,0-.66-2.254,2.1,2.1,0,0,0-1.754-.863,2.075,2.075,0,0,0-1.727.852A3.925,3.925,0,0,0,116.555,12.867ZM119.594,5h1.75L119.25,7.3h-1.164Zm6.383,3.547.047,1.063a3.08,3.08,0,0,1,2.531-1.219q2.68,0,2.7,3.023V17h-1.445V11.406a1.946,1.946,0,0,0-.418-1.352,1.675,1.675,0,0,0-1.277-.437,2.086,2.086,0,0,0-1.234.375,2.546,2.546,0,0,0-.828.984V17h-1.445V8.547ZM137.883,17V9.664h-1.336V8.547h1.336V7.828a2.937,2.937,0,0,1,.809-2.2,3.136,3.136,0,0,1,2.285-.789,6.881,6.881,0,0,1,2.211.477l-.242,1.219a5.008,5.008,0,0,0-1.859-.391,1.819,1.819,0,0,0-1.34.418,1.723,1.723,0,0,0-.41,1.254v.734h1.727V9.664h-1.727V17Zm6.023,0h-1.453V8.547h1.453Zm3.719-8.453.047,1.063A3.08,3.08,0,0,1,150.2,8.391q2.68,0,2.7,3.023V17h-1.445V11.406a1.946,1.946,0,0,0-.418-1.352,1.675,1.675,0,0,0-1.277-.437,2.086,2.086,0,0,0-1.234.375,2.546,2.546,0,0,0-.828.984V17h-1.445V8.547ZM160.3,17a3.036,3.036,0,0,1-.2-.891,3.225,3.225,0,0,1-2.406,1.047,2.984,2.984,0,0,1-2.051-.707,2.287,2.287,0,0,1-.8-1.793,2.39,2.39,0,0,1,1-2.051,4.733,4.733,0,0,1,2.824-.73h1.406v-.664A1.623,1.623,0,0,0,159.625,10a1.821,1.821,0,0,0-1.336-.449,2.107,2.107,0,0,0-1.3.391,1.151,1.151,0,0,0-.523.945h-1.453a2,2,0,0,1,.449-1.223,3.066,3.066,0,0,1,1.219-.934,4.1,4.1,0,0,1,1.691-.344,3.342,3.342,0,0,1,2.289.73,2.635,2.635,0,0,1,.859,2.012v3.891a4.757,4.757,0,0,0,.3,1.852V17Zm-2.4-1.1a2.54,2.54,0,0,0,1.289-.352,2.127,2.127,0,0,0,.883-.914V12.9h-1.133q-2.656,0-2.656,1.555a1.316,1.316,0,0,0,.453,1.063A1.742,1.742,0,0,0,157.906,15.9Zm7.453,1.1h-1.445V5h1.445Z" transform="translate(542.051 3055)" fill="#12263f"/>
    <path id="Trazado_881735" data-name="Trazado 881735" d="M4.672,11.93a7.053,7.053,0,0,1-2.809-1.363,2.6,2.6,0,0,1-.879-2A2.751,2.751,0,0,1,2.059,6.348a4.269,4.269,0,0,1,2.793-.879,4.66,4.66,0,0,1,2.09.453,3.436,3.436,0,0,1,1.422,1.25,3.2,3.2,0,0,1,.5,1.742H7.359A2.069,2.069,0,0,0,6.7,7.293,2.675,2.675,0,0,0,4.852,6.7a2.736,2.736,0,0,0-1.73.488A1.628,1.628,0,0,0,2.5,8.547a1.465,1.465,0,0,0,.59,1.176A5.79,5.79,0,0,0,5.1,10.6a9.3,9.3,0,0,1,2.219.879A3.367,3.367,0,0,1,8.5,12.6a2.861,2.861,0,0,1,.387,1.508,2.658,2.658,0,0,1-1.078,2.215,4.6,4.6,0,0,1-2.883.832,5.347,5.347,0,0,1-2.187-.449,3.681,3.681,0,0,1-1.566-1.23A3,3,0,0,1,.625,13.7H2.133a1.959,1.959,0,0,0,.762,1.629,3.207,3.207,0,0,0,2.035.6,2.948,2.948,0,0,0,1.82-.484,1.573,1.573,0,0,0,.633-1.32A1.545,1.545,0,0,0,6.8,12.832,6.755,6.755,0,0,0,4.672,11.93Zm9.422,5.227a3.693,3.693,0,0,1-2.8-1.129,4.19,4.19,0,0,1-1.078-3.02v-.266A5.073,5.073,0,0,1,10.7,10.5a3.748,3.748,0,0,1,1.344-1.547,3.378,3.378,0,0,1,1.871-.559,3.166,3.166,0,0,1,2.563,1.086,4.7,4.7,0,0,1,.914,3.109v.6H11.664a3,3,0,0,0,.73,2.02,2.3,2.3,0,0,0,1.777.77,2.517,2.517,0,0,0,1.3-.312,3.259,3.259,0,0,0,.93-.828l.883.688A3.55,3.55,0,0,1,14.094,17.156Zm-.18-7.578a1.928,1.928,0,0,0-1.469.637A3.1,3.1,0,0,0,11.711,12h4.234v-.109a2.753,2.753,0,0,0-.594-1.707A1.815,1.815,0,0,0,13.914,9.578ZM20.633,17H19.188V5h1.445Zm5.82.156a3.693,3.693,0,0,1-2.8-1.129,4.19,4.19,0,0,1-1.078-3.02v-.266a5.073,5.073,0,0,1,.48-2.246A3.748,3.748,0,0,1,24.4,8.949a3.378,3.378,0,0,1,1.871-.559,3.166,3.166,0,0,1,2.563,1.086,4.7,4.7,0,0,1,.914,3.109v.6H24.023a3,3,0,0,0,.73,2.02,2.3,2.3,0,0,0,1.777.77,2.517,2.517,0,0,0,1.3-.312,3.259,3.259,0,0,0,.93-.828l.883.688A3.55,3.55,0,0,1,26.453,17.156Zm-.18-7.578a1.928,1.928,0,0,0-1.469.637A3.1,3.1,0,0,0,24.07,12H28.3v-.109a2.753,2.753,0,0,0-.594-1.707A1.815,1.815,0,0,0,26.273,9.578Zm8.539,6.4a2.082,2.082,0,0,0,1.352-.469,1.649,1.649,0,0,0,.641-1.172h1.367a2.621,2.621,0,0,1-.5,1.383,3.293,3.293,0,0,1-1.23,1.047,3.55,3.55,0,0,1-1.629.391A3.482,3.482,0,0,1,32.066,16a4.59,4.59,0,0,1-1.02-3.152v-.242a5.089,5.089,0,0,1,.453-2.2,3.451,3.451,0,0,1,1.3-1.492,3.7,3.7,0,0,1,2-.531,3.39,3.39,0,0,1,2.363.852,3.043,3.043,0,0,1,1,2.211H36.8a1.992,1.992,0,0,0-.621-1.348A1.932,1.932,0,0,0,34.8,9.578a2.023,2.023,0,0,0-1.707.793,3.724,3.724,0,0,0-.605,2.293v.273a3.65,3.65,0,0,0,.6,2.25A2.033,2.033,0,0,0,34.813,15.977Zm8.375,0a2.082,2.082,0,0,0,1.352-.469,1.649,1.649,0,0,0,.641-1.172h1.367a2.621,2.621,0,0,1-.5,1.383,3.293,3.293,0,0,1-1.23,1.047,3.55,3.55,0,0,1-1.629.391A3.482,3.482,0,0,1,40.441,16a4.59,4.59,0,0,1-1.02-3.152v-.242a5.089,5.089,0,0,1,.453-2.2,3.451,3.451,0,0,1,1.3-1.492,3.7,3.7,0,0,1,2-.531,3.39,3.39,0,0,1,2.363.852,3.043,3.043,0,0,1,1,2.211H45.18a1.992,1.992,0,0,0-.621-1.348,1.932,1.932,0,0,0-1.379-.527,2.023,2.023,0,0,0-1.707.793,3.724,3.724,0,0,0-.605,2.293v.273a3.65,3.65,0,0,0,.6,2.25A2.033,2.033,0,0,0,43.188,15.977ZM49.742,17H48.3V8.547h1.445ZM48.18,6.3a.863.863,0,0,1,.215-.594.807.807,0,0,1,.637-.242.819.819,0,0,1,.641.242.854.854,0,0,1,.219.594.826.826,0,0,1-.219.586.834.834,0,0,1-.641.234.821.821,0,0,1-.637-.234A.834.834,0,0,1,48.18,6.3ZM51.672,12.7a4.993,4.993,0,0,1,.488-2.234A3.643,3.643,0,0,1,53.52,8.93a3.7,3.7,0,0,1,1.988-.539,3.565,3.565,0,0,1,2.793,1.2,4.6,4.6,0,0,1,1.066,3.18v.1a5.036,5.036,0,0,1-.473,2.215,3.589,3.589,0,0,1-1.352,1.527,3.743,3.743,0,0,1-2.02.547,3.556,3.556,0,0,1-2.785-1.2A4.575,4.575,0,0,1,51.672,12.8Zm1.453.172a3.616,3.616,0,0,0,.652,2.258,2.211,2.211,0,0,0,3.5-.012,3.955,3.955,0,0,0,.648-2.418,3.61,3.61,0,0,0-.66-2.254,2.1,2.1,0,0,0-1.754-.863,2.075,2.075,0,0,0-1.727.852A3.925,3.925,0,0,0,53.125,12.867ZM56.164,5h1.75L55.82,7.3H54.656Zm6.383,3.547.047,1.063a3.08,3.08,0,0,1,2.531-1.219q2.68,0,2.7,3.023V17H66.383V11.406a1.946,1.946,0,0,0-.418-1.352,1.675,1.675,0,0,0-1.277-.437,2.086,2.086,0,0,0-1.234.375,2.546,2.546,0,0,0-.828.984V17H61.18V8.547ZM79.188,17a3.036,3.036,0,0,1-.2-.891,3.225,3.225,0,0,1-2.406,1.047,2.984,2.984,0,0,1-2.051-.707,2.288,2.288,0,0,1-.8-1.793,2.39,2.39,0,0,1,1-2.051,4.733,4.733,0,0,1,2.824-.73h1.406v-.664A1.623,1.623,0,0,0,78.508,10a1.821,1.821,0,0,0-1.336-.449,2.108,2.108,0,0,0-1.3.391,1.151,1.151,0,0,0-.523.945H73.9a2,2,0,0,1,.449-1.223,3.066,3.066,0,0,1,1.219-.934,4.1,4.1,0,0,1,1.691-.344,3.342,3.342,0,0,1,2.289.73,2.635,2.635,0,0,1,.859,2.012v3.891a4.757,4.757,0,0,0,.3,1.852V17Zm-2.4-1.1a2.54,2.54,0,0,0,1.289-.352,2.127,2.127,0,0,0,.883-.914V12.9H77.828q-2.656,0-2.656,1.555a1.316,1.316,0,0,0,.453,1.063A1.742,1.742,0,0,0,76.789,15.9ZM84.242,17H82.8V5h1.445Zm5.82.156a3.693,3.693,0,0,1-2.8-1.129,4.19,4.19,0,0,1-1.078-3.02v-.266a5.073,5.073,0,0,1,.48-2.246,3.748,3.748,0,0,1,1.344-1.547,3.378,3.378,0,0,1,1.871-.559,3.166,3.166,0,0,1,2.563,1.086,4.7,4.7,0,0,1,.914,3.109v.6H87.633a3,3,0,0,0,.73,2.02,2.3,2.3,0,0,0,1.777.77,2.517,2.517,0,0,0,1.3-.312,3.259,3.259,0,0,0,.93-.828l.883.688A3.55,3.55,0,0,1,90.063,17.156Zm-.18-7.578a1.928,1.928,0,0,0-1.469.637A3.1,3.1,0,0,0,87.68,12h4.234v-.109a2.753,2.753,0,0,0-.594-1.707A1.815,1.815,0,0,0,89.883,9.578ZM100.25,17a3.036,3.036,0,0,1-.2-.891,3.225,3.225,0,0,1-2.406,1.047,2.984,2.984,0,0,1-2.051-.707,2.288,2.288,0,0,1-.8-1.793,2.39,2.39,0,0,1,1-2.051,4.733,4.733,0,0,1,2.824-.73h1.406v-.664A1.623,1.623,0,0,0,99.57,10a1.821,1.821,0,0,0-1.336-.449,2.108,2.108,0,0,0-1.3.391,1.151,1.151,0,0,0-.523.945H94.961a2,2,0,0,1,.449-1.223,3.066,3.066,0,0,1,1.219-.934,4.1,4.1,0,0,1,1.691-.344,3.342,3.342,0,0,1,2.289.73,2.635,2.635,0,0,1,.859,2.012v3.891a4.757,4.757,0,0,0,.3,1.852V17Zm-2.4-1.1a2.54,2.54,0,0,0,1.289-.352,2.127,2.127,0,0,0,.883-.914V12.9H98.891q-2.656,0-2.656,1.555a1.316,1.316,0,0,0,.453,1.063A1.742,1.742,0,0,0,97.852,15.9ZM105.7,6.5V8.547h1.578V9.664H105.7v5.242a1.171,1.171,0,0,0,.211.762.888.888,0,0,0,.719.254,3.5,3.5,0,0,0,.688-.094V17a4.19,4.19,0,0,1-1.109.156,1.8,1.8,0,0,1-1.461-.586,2.517,2.517,0,0,1-.492-1.664V9.664h-1.539V8.547h1.539V6.5Zm2.727,6.2a4.993,4.993,0,0,1,.488-2.234A3.643,3.643,0,0,1,110.27,8.93a3.7,3.7,0,0,1,1.988-.539,3.565,3.565,0,0,1,2.793,1.2,4.6,4.6,0,0,1,1.066,3.18v.1a5.036,5.036,0,0,1-.473,2.215,3.589,3.589,0,0,1-1.352,1.527,3.743,3.743,0,0,1-2.02.547,3.556,3.556,0,0,1-2.785-1.2,4.575,4.575,0,0,1-1.066-3.164Zm1.453.172a3.616,3.616,0,0,0,.652,2.258,2.211,2.211,0,0,0,3.5-.012,3.955,3.955,0,0,0,.648-2.418,3.61,3.61,0,0,0-.66-2.254,2.1,2.1,0,0,0-1.754-.863,2.075,2.075,0,0,0-1.727.852A3.925,3.925,0,0,0,109.875,12.867Zm12.141-3.023a4.331,4.331,0,0,0-.711-.055A1.9,1.9,0,0,0,119.375,11v6H117.93V8.547h1.406l.023.977a2.251,2.251,0,0,1,2.016-1.133,1.477,1.477,0,0,1,.641.109Zm2.9,7.156h-1.445V8.547h1.445ZM123.352,6.3a.863.863,0,0,1,.215-.594.807.807,0,0,1,.637-.242.819.819,0,0,1,.641.242.854.854,0,0,1,.219.594.826.826,0,0,1-.219.586.834.834,0,0,1-.641.234.821.821,0,0,1-.637-.234A.834.834,0,0,1,123.352,6.3ZM132.445,17a3.036,3.036,0,0,1-.2-.891,3.225,3.225,0,0,1-2.406,1.047,2.984,2.984,0,0,1-2.051-.707,2.288,2.288,0,0,1-.8-1.793,2.39,2.39,0,0,1,1-2.051,4.733,4.733,0,0,1,2.824-.73h1.406v-.664A1.623,1.623,0,0,0,131.766,10a1.821,1.821,0,0,0-1.336-.449,2.107,2.107,0,0,0-1.3.391,1.151,1.151,0,0,0-.523.945h-1.453a2,2,0,0,1,.449-1.223,3.066,3.066,0,0,1,1.219-.934,4.1,4.1,0,0,1,1.691-.344,3.342,3.342,0,0,1,2.289.73,2.635,2.635,0,0,1,.859,2.012v3.891a4.757,4.757,0,0,0,.3,1.852V17Zm-2.4-1.1a2.54,2.54,0,0,0,1.289-.352,2.127,2.127,0,0,0,.883-.914V12.9h-1.133q-2.656,0-2.656,1.555a1.316,1.316,0,0,0,.453,1.063A1.742,1.742,0,0,0,130.047,15.9ZM.742,38.7a4.952,4.952,0,0,1,.922-3.129,2.915,2.915,0,0,1,2.414-1.184A2.932,2.932,0,0,1,6.43,35.406V31H7.875V43H6.547l-.07-.906a2.943,2.943,0,0,1-2.414,1.063,2.887,2.887,0,0,1-2.395-1.2,5.008,5.008,0,0,1-.926-3.141Zm1.445.164a3.749,3.749,0,0,0,.594,2.25,1.92,1.92,0,0,0,1.641.813A2.108,2.108,0,0,0,6.43,40.7V36.813a2.125,2.125,0,0,0-1.992-1.2,1.929,1.929,0,0,0-1.656.82A4.128,4.128,0,0,0,2.188,38.867Zm11.438,4.289a3.693,3.693,0,0,1-2.8-1.129,4.19,4.19,0,0,1-1.078-3.02v-.266a5.073,5.073,0,0,1,.48-2.246,3.748,3.748,0,0,1,1.344-1.547,3.378,3.378,0,0,1,1.871-.559,3.166,3.166,0,0,1,2.563,1.086,4.7,4.7,0,0,1,.914,3.109v.6H11.2a3,3,0,0,0,.73,2.02,2.3,2.3,0,0,0,1.777.77,2.517,2.517,0,0,0,1.3-.312,3.258,3.258,0,0,0,.93-.828l.883.688A3.55,3.55,0,0,1,13.625,43.156Zm-.18-7.578a1.928,1.928,0,0,0-1.469.637A3.1,3.1,0,0,0,11.242,38h4.234v-.109a2.753,2.753,0,0,0-.594-1.707A1.815,1.815,0,0,0,13.445,35.578Zm12.5,6.4a2.082,2.082,0,0,0,1.352-.469,1.649,1.649,0,0,0,.641-1.172H29.3a2.621,2.621,0,0,1-.5,1.383,3.293,3.293,0,0,1-1.23,1.047,3.55,3.55,0,0,1-1.629.391A3.482,3.482,0,0,1,23.2,42a4.59,4.59,0,0,1-1.02-3.152v-.242a5.089,5.089,0,0,1,.453-2.2,3.451,3.451,0,0,1,1.3-1.492,3.7,3.7,0,0,1,2-.531,3.39,3.39,0,0,1,2.363.852,3.043,3.043,0,0,1,1,2.211H27.938a1.992,1.992,0,0,0-.621-1.348,1.932,1.932,0,0,0-1.379-.527,2.023,2.023,0,0,0-1.707.793,3.724,3.724,0,0,0-.605,2.293v.273a3.65,3.65,0,0,0,.6,2.25A2.033,2.033,0,0,0,25.945,41.977ZM36.148,43a3.036,3.036,0,0,1-.2-.891,3.225,3.225,0,0,1-2.406,1.047,2.984,2.984,0,0,1-2.051-.707,2.287,2.287,0,0,1-.8-1.793,2.39,2.39,0,0,1,1-2.051,4.733,4.733,0,0,1,2.824-.73h1.406v-.664A1.623,1.623,0,0,0,35.469,36a1.821,1.821,0,0,0-1.336-.449,2.107,2.107,0,0,0-1.3.391,1.151,1.151,0,0,0-.523.945H30.859a2,2,0,0,1,.449-1.223,3.066,3.066,0,0,1,1.219-.934,4.1,4.1,0,0,1,1.691-.344,3.342,3.342,0,0,1,2.289.73,2.635,2.635,0,0,1,.859,2.012v3.891a4.757,4.757,0,0,0,.3,1.852V43Zm-2.4-1.1a2.54,2.54,0,0,0,1.289-.352,2.127,2.127,0,0,0,.883-.914V38.9H34.789q-2.656,0-2.656,1.555a1.316,1.316,0,0,0,.453,1.063A1.742,1.742,0,0,0,33.75,41.9Zm9.969-6.055a4.331,4.331,0,0,0-.711-.055A1.9,1.9,0,0,0,41.078,37v6H39.633V34.547h1.406l.023.977a2.251,2.251,0,0,1,2.016-1.133,1.477,1.477,0,0,1,.641.109ZM49.953,43a3.036,3.036,0,0,1-.2-.891,3.225,3.225,0,0,1-2.406,1.047,2.984,2.984,0,0,1-2.051-.707,2.287,2.287,0,0,1-.8-1.793,2.39,2.39,0,0,1,1-2.051,4.733,4.733,0,0,1,2.824-.73h1.406v-.664A1.623,1.623,0,0,0,49.273,36a1.821,1.821,0,0,0-1.336-.449,2.107,2.107,0,0,0-1.3.391,1.151,1.151,0,0,0-.523.945H44.664a2,2,0,0,1,.449-1.223,3.066,3.066,0,0,1,1.219-.934,4.1,4.1,0,0,1,1.691-.344,3.342,3.342,0,0,1,2.289.73,2.635,2.635,0,0,1,.859,2.012v3.891a4.757,4.757,0,0,0,.3,1.852V43Zm-2.4-1.1a2.54,2.54,0,0,0,1.289-.352,2.127,2.127,0,0,0,.883-.914V38.9H48.594q-2.656,0-2.656,1.555a1.316,1.316,0,0,0,.453,1.063A1.742,1.742,0,0,0,47.555,41.9Zm9.273.078a2.082,2.082,0,0,0,1.352-.469,1.649,1.649,0,0,0,.641-1.172h1.367a2.621,2.621,0,0,1-.5,1.383,3.293,3.293,0,0,1-1.23,1.047,3.55,3.55,0,0,1-1.629.391A3.482,3.482,0,0,1,54.082,42a4.59,4.59,0,0,1-1.02-3.152v-.242a5.089,5.089,0,0,1,.453-2.2,3.451,3.451,0,0,1,1.3-1.492,3.7,3.7,0,0,1,2-.531,3.39,3.39,0,0,1,2.363.852,3.043,3.043,0,0,1,1,2.211H58.82a1.992,1.992,0,0,0-.621-1.348,1.932,1.932,0,0,0-1.379-.527,2.023,2.023,0,0,0-1.707.793,3.724,3.724,0,0,0-.605,2.293v.273a3.65,3.65,0,0,0,.6,2.25A2.033,2.033,0,0,0,56.828,41.977ZM63.773,32.5v2.047h1.578v1.117H63.773v5.242a1.171,1.171,0,0,0,.211.762.888.888,0,0,0,.719.254,3.5,3.5,0,0,0,.688-.094V43a4.19,4.19,0,0,1-1.109.156,1.8,1.8,0,0,1-1.461-.586,2.517,2.517,0,0,1-.492-1.664V35.664H60.789V34.547h1.539V32.5Zm6.773,10.656a3.693,3.693,0,0,1-2.8-1.129,4.19,4.19,0,0,1-1.078-3.02v-.266a5.073,5.073,0,0,1,.48-2.246A3.748,3.748,0,0,1,68.5,34.949a3.378,3.378,0,0,1,1.871-.559,3.166,3.166,0,0,1,2.563,1.086,4.7,4.7,0,0,1,.914,3.109v.6H68.117a3,3,0,0,0,.73,2.02,2.3,2.3,0,0,0,1.777.77,2.517,2.517,0,0,0,1.3-.312,3.259,3.259,0,0,0,.93-.828l.883.688A3.55,3.55,0,0,1,70.547,43.156Zm-.18-7.578a1.928,1.928,0,0,0-1.469.637A3.1,3.1,0,0,0,68.164,38H72.4v-.109a2.753,2.753,0,0,0-.594-1.707A1.815,1.815,0,0,0,70.367,35.578Zm9.234.266a4.331,4.331,0,0,0-.711-.055A1.9,1.9,0,0,0,76.961,37v6H75.516V34.547h1.406l.023.977a2.251,2.251,0,0,1,2.016-1.133,1.477,1.477,0,0,1,.641.109ZM82.5,43H81.047V34.547H82.5Zm.016-11.992h1.75l-2.094,2.3H81.008Zm7.289,9.75a1.064,1.064,0,0,0-.441-.91,4.249,4.249,0,0,0-1.539-.559,7.277,7.277,0,0,1-1.742-.562,2.479,2.479,0,0,1-.953-.781,1.869,1.869,0,0,1-.309-1.078,2.193,2.193,0,0,1,.879-1.758,3.432,3.432,0,0,1,2.246-.719,3.532,3.532,0,0,1,2.332.742,2.357,2.357,0,0,1,.895,1.9H89.719a1.3,1.3,0,0,0-.5-1.023,1.888,1.888,0,0,0-1.27-.43,1.976,1.976,0,0,0-1.234.344,1.082,1.082,0,0,0-.445.9.877.877,0,0,0,.414.789,5.1,5.1,0,0,0,1.5.508,7.8,7.8,0,0,1,1.754.578,2.558,2.558,0,0,1,1,.809,1.988,1.988,0,0,1,.324,1.152,2.163,2.163,0,0,1-.906,1.816,3.8,3.8,0,0,1-2.352.684,4.257,4.257,0,0,1-1.8-.359,2.922,2.922,0,0,1-1.223-1,2.42,2.42,0,0,1-.441-1.395h1.445a1.5,1.5,0,0,0,.582,1.152,2.258,2.258,0,0,0,1.434.426,2.331,2.331,0,0,0,1.316-.332A1.02,1.02,0,0,0,89.8,40.758ZM95.094,32.5v2.047h1.578v1.117H95.094v5.242a1.171,1.171,0,0,0,.211.762.888.888,0,0,0,.719.254,3.5,3.5,0,0,0,.688-.094V43a4.19,4.19,0,0,1-1.109.156,1.8,1.8,0,0,1-1.461-.586,2.517,2.517,0,0,1-.492-1.664V35.664H92.109V34.547h1.539V32.5ZM99.93,43H98.484V34.547H99.93ZM98.367,32.3a.863.863,0,0,1,.215-.594.807.807,0,0,1,.637-.242.819.819,0,0,1,.641.242.854.854,0,0,1,.219.594.826.826,0,0,1-.219.586.834.834,0,0,1-.641.234.821.821,0,0,1-.637-.234A.834.834,0,0,1,98.367,32.3Zm7.266,9.672a2.082,2.082,0,0,0,1.352-.469,1.649,1.649,0,0,0,.641-1.172h1.367a2.621,2.621,0,0,1-.5,1.383,3.293,3.293,0,0,1-1.23,1.047,3.55,3.55,0,0,1-1.629.391A3.482,3.482,0,0,1,102.887,42a4.59,4.59,0,0,1-1.02-3.152v-.242a5.089,5.089,0,0,1,.453-2.2,3.451,3.451,0,0,1,1.3-1.492,3.7,3.7,0,0,1,2-.531,3.39,3.39,0,0,1,2.363.852,3.043,3.043,0,0,1,1,2.211h-1.367A1.992,1.992,0,0,0,107,36.105a1.932,1.932,0,0,0-1.379-.527,2.023,2.023,0,0,0-1.707.793,3.724,3.724,0,0,0-.605,2.293v.273a3.65,3.65,0,0,0,.6,2.25A2.033,2.033,0,0,0,105.633,41.977ZM115.836,43a3.036,3.036,0,0,1-.2-.891,3.225,3.225,0,0,1-2.406,1.047,2.984,2.984,0,0,1-2.051-.707,2.288,2.288,0,0,1-.8-1.793,2.39,2.39,0,0,1,1-2.051,4.733,4.733,0,0,1,2.824-.73h1.406v-.664A1.623,1.623,0,0,0,115.156,36a1.821,1.821,0,0,0-1.336-.449,2.107,2.107,0,0,0-1.3.391,1.151,1.151,0,0,0-.523.945h-1.453A2,2,0,0,1,111,35.668a3.066,3.066,0,0,1,1.219-.934,4.1,4.1,0,0,1,1.691-.344,3.342,3.342,0,0,1,2.289.73,2.635,2.635,0,0,1,.859,2.012v3.891a4.757,4.757,0,0,0,.3,1.852V43Zm-2.4-1.1a2.54,2.54,0,0,0,1.289-.352,2.127,2.127,0,0,0,.883-.914V38.9h-1.133q-2.656,0-2.656,1.555a1.316,1.316,0,0,0,.453,1.063A1.742,1.742,0,0,0,113.438,41.9Zm10.8-1.141a1.064,1.064,0,0,0-.441-.91,4.249,4.249,0,0,0-1.539-.559,7.277,7.277,0,0,1-1.742-.562,2.479,2.479,0,0,1-.953-.781,1.869,1.869,0,0,1-.309-1.078,2.193,2.193,0,0,1,.879-1.758,3.432,3.432,0,0,1,2.246-.719,3.532,3.532,0,0,1,2.332.742,2.357,2.357,0,0,1,.895,1.9h-1.453a1.3,1.3,0,0,0-.5-1.023,1.888,1.888,0,0,0-1.27-.43,1.976,1.976,0,0,0-1.234.344,1.082,1.082,0,0,0-.445.9.877.877,0,0,0,.414.789,5.1,5.1,0,0,0,1.5.508,7.8,7.8,0,0,1,1.754.578,2.558,2.558,0,0,1,1,.809,1.988,1.988,0,0,1,.324,1.152,2.163,2.163,0,0,1-.906,1.816,3.8,3.8,0,0,1-2.352.684,4.257,4.257,0,0,1-1.8-.359,2.922,2.922,0,0,1-1.223-1,2.42,2.42,0,0,1-.441-1.395h1.445A1.5,1.5,0,0,0,121,41.551a2.258,2.258,0,0,0,1.434.426,2.331,2.331,0,0,0,1.316-.332A1.02,1.02,0,0,0,124.242,40.758Z" transform="translate(1047.051 2811)" fill="#12263f"/>
    <g id="Grupo_1102179" data-name="Grupo 1102179" transform="translate(-70 -785)">
      <path id="Trazado_881736" data-name="Trazado 881736" d="M6.242,15.008l3.25-9.383h1.641L6.914,17H5.586L1.375,5.625H3.008ZM11.688,12.7a4.993,4.993,0,0,1,.488-2.234A3.643,3.643,0,0,1,13.535,8.93a3.7,3.7,0,0,1,1.988-.539,3.565,3.565,0,0,1,2.793,1.2,4.6,4.6,0,0,1,1.066,3.18v.1a5.036,5.036,0,0,1-.473,2.215,3.589,3.589,0,0,1-1.352,1.527,3.743,3.743,0,0,1-2.02.547,3.556,3.556,0,0,1-2.785-1.2A4.575,4.575,0,0,1,11.688,12.8Zm1.453.172a3.616,3.616,0,0,0,.652,2.258,2.211,2.211,0,0,0,3.5-.012,3.955,3.955,0,0,0,.648-2.418,3.61,3.61,0,0,0-.66-2.254,2.1,2.1,0,0,0-1.754-.863,2.075,2.075,0,0,0-1.727.852A3.925,3.925,0,0,0,13.141,12.867ZM23.156,6.5V8.547h1.578V9.664H23.156v5.242a1.171,1.171,0,0,0,.211.762.888.888,0,0,0,.719.254,3.5,3.5,0,0,0,.688-.094V17a4.19,4.19,0,0,1-1.109.156A1.8,1.8,0,0,1,22.2,16.57a2.517,2.517,0,0,1-.492-1.664V9.664H20.172V8.547h1.539V6.5ZM31.641,17a3.036,3.036,0,0,1-.2-.891,3.225,3.225,0,0,1-2.406,1.047,2.984,2.984,0,0,1-2.051-.707,2.287,2.287,0,0,1-.8-1.793,2.39,2.39,0,0,1,1-2.051,4.733,4.733,0,0,1,2.824-.73h1.406v-.664A1.623,1.623,0,0,0,30.961,10a1.821,1.821,0,0,0-1.336-.449,2.107,2.107,0,0,0-1.3.391,1.151,1.151,0,0,0-.523.945H26.352A2,2,0,0,1,26.8,9.668a3.066,3.066,0,0,1,1.219-.934,4.1,4.1,0,0,1,1.691-.344A3.342,3.342,0,0,1,32,9.121a2.635,2.635,0,0,1,.859,2.012v3.891a4.757,4.757,0,0,0,.3,1.852V17Zm-2.4-1.1a2.54,2.54,0,0,0,1.289-.352,2.127,2.127,0,0,0,.883-.914V12.9H30.281q-2.656,0-2.656,1.555a1.316,1.316,0,0,0,.453,1.063A1.742,1.742,0,0,0,29.242,15.9Zm9.273.078a2.082,2.082,0,0,0,1.352-.469,1.649,1.649,0,0,0,.641-1.172h1.367a2.621,2.621,0,0,1-.5,1.383,3.293,3.293,0,0,1-1.23,1.047,3.55,3.55,0,0,1-1.629.391A3.482,3.482,0,0,1,35.77,16a4.59,4.59,0,0,1-1.02-3.152v-.242a5.089,5.089,0,0,1,.453-2.2,3.451,3.451,0,0,1,1.3-1.492,3.7,3.7,0,0,1,2-.531,3.39,3.39,0,0,1,2.363.852,3.043,3.043,0,0,1,1,2.211H40.508a1.992,1.992,0,0,0-.621-1.348,1.932,1.932,0,0,0-1.379-.527,2.023,2.023,0,0,0-1.707.793,3.724,3.724,0,0,0-.605,2.293v.273a3.65,3.65,0,0,0,.6,2.25A2.033,2.033,0,0,0,38.516,15.977ZM45.07,17H43.625V8.547H45.07ZM43.508,6.3a.863.863,0,0,1,.215-.594.807.807,0,0,1,.637-.242A.819.819,0,0,1,45,5.711a.854.854,0,0,1,.219.594A.826.826,0,0,1,45,6.891a.834.834,0,0,1-.641.234.821.821,0,0,1-.637-.234A.834.834,0,0,1,43.508,6.3ZM47,12.7a4.993,4.993,0,0,1,.488-2.234A3.643,3.643,0,0,1,48.848,8.93a3.7,3.7,0,0,1,1.988-.539,3.565,3.565,0,0,1,2.793,1.2,4.6,4.6,0,0,1,1.066,3.18v.1a5.036,5.036,0,0,1-.473,2.215,3.589,3.589,0,0,1-1.352,1.527,3.743,3.743,0,0,1-2.02.547,3.556,3.556,0,0,1-2.785-1.2A4.575,4.575,0,0,1,47,12.8Zm1.453.172a3.616,3.616,0,0,0,.652,2.258,2.211,2.211,0,0,0,3.5-.012A3.955,3.955,0,0,0,53.25,12.7a3.61,3.61,0,0,0-.66-2.254,2.1,2.1,0,0,0-1.754-.863,2.075,2.075,0,0,0-1.727.852A3.925,3.925,0,0,0,48.453,12.867ZM51.492,5h1.75L51.148,7.3H49.984Zm6.383,3.547.047,1.063a3.08,3.08,0,0,1,2.531-1.219q2.68,0,2.7,3.023V17H61.711V11.406a1.946,1.946,0,0,0-.418-1.352,1.675,1.675,0,0,0-1.277-.437,2.086,2.086,0,0,0-1.234.375,2.546,2.546,0,0,0-.828.984V17H56.508V8.547Zm7.75,9.43H64.383l4.75-12.352h1.234Zm8.031-5.43V17h-1.5V5.625h4.2a4.215,4.215,0,0,1,2.926.953A3.231,3.231,0,0,1,80.336,9.1,3.189,3.189,0,0,1,79.3,11.652a4.4,4.4,0,0,1-2.965.895Zm0-1.227h2.7a2.7,2.7,0,0,0,1.844-.566,2.069,2.069,0,0,0,.641-1.637A2.138,2.138,0,0,0,78.2,7.492a2.528,2.528,0,0,0-1.758-.633H73.656ZM86.109,9.844a4.331,4.331,0,0,0-.711-.055A1.9,1.9,0,0,0,83.469,11v6H82.023V8.547H83.43l.023.977a2.251,2.251,0,0,1,2.016-1.133,1.477,1.477,0,0,1,.641.109ZM86.9,12.7a4.993,4.993,0,0,1,.488-2.234A3.643,3.643,0,0,1,88.746,8.93a3.7,3.7,0,0,1,1.988-.539,3.565,3.565,0,0,1,2.793,1.2,4.6,4.6,0,0,1,1.066,3.18v.1a5.036,5.036,0,0,1-.473,2.215,3.589,3.589,0,0,1-1.352,1.527,3.743,3.743,0,0,1-2.02.547,3.556,3.556,0,0,1-2.785-1.2A4.575,4.575,0,0,1,86.9,12.8Zm1.453.172A3.616,3.616,0,0,0,89,15.125a2.211,2.211,0,0,0,3.5-.012,3.955,3.955,0,0,0,.648-2.418,3.61,3.61,0,0,0-.66-2.254,2.1,2.1,0,0,0-1.754-.863,2.075,2.075,0,0,0-1.727.852A3.925,3.925,0,0,0,88.352,12.867Zm9.414-4.32.039.938a3.122,3.122,0,0,1,2.508-1.094,2.417,2.417,0,0,1,2.414,1.359,3.2,3.2,0,0,1,1.1-.984,3.242,3.242,0,0,1,1.6-.375q2.781,0,2.828,2.945V17H106.8V11.422a1.941,1.941,0,0,0-.414-1.355A1.823,1.823,0,0,0,105,9.617a1.916,1.916,0,0,0-1.336.48,1.949,1.949,0,0,0-.617,1.293V17h-1.453V11.461a1.613,1.613,0,0,0-1.8-1.844,1.934,1.934,0,0,0-1.945,1.211V17H96.4V8.547Zm16.172,8.609a3.693,3.693,0,0,1-2.8-1.129,4.19,4.19,0,0,1-1.078-3.02v-.266a5.073,5.073,0,0,1,.48-2.246,3.748,3.748,0,0,1,1.344-1.547,3.378,3.378,0,0,1,1.871-.559,3.166,3.166,0,0,1,2.563,1.086,4.7,4.7,0,0,1,.914,3.109v.6h-5.727a3,3,0,0,0,.73,2.02,2.3,2.3,0,0,0,1.777.77,2.517,2.517,0,0,0,1.3-.312,3.259,3.259,0,0,0,.93-.828l.883.688A3.55,3.55,0,0,1,113.938,17.156Zm-.18-7.578a1.928,1.928,0,0,0-1.469.637A3.1,3.1,0,0,0,111.555,12h4.234v-.109a2.753,2.753,0,0,0-.594-1.707A1.815,1.815,0,0,0,113.758,9.578Zm4.8,3.125a4.952,4.952,0,0,1,.922-3.129,3.137,3.137,0,0,1,4.766-.168V5h1.445V17h-1.328l-.07-.906a2.943,2.943,0,0,1-2.414,1.063,2.887,2.887,0,0,1-2.395-1.2,5.008,5.008,0,0,1-.926-3.141Zm1.445.164a3.749,3.749,0,0,0,.594,2.25,1.92,1.92,0,0,0,1.641.813,2.108,2.108,0,0,0,2.008-1.234V10.813a2.125,2.125,0,0,0-1.992-1.2,1.929,1.929,0,0,0-1.656.82A4.128,4.128,0,0,0,120,12.867ZM129.5,17h-1.445V8.547H129.5ZM127.938,6.3a.863.863,0,0,1,.215-.594.807.807,0,0,1,.637-.242.819.819,0,0,1,.641.242.854.854,0,0,1,.219.594.826.826,0,0,1-.219.586.834.834,0,0,1-.641.234.821.821,0,0,1-.637-.234A.834.834,0,0,1,127.938,6.3ZM131.43,12.7a4.993,4.993,0,0,1,.488-2.234,3.642,3.642,0,0,1,1.359-1.531,3.7,3.7,0,0,1,1.988-.539,3.565,3.565,0,0,1,2.793,1.2,4.6,4.6,0,0,1,1.066,3.18v.1a5.036,5.036,0,0,1-.473,2.215,3.589,3.589,0,0,1-1.352,1.527,3.743,3.743,0,0,1-2.02.547,3.556,3.556,0,0,1-2.785-1.2A4.575,4.575,0,0,1,131.43,12.8Zm1.453.172a3.616,3.616,0,0,0,.652,2.258,2.211,2.211,0,0,0,3.5-.012,3.954,3.954,0,0,0,.648-2.418,3.61,3.61,0,0,0-.66-2.254,2.1,2.1,0,0,0-1.754-.863,2.075,2.075,0,0,0-1.727.852A3.925,3.925,0,0,0,132.883,12.867ZM14.969,38.7a4.952,4.952,0,0,1,.922-3.129A2.915,2.915,0,0,1,18.3,34.391a2.932,2.932,0,0,1,2.352,1.016V31H22.1V43H20.773l-.07-.906a2.943,2.943,0,0,1-2.414,1.063,2.887,2.887,0,0,1-2.395-1.2,5.008,5.008,0,0,1-.926-3.141Zm1.445.164a3.749,3.749,0,0,0,.594,2.25,1.92,1.92,0,0,0,1.641.813A2.108,2.108,0,0,0,20.656,40.7V36.813a2.125,2.125,0,0,0-1.992-1.2,1.929,1.929,0,0,0-1.656.82A4.128,4.128,0,0,0,16.414,38.867Zm11.438,4.289a3.693,3.693,0,0,1-2.8-1.129,4.19,4.19,0,0,1-1.078-3.02v-.266a5.073,5.073,0,0,1,.48-2.246A3.748,3.748,0,0,1,25.8,34.949a3.378,3.378,0,0,1,1.871-.559,3.166,3.166,0,0,1,2.563,1.086,4.7,4.7,0,0,1,.914,3.109v.6H25.422a3,3,0,0,0,.73,2.02,2.3,2.3,0,0,0,1.777.77,2.517,2.517,0,0,0,1.3-.312,3.259,3.259,0,0,0,.93-.828l.883.688A3.55,3.55,0,0,1,27.852,43.156Zm-.18-7.578a1.928,1.928,0,0,0-1.469.637A3.1,3.1,0,0,0,25.469,38H29.7v-.109a2.753,2.753,0,0,0-.594-1.707A1.815,1.815,0,0,0,27.672,35.578Zm16.25,3.289a5.062,5.062,0,0,1-.883,3.109,2.829,2.829,0,0,1-2.391,1.18,3.1,3.1,0,0,1-2.422-.977v4.07H36.781v-11.7H38.1l.07.938a2.977,2.977,0,0,1,2.453-1.094,2.882,2.882,0,0,1,2.41,1.148,5.117,5.117,0,0,1,.887,3.2ZM42.477,38.7a3.735,3.735,0,0,0-.609-2.258,1.963,1.963,0,0,0-1.672-.828,2.125,2.125,0,0,0-1.969,1.164V40.82a2.129,2.129,0,0,0,1.984,1.156,1.954,1.954,0,0,0,1.652-.824A4.077,4.077,0,0,0,42.477,38.7Zm7.367-2.859a4.331,4.331,0,0,0-.711-.055A1.9,1.9,0,0,0,47.2,37v6H45.758V34.547h1.406l.023.977A2.251,2.251,0,0,1,49.2,34.391a1.477,1.477,0,0,1,.641.109Zm4.836,7.313a3.693,3.693,0,0,1-2.8-1.129,4.19,4.19,0,0,1-1.078-3.02v-.266a5.073,5.073,0,0,1,.48-2.246,3.748,3.748,0,0,1,1.344-1.547,3.378,3.378,0,0,1,1.871-.559,3.166,3.166,0,0,1,2.563,1.086,4.7,4.7,0,0,1,.914,3.109v.6H52.25a3,3,0,0,0,.73,2.02,2.3,2.3,0,0,0,1.777.77,2.517,2.517,0,0,0,1.3-.312,3.258,3.258,0,0,0,.93-.828l.883.688A3.55,3.55,0,0,1,54.68,43.156Zm-.18-7.578a1.928,1.928,0,0,0-1.469.637A3.1,3.1,0,0,0,52.3,38h4.234v-.109a2.753,2.753,0,0,0-.594-1.707A1.815,1.815,0,0,0,54.5,35.578ZM59.3,38.7a4.952,4.952,0,0,1,.922-3.129,3.137,3.137,0,0,1,4.766-.168V31H66.43V43H65.1l-.07-.906a2.943,2.943,0,0,1-2.414,1.063,2.887,2.887,0,0,1-2.395-1.2,5.008,5.008,0,0,1-.926-3.141Zm1.445.164a3.749,3.749,0,0,0,.594,2.25,1.919,1.919,0,0,0,1.641.813A2.108,2.108,0,0,0,64.984,40.7V36.813a2.125,2.125,0,0,0-1.992-1.2,1.929,1.929,0,0,0-1.656.82A4.128,4.128,0,0,0,60.742,38.867ZM70.242,43H68.8V34.547h1.445ZM68.68,32.3a.863.863,0,0,1,.215-.594.807.807,0,0,1,.637-.242.819.819,0,0,1,.641.242.854.854,0,0,1,.219.594.826.826,0,0,1-.219.586.834.834,0,0,1-.641.234.821.821,0,0,1-.637-.234A.834.834,0,0,1,68.68,32.3Zm7.266,9.672a2.082,2.082,0,0,0,1.352-.469,1.649,1.649,0,0,0,.641-1.172H79.3a2.621,2.621,0,0,1-.5,1.383,3.293,3.293,0,0,1-1.23,1.047,3.55,3.55,0,0,1-1.629.391A3.482,3.482,0,0,1,73.2,42a4.59,4.59,0,0,1-1.02-3.152v-.242a5.089,5.089,0,0,1,.453-2.2,3.451,3.451,0,0,1,1.3-1.492,3.7,3.7,0,0,1,2-.531,3.39,3.39,0,0,1,2.363.852,3.043,3.043,0,0,1,1,2.211H77.938a1.992,1.992,0,0,0-.621-1.348,1.932,1.932,0,0,0-1.379-.527,2.023,2.023,0,0,0-1.707.793,3.724,3.724,0,0,0-.605,2.293v.273a3.65,3.65,0,0,0,.6,2.25A2.033,2.033,0,0,0,75.945,41.977Zm8.375,0a2.082,2.082,0,0,0,1.352-.469,1.649,1.649,0,0,0,.641-1.172H87.68a2.621,2.621,0,0,1-.5,1.383,3.293,3.293,0,0,1-1.23,1.047,3.55,3.55,0,0,1-1.629.391A3.482,3.482,0,0,1,81.574,42a4.59,4.59,0,0,1-1.02-3.152v-.242a5.089,5.089,0,0,1,.453-2.2,3.451,3.451,0,0,1,1.3-1.492,3.7,3.7,0,0,1,2-.531,3.39,3.39,0,0,1,2.363.852,3.043,3.043,0,0,1,1,2.211H86.313a1.992,1.992,0,0,0-.621-1.348,1.932,1.932,0,0,0-1.379-.527,2.023,2.023,0,0,0-1.707.793A3.724,3.724,0,0,0,82,38.664v.273a3.65,3.65,0,0,0,.6,2.25A2.033,2.033,0,0,0,84.32,41.977ZM90.875,43H89.43V34.547h1.445ZM89.313,32.3a.863.863,0,0,1,.215-.594.807.807,0,0,1,.637-.242.819.819,0,0,1,.641.242.854.854,0,0,1,.219.594.826.826,0,0,1-.219.586.834.834,0,0,1-.641.234.821.821,0,0,1-.637-.234A.834.834,0,0,1,89.313,32.3ZM92.8,38.7a4.993,4.993,0,0,1,.488-2.234,3.643,3.643,0,0,1,1.359-1.531,3.7,3.7,0,0,1,1.988-.539,3.565,3.565,0,0,1,2.793,1.2,4.6,4.6,0,0,1,1.066,3.18v.1a5.036,5.036,0,0,1-.473,2.215,3.589,3.589,0,0,1-1.352,1.527,3.743,3.743,0,0,1-2.02.547,3.556,3.556,0,0,1-2.785-1.2A4.575,4.575,0,0,1,92.8,38.8Zm1.453.172a3.616,3.616,0,0,0,.652,2.258,2.211,2.211,0,0,0,3.5-.012,3.955,3.955,0,0,0,.648-2.418,3.61,3.61,0,0,0-.66-2.254,2.1,2.1,0,0,0-1.754-.863,2.075,2.075,0,0,0-1.727.852A3.925,3.925,0,0,0,94.258,38.867Zm9.422-4.32.047,1.063a3.08,3.08,0,0,1,2.531-1.219q2.68,0,2.7,3.023V43h-1.445V37.406a1.946,1.946,0,0,0-.418-1.352,1.675,1.675,0,0,0-1.277-.437,2.086,2.086,0,0,0-1.234.375,2.546,2.546,0,0,0-.828.984V43h-1.445V34.547Zm10.969,8.609a3.693,3.693,0,0,1-2.8-1.129,4.19,4.19,0,0,1-1.078-3.02v-.266a5.073,5.073,0,0,1,.48-2.246,3.748,3.748,0,0,1,1.344-1.547,3.378,3.378,0,0,1,1.871-.559,3.166,3.166,0,0,1,2.563,1.086,4.7,4.7,0,0,1,.914,3.109v.6h-5.727a3,3,0,0,0,.73,2.02,2.3,2.3,0,0,0,1.777.77,2.517,2.517,0,0,0,1.3-.312,3.259,3.259,0,0,0,.93-.828l.883.688A3.55,3.55,0,0,1,114.648,43.156Zm-.18-7.578a1.928,1.928,0,0,0-1.469.637A3.1,3.1,0,0,0,112.266,38H116.5v-.109a2.753,2.753,0,0,0-.594-1.707A1.815,1.815,0,0,0,114.469,35.578Zm10.07,5.18a1.064,1.064,0,0,0-.441-.91,4.249,4.249,0,0,0-1.539-.559,7.277,7.277,0,0,1-1.742-.562,2.479,2.479,0,0,1-.953-.781,1.869,1.869,0,0,1-.309-1.078,2.193,2.193,0,0,1,.879-1.758,3.432,3.432,0,0,1,2.246-.719,3.532,3.532,0,0,1,2.332.742,2.357,2.357,0,0,1,.895,1.9h-1.453a1.3,1.3,0,0,0-.5-1.023,1.888,1.888,0,0,0-1.27-.43,1.976,1.976,0,0,0-1.234.344,1.082,1.082,0,0,0-.445.9.877.877,0,0,0,.414.789,5.1,5.1,0,0,0,1.5.508,7.8,7.8,0,0,1,1.754.578,2.558,2.558,0,0,1,1,.809,1.988,1.988,0,0,1,.324,1.152,2.163,2.163,0,0,1-.906,1.816,3.8,3.8,0,0,1-2.352.684,4.257,4.257,0,0,1-1.8-.359,2.922,2.922,0,0,1-1.223-1,2.42,2.42,0,0,1-.441-1.395h1.445a1.5,1.5,0,0,0,.582,1.152,2.258,2.258,0,0,0,1.434.426,2.331,2.331,0,0,0,1.316-.332A1.02,1.02,0,0,0,124.539,40.758Z" transform="translate(819.051 3722)" fill="#12263f"/>
      <path id="Trazado_881737" data-name="Trazado 881737" d="M12.965,12.547V17h-1.5V5.625h4.2a4.215,4.215,0,0,1,2.926.953A3.231,3.231,0,0,1,19.645,9.1a3.189,3.189,0,0,1-1.035,2.551,4.4,4.4,0,0,1-2.965.895Zm0-1.227h2.7a2.7,2.7,0,0,0,1.844-.566,2.069,2.069,0,0,0,.641-1.637A2.138,2.138,0,0,0,17.5,7.492a2.528,2.528,0,0,0-1.758-.633H12.965ZM25.418,9.844a4.331,4.331,0,0,0-.711-.055A1.9,1.9,0,0,0,22.777,11v6H21.332V8.547h1.406l.023.977a2.251,2.251,0,0,1,2.016-1.133,1.477,1.477,0,0,1,.641.109Zm4.836,7.313a3.693,3.693,0,0,1-2.8-1.129,4.19,4.19,0,0,1-1.078-3.02v-.266a5.073,5.073,0,0,1,.48-2.246A3.748,3.748,0,0,1,28.2,8.949a3.378,3.378,0,0,1,1.871-.559,3.166,3.166,0,0,1,2.563,1.086,4.7,4.7,0,0,1,.914,3.109v.6H27.824a3,3,0,0,0,.73,2.02,2.3,2.3,0,0,0,1.777.77,2.517,2.517,0,0,0,1.3-.312,3.259,3.259,0,0,0,.93-.828l.883.688A3.55,3.55,0,0,1,30.254,17.156Zm-.18-7.578a1.928,1.928,0,0,0-1.469.637A3.1,3.1,0,0,0,27.871,12h4.234v-.109a2.753,2.753,0,0,0-.594-1.707A1.815,1.815,0,0,0,30.074,9.578Zm4.8,3.125a4.952,4.952,0,0,1,.922-3.129,3.137,3.137,0,0,1,4.766-.168V5H42V17H40.676l-.07-.906a2.943,2.943,0,0,1-2.414,1.063,2.887,2.887,0,0,1-2.395-1.2,5.008,5.008,0,0,1-.926-3.141Zm1.445.164a3.749,3.749,0,0,0,.594,2.25,1.92,1.92,0,0,0,1.641.813A2.108,2.108,0,0,0,40.559,14.7V10.813a2.125,2.125,0,0,0-1.992-1.2,1.929,1.929,0,0,0-1.656.82A4.128,4.128,0,0,0,36.316,12.867ZM45.816,17H44.371V8.547h1.445ZM44.254,6.3a.863.863,0,0,1,.215-.594.807.807,0,0,1,.637-.242.819.819,0,0,1,.641.242.854.854,0,0,1,.219.594.826.826,0,0,1-.219.586.834.834,0,0,1-.641.234.821.821,0,0,1-.637-.234A.834.834,0,0,1,44.254,6.3Zm7.266,9.672a2.082,2.082,0,0,0,1.352-.469,1.649,1.649,0,0,0,.641-1.172h1.367a2.621,2.621,0,0,1-.5,1.383,3.293,3.293,0,0,1-1.23,1.047,3.55,3.55,0,0,1-1.629.391A3.482,3.482,0,0,1,48.773,16a4.59,4.59,0,0,1-1.02-3.152v-.242a5.089,5.089,0,0,1,.453-2.2,3.451,3.451,0,0,1,1.3-1.492,3.7,3.7,0,0,1,2-.531,3.39,3.39,0,0,1,2.363.852,3.043,3.043,0,0,1,1,2.211H53.512a1.992,1.992,0,0,0-.621-1.348,1.932,1.932,0,0,0-1.379-.527,2.023,2.023,0,0,0-1.707.793,3.724,3.724,0,0,0-.605,2.293v.273a3.65,3.65,0,0,0,.6,2.25A2.033,2.033,0,0,0,51.52,15.977Zm8.375,0a2.082,2.082,0,0,0,1.352-.469,1.649,1.649,0,0,0,.641-1.172h1.367a2.621,2.621,0,0,1-.5,1.383,3.293,3.293,0,0,1-1.23,1.047,3.55,3.55,0,0,1-1.629.391A3.482,3.482,0,0,1,57.148,16a4.59,4.59,0,0,1-1.02-3.152v-.242a5.089,5.089,0,0,1,.453-2.2,3.451,3.451,0,0,1,1.3-1.492,3.7,3.7,0,0,1,2-.531,3.39,3.39,0,0,1,2.363.852,3.043,3.043,0,0,1,1,2.211H61.887a1.992,1.992,0,0,0-.621-1.348,1.932,1.932,0,0,0-1.379-.527,2.023,2.023,0,0,0-1.707.793,3.724,3.724,0,0,0-.605,2.293v.273a3.65,3.65,0,0,0,.6,2.25A2.033,2.033,0,0,0,59.895,15.977ZM66.449,17H65V8.547h1.445ZM64.887,6.3a.863.863,0,0,1,.215-.594.807.807,0,0,1,.637-.242.819.819,0,0,1,.641.242A.854.854,0,0,1,66.6,6.3a.826.826,0,0,1-.219.586.834.834,0,0,1-.641.234.821.821,0,0,1-.637-.234A.834.834,0,0,1,64.887,6.3ZM68.379,12.7a4.993,4.993,0,0,1,.488-2.234A3.643,3.643,0,0,1,70.227,8.93a3.7,3.7,0,0,1,1.988-.539,3.565,3.565,0,0,1,2.793,1.2,4.6,4.6,0,0,1,1.066,3.18v.1a5.036,5.036,0,0,1-.473,2.215,3.589,3.589,0,0,1-1.352,1.527,3.743,3.743,0,0,1-2.02.547,3.556,3.556,0,0,1-2.785-1.2A4.575,4.575,0,0,1,68.379,12.8Zm1.453.172a3.616,3.616,0,0,0,.652,2.258,2.211,2.211,0,0,0,3.5-.012,3.955,3.955,0,0,0,.648-2.418,3.61,3.61,0,0,0-.66-2.254,2.1,2.1,0,0,0-1.754-.863,2.075,2.075,0,0,0-1.727.852A3.925,3.925,0,0,0,69.832,12.867ZM72.871,5h1.75L72.527,7.3H71.363Zm6.383,3.547L79.3,9.609a3.08,3.08,0,0,1,2.531-1.219q2.68,0,2.7,3.023V17H83.09V11.406a1.946,1.946,0,0,0-.418-1.352,1.675,1.675,0,0,0-1.277-.437,2.086,2.086,0,0,0-1.234.375,2.546,2.546,0,0,0-.828.984V17H77.887V8.547ZM91.16,17V9.664H89.824V8.547H91.16V7.828a2.937,2.937,0,0,1,.809-2.2,3.136,3.136,0,0,1,2.285-.789,6.881,6.881,0,0,1,2.211.477l-.242,1.219a5.008,5.008,0,0,0-1.859-.391,1.819,1.819,0,0,0-1.34.418,1.723,1.723,0,0,0-.41,1.254v.734H94.34V9.664H92.613V17Zm6.023,0H95.73V8.547h1.453ZM100.9,8.547l.047,1.063a3.08,3.08,0,0,1,2.531-1.219q2.68,0,2.7,3.023V17h-1.445V11.406a1.946,1.946,0,0,0-.418-1.352,1.675,1.675,0,0,0-1.277-.437,2.086,2.086,0,0,0-1.234.375,2.546,2.546,0,0,0-.828.984V17H99.535V8.547ZM113.582,17a3.036,3.036,0,0,1-.2-.891,3.225,3.225,0,0,1-2.406,1.047,2.984,2.984,0,0,1-2.051-.707,2.288,2.288,0,0,1-.8-1.793,2.39,2.39,0,0,1,1-2.051,4.733,4.733,0,0,1,2.824-.73h1.406v-.664A1.623,1.623,0,0,0,112.9,10a1.821,1.821,0,0,0-1.336-.449,2.108,2.108,0,0,0-1.3.391,1.151,1.151,0,0,0-.523.945h-1.453a2,2,0,0,1,.449-1.223,3.066,3.066,0,0,1,1.219-.934,4.1,4.1,0,0,1,1.691-.344,3.342,3.342,0,0,1,2.289.73,2.635,2.635,0,0,1,.859,2.012v3.891a4.757,4.757,0,0,0,.3,1.852V17Zm-2.4-1.1a2.54,2.54,0,0,0,1.289-.352,2.127,2.127,0,0,0,.883-.914V12.9h-1.133q-2.656,0-2.656,1.555a1.316,1.316,0,0,0,.453,1.063A1.742,1.742,0,0,0,111.184,15.9Zm7.453,1.1h-1.445V5h1.445Z" transform="translate(825.051 3827)" fill="#12263f"/>
      <path id="Trazado_880552" data-name="Trazado 880552" d="M-3933.5-8175v66.881" transform="translate(4823.051 11608)" fill="none" stroke="#707070" stroke-width="2"/>
      <path id="Trazado_880553" data-name="Trazado 880553" d="M-3753.5-8108.119l-180.627-69.191" transform="translate(4823.051 11608)" fill="none" stroke="#707070" stroke-width="2"/>
      <path id="Trazado_880554" data-name="Trazado 880554" d="M-4113.5-8108.119l179.95-68.615" transform="translate(4823.051 11608)" fill="none" stroke="#707070" stroke-width="2"/>
      <g id="Grupo_1102176" data-name="Grupo 1102176" transform="translate(0 -31)">
        <path id="Trazado_880558" data-name="Trazado 880558" d="M-3933.5-8108.119V-8175" transform="translate(4823.051 11848.69)" fill="none" stroke="#707070" stroke-width="2"/>
        <path id="Trazado_880560" data-name="Trazado 880560" d="M-3933.5-8151.383V-8175" transform="translate(4823.051 11983.69)" fill="none" stroke="#707070" stroke-width="2"/>
        <path id="Trazado_880559" data-name="Trazado 880559" d="M-3753.5-8177.31l-180.627,69.191" transform="translate(4823.051 11851)" fill="none" stroke="#707070" stroke-width="2"/>
        <path id="Trazado_880557" data-name="Trazado 880557" d="M-4113.5-8176.734l179.95,68.615" transform="translate(4823.051 11850.424)" fill="none" stroke="#707070" stroke-width="2"/>
      </g>
      <g id="Grupo_1102171" data-name="Grupo 1102171">
        <g id="Rectángulo_405386" data-name="Rectángulo 405386" transform="translate(779.051 3361)" fill="none" stroke="#13de61" stroke-width="6">
          <rect width="221" height="72" stroke="none"/>
          <rect x="3" y="3" width="215" height="66" fill="none"/>
        </g>
        <path id="Trazado_881738" data-name="Trazado 881738" d="M6.089,19V6.2h4.122a6.064,6.064,0,0,1,3.05.769,5.406,5.406,0,0,1,2.114,2.171,6.554,6.554,0,0,1,.769,3.142v.589a6.592,6.592,0,0,1-.743,3.151A5.429,5.429,0,0,1,13.31,18.2a5.93,5.93,0,0,1-3.01.8ZM9.174,8.585v8.042h1.072a2.4,2.4,0,0,0,2.039-.945A4.63,4.63,0,0,0,13,12.874V12.32a4.592,4.592,0,0,0-.712-2.795,2.442,2.442,0,0,0-2.074-.94ZM22.947,19a3.344,3.344,0,0,1-.281-.853,2.754,2.754,0,0,1-2.285,1.028,3.374,3.374,0,0,1-2.285-.813,2.588,2.588,0,0,1-.94-2.043A2.66,2.66,0,0,1,18.3,13.981a5.821,5.821,0,0,1,3.322-.791h.914v-.5q0-1.31-1.134-1.31a.925.925,0,0,0-1.055,1.037H17.383a2.659,2.659,0,0,1,1.173-2.241,4.927,4.927,0,0,1,2.993-.861,4.323,4.323,0,0,1,2.874.888A3.086,3.086,0,0,1,25.5,12.637v4.21a4.311,4.311,0,0,0,.4,2V19Zm-1.854-1.934a1.652,1.652,0,0,0,.918-.237,1.487,1.487,0,0,0,.523-.536V14.772h-.861q-1.547,0-1.547,1.389a.848.848,0,0,0,.272.655A.986.986,0,0,0,21.092,17.066Zm9.5-9.94V9.49h1.564v2.057H30.593V15.9a1.111,1.111,0,0,0,.193.747,1.037,1.037,0,0,0,.765.211,4.345,4.345,0,0,0,.738-.053v2.118a5.466,5.466,0,0,1-1.67.255,3.1,3.1,0,0,1-2.259-.721,2.954,2.954,0,0,1-.729-2.188v-4.72H26.418V9.49h1.213V7.126ZM38.679,19a3.344,3.344,0,0,1-.281-.853,2.754,2.754,0,0,1-2.285,1.028,3.374,3.374,0,0,1-2.285-.813,2.588,2.588,0,0,1-.94-2.043,2.66,2.66,0,0,1,1.143-2.338,5.821,5.821,0,0,1,3.322-.791h.914v-.5q0-1.31-1.134-1.31a.925.925,0,0,0-1.055,1.037H33.116a2.659,2.659,0,0,1,1.173-2.241,4.927,4.927,0,0,1,2.993-.861,4.323,4.323,0,0,1,2.874.888,3.086,3.086,0,0,1,1.081,2.435v4.21a4.311,4.311,0,0,0,.4,2V19Zm-1.854-1.934a1.652,1.652,0,0,0,.918-.237,1.487,1.487,0,0,0,.523-.536V14.772H37.4q-1.547,0-1.547,1.389a.848.848,0,0,0,.272.655A.986.986,0,0,0,36.825,17.066Zm11.03-.738a.684.684,0,0,0-.4-.606,6.016,6.016,0,0,0-1.5-.475,6.853,6.853,0,0,1-1.828-.646,3.062,3.062,0,0,1-1.1-.971,2.319,2.319,0,0,1-.378-1.31,2.628,2.628,0,0,1,1.081-2.158,4.453,4.453,0,0,1,2.83-.848,4.934,4.934,0,0,1,3.023.853,2.666,2.666,0,0,1,1.143,2.241H47.758q0-1.143-1.2-1.143a1.194,1.194,0,0,0-.782.259.8.8,0,0,0-.316.646.737.737,0,0,0,.387.642,3.654,3.654,0,0,0,1.235.4,10.671,10.671,0,0,1,1.49.378,2.706,2.706,0,0,1,2.145,2.646,2.491,2.491,0,0,1-1.156,2.118,5.068,5.068,0,0,1-2.993.817,5.172,5.172,0,0,1-2.18-.439,3.645,3.645,0,0,1-1.494-1.2,2.707,2.707,0,0,1-.536-1.591h2.769a1.145,1.145,0,0,0,.439.962,1.808,1.808,0,0,0,1.081.3,1.422,1.422,0,0,0,.91-.246A.787.787,0,0,0,47.855,16.328ZM56.7,19.176a4.889,4.889,0,0,1-3.542-1.305,4.507,4.507,0,0,1-1.354-3.4v-.246a5.84,5.84,0,0,1,.541-2.575,3.955,3.955,0,0,1,1.578-1.727,4.763,4.763,0,0,1,2.461-.611,4.117,4.117,0,0,1,3.164,1.244,4.887,4.887,0,0,1,1.16,3.467v1.151H54.816a2.135,2.135,0,0,0,.694,1.257,2.066,2.066,0,0,0,1.389.457,2.662,2.662,0,0,0,2.2-.984l1.354,1.6a3.784,3.784,0,0,1-1.569,1.217A5.3,5.3,0,0,1,56.7,19.176ZM56.363,11.6q-1.3,0-1.547,1.723H57.8v-.229a1.467,1.467,0,0,0-.36-1.1A1.434,1.434,0,0,0,56.363,11.6Zm8.982-4.474V9.49H66.91v2.057H65.345V15.9a1.111,1.111,0,0,0,.193.747,1.037,1.037,0,0,0,.765.211,4.345,4.345,0,0,0,.738-.053v2.118a5.466,5.466,0,0,1-1.67.255,3.1,3.1,0,0,1-2.259-.721,2.954,2.954,0,0,1-.729-2.188v-4.72H61.17V9.49h1.213V7.126ZM83.53,12.865a7.546,7.546,0,0,1-.694,3.313A5.132,5.132,0,0,1,80.862,18.4a5.494,5.494,0,0,1-2.914.778,5.572,5.572,0,0,1-2.9-.751,5.123,5.123,0,0,1-1.973-2.149,7.329,7.329,0,0,1-.743-3.208v-.721a7.58,7.58,0,0,1,.69-3.318A5.119,5.119,0,0,1,75,6.81,5.854,5.854,0,0,1,80.832,6.8,5.211,5.211,0,0,1,82.813,9a7.362,7.362,0,0,1,.716,3.274Zm-3.138-.536a5.381,5.381,0,0,0-.637-2.9,2.044,2.044,0,0,0-1.824-.989q-2.32,0-2.452,3.48l-.009.94a5.535,5.535,0,0,0,.624,2.892,2.041,2.041,0,0,0,1.854,1.011,2.016,2.016,0,0,0,1.8-.993,5.383,5.383,0,0,0,.642-2.856Zm10.345-.158-.976-.07a1.752,1.752,0,0,0-1.793.879V19H85.006V9.49h2.777l.1,1.222a2.294,2.294,0,0,1,2.083-1.4,2.888,2.888,0,0,1,.826.105ZM94.929,19H91.958V9.49h2.971ZM91.783,7.038A1.322,1.322,0,0,1,92.24,6a1.943,1.943,0,0,1,2.373,0,1.322,1.322,0,0,1,.457,1.037,1.322,1.322,0,0,1-.457,1.037,1.943,1.943,0,0,1-2.373,0A1.322,1.322,0,0,1,91.783,7.038Zm4.623,7.137a6.421,6.421,0,0,1,.475-2.549,3.821,3.821,0,0,1,1.362-1.709,3.591,3.591,0,0,1,2.065-.6,2.855,2.855,0,0,1,2.32,1l.105-.826h2.689V18.64a4.009,4.009,0,0,1-.584,2.184,3.75,3.75,0,0,1-1.692,1.424,6.219,6.219,0,0,1-2.566.5,5.365,5.365,0,0,1-2.026-.4,3.657,3.657,0,0,1-1.5-1.028L98.3,19.58a2.716,2.716,0,0,0,2.18.976,1.764,1.764,0,0,0,1.969-2.021v-.3a2.781,2.781,0,0,1-2.153.94,3.437,3.437,0,0,1-2.812-1.332,5.517,5.517,0,0,1-1.072-3.564Zm2.971.185a3.383,3.383,0,0,0,.439,1.85,1.387,1.387,0,0,0,1.23.681,1.573,1.573,0,0,0,1.4-.642v-4a1.534,1.534,0,0,0-1.38-.65,1.4,1.4,0,0,0-1.239.708A3.858,3.858,0,0,0,99.376,14.359ZM110.231,19H107.26V9.49h2.971ZM107.084,7.038A1.322,1.322,0,0,1,107.542,6a1.943,1.943,0,0,1,2.373,0,1.322,1.322,0,0,1,.457,1.037,1.322,1.322,0,0,1-.457,1.037,1.943,1.943,0,0,1-2.373,0A1.322,1.322,0,0,1,107.084,7.038Zm7.69,2.452.1,1.116a3.225,3.225,0,0,1,2.716-1.292,2.713,2.713,0,0,1,2.219.888,4.226,4.226,0,0,1,.76,2.672V19H117.6V13a1.6,1.6,0,0,0-.29-1.059,1.342,1.342,0,0,0-1.055-.338,1.413,1.413,0,0,0-1.292.686V19H112V9.49ZM127.563,19a3.344,3.344,0,0,1-.281-.853A2.754,2.754,0,0,1,125,19.176a3.374,3.374,0,0,1-2.285-.813,2.588,2.588,0,0,1-.94-2.043,2.66,2.66,0,0,1,1.143-2.338,5.821,5.821,0,0,1,3.322-.791h.914v-.5q0-1.31-1.134-1.31a.925.925,0,0,0-1.055,1.037H122a2.659,2.659,0,0,1,1.173-2.241,4.927,4.927,0,0,1,2.993-.861,4.323,4.323,0,0,1,2.874.888,3.086,3.086,0,0,1,1.081,2.435v4.21a4.311,4.311,0,0,0,.4,2V19Zm-1.854-1.934a1.652,1.652,0,0,0,.918-.237,1.487,1.487,0,0,0,.523-.536V14.772h-.861q-1.547,0-1.547,1.389a.848.848,0,0,0,.272.655A.986.986,0,0,0,125.708,17.066ZM134.884,19h-2.971V5.5h2.971Z" transform="translate(819.051 3385)" fill="#12263f"/>
      </g>
      <g id="Grupo_1102172" data-name="Grupo 1102172" transform="translate(685 3565.787)">
        <path id="Trazado_880555" data-name="Trazado 880555" d="M-4113.5-8042.212v37.246" transform="translate(4138.48 8042.212)" fill="none" stroke="#707070" stroke-width="2"/>
        <path id="Trazado_880556" data-name="Trazado 880556" d="M-4130.216-7966.858l21.67-21.67,21.67,21.67" transform="translate(4133.527 8025.774)" fill="none" stroke="#707070" stroke-width="2"/>
        <g id="Elipse_11537" data-name="Elipse 11537" transform="translate(22.323 34.242)" fill="#5e3552" stroke="#12263f" stroke-width="1">
          <circle cx="3.189" cy="3.189" r="3.189" stroke="none"/>
          <circle cx="3.189" cy="3.189" r="2.689" fill="none"/>
        </g>
        <g id="Elipse_11538" data-name="Elipse 11538" transform="translate(43.583 55.502)" fill="#5e3552" stroke="#12263f" stroke-width="1">
          <circle cx="3.189" cy="3.189" r="3.189" stroke="none"/>
          <circle cx="3.189" cy="3.189" r="2.689" fill="none"/>
        </g>
        <g id="Elipse_11539" data-name="Elipse 11539" transform="translate(0 55.502)" fill="#5e3552" stroke="#12263f" stroke-width="1">
          <circle cx="3.189" cy="3.189" r="3.189" stroke="none"/>
          <circle cx="3.189" cy="3.189" r="2.689" fill="none"/>
        </g>
      </g>
      <g id="Grupo_1102173" data-name="Grupo 1102173" transform="translate(864.338 3565.787)">
        <path id="Trazado_880555-2" data-name="Trazado 880555" d="M-4113.5-8042.212v37.246" transform="translate(4138.48 8042.212)" fill="none" stroke="#707070" stroke-width="2"/>
        <path id="Trazado_880556-2" data-name="Trazado 880556" d="M-4130.216-7966.858l21.67-21.67,21.67,21.67" transform="translate(4133.527 8025.774)" fill="none" stroke="#707070" stroke-width="2"/>
        <g id="Elipse_11537-2" data-name="Elipse 11537" transform="translate(22.323 34.242)" fill="#5e3552" stroke="#12263f" stroke-width="1">
          <circle cx="3.189" cy="3.189" r="3.189" stroke="none"/>
          <circle cx="3.189" cy="3.189" r="2.689" fill="none"/>
        </g>
        <g id="Elipse_11538-2" data-name="Elipse 11538" transform="translate(43.583 55.502)" fill="#5e3552" stroke="#12263f" stroke-width="1">
          <circle cx="3.189" cy="3.189" r="3.189" stroke="none"/>
          <circle cx="3.189" cy="3.189" r="2.689" fill="none"/>
        </g>
        <g id="Elipse_11539-2" data-name="Elipse 11539" transform="translate(0 55.502)" fill="#5e3552" stroke="#12263f" stroke-width="1">
          <circle cx="3.189" cy="3.189" r="3.189" stroke="none"/>
          <circle cx="3.189" cy="3.189" r="2.689" fill="none"/>
        </g>
      </g>
      <g id="Grupo_1102174" data-name="Grupo 1102174" transform="translate(1044.677 3565.787)">
        <path id="Trazado_880555-3" data-name="Trazado 880555" d="M-4113.5-8042.212v37.246" transform="translate(4138.48 8042.212)" fill="none" stroke="#707070" stroke-width="2"/>
        <path id="Trazado_880556-3" data-name="Trazado 880556" d="M-4130.216-7966.858l21.67-21.67,21.67,21.67" transform="translate(4133.527 8025.774)" fill="none" stroke="#707070" stroke-width="2"/>
        <g id="Elipse_11537-3" data-name="Elipse 11537" transform="translate(22.323 34.242)" fill="#5e3552" stroke="#12263f" stroke-width="1">
          <circle cx="3.189" cy="3.189" r="3.189" stroke="none"/>
          <circle cx="3.189" cy="3.189" r="2.689" fill="none"/>
        </g>
        <g id="Elipse_11538-3" data-name="Elipse 11538" transform="translate(43.583 55.502)" fill="#5e3552" stroke="#12263f" stroke-width="1">
          <circle cx="3.189" cy="3.189" r="3.189" stroke="none"/>
          <circle cx="3.189" cy="3.189" r="2.689" fill="none"/>
        </g>
        <g id="Elipse_11539-3" data-name="Elipse 11539" transform="translate(0 55.502)" fill="#5e3552" stroke="#12263f" stroke-width="1">
          <circle cx="3.189" cy="3.189" r="3.189" stroke="none"/>
          <circle cx="3.189" cy="3.189" r="2.689" fill="none"/>
        </g>
      </g>
      <g id="Grupo_1102175" data-name="Grupo 1102175">
        <g id="Rectángulo_405387" data-name="Rectángulo 405387" transform="translate(627.051 3498)" fill="none" stroke="#1169e3" stroke-width="5">
          <rect width="165" height="70" stroke="none"/>
          <rect x="2.5" y="2.5" width="160" height="65" fill="none"/>
        </g>
        <g id="Rectángulo_405388" data-name="Rectángulo 405388" transform="translate(807.051 3498)" fill="none" stroke="#1169e3" stroke-width="5">
          <rect width="165" height="70" stroke="none"/>
          <rect x="2.5" y="2.5" width="160" height="65" fill="none"/>
        </g>
        <g id="Rectángulo_405389" data-name="Rectángulo 405389" transform="translate(987.051 3498)" fill="none" stroke="#1169e3" stroke-width="5">
          <rect width="165" height="70" stroke="none"/>
          <rect x="2.5" y="2.5" width="160" height="65" fill="none"/>
        </g>
      </g>
      <g id="Grupo_1102177" data-name="Grupo 1102177" transform="translate(0 212)">
        <g id="Rectángulo_405388-2" data-name="Rectángulo 405388" transform="translate(807.051 3498)" fill="none" stroke="#5e3552" stroke-width="5">
          <rect width="165" height="70" stroke="none"/>
          <rect x="2.5" y="2.5" width="160" height="65" fill="none"/>
        </g>
      </g>
      <g id="Grupo_1102178" data-name="Grupo 1102178" transform="translate(0 304)">
        <g id="Rectángulo_405388-3" data-name="Rectángulo 405388" transform="translate(807.051 3498)" fill="none" stroke="#fee734" stroke-width="5">
          <rect width="165" height="70" stroke="none"/>
          <rect x="2.5" y="2.5" width="160" height="65" fill="none"/>
        </g>
      </g>
    </g>
  </g>
</svg>
