<svg xmlns="http://www.w3.org/2000/svg" width="820" height="263" viewBox="0 0 820 263">
  <g id="Grupo_1102877" data-name="Grupo 1102877" transform="translate(-390.025 -1352.104)">
    <g id="Trazado_881739" data-name="Trazado 881739" transform="translate(390.025 1352.104)" fill="#e6fbee">
      <path d="M 156 73.5 L 19 73.5 C 14.59269046783447 73.5 10.44919013977051 71.78369140625 7.332737922668457 68.66725921630859 C 4.216309547424316 65.55081176757812 2.5 61.40731048583984 2.5 57 L 2.5 19 C 2.5 14.59269046783447 4.216309547424316 10.44919013977051 7.332737922668457 7.332737922668457 C 10.44919013977051 4.216309547424316 14.59269046783447 2.5 19 2.5 L 156 2.5 C 160.4073028564453 2.5 164.5508117675781 4.216309547424316 167.6672668457031 7.332737922668457 C 170.78369140625 10.44919013977051 172.5 14.59269046783447 172.5 19 L 172.5 57 C 172.5 61.40731048583984 170.78369140625 65.55081176757812 167.6672668457031 68.66725921630859 C 164.5508117675781 71.78369140625 160.4073028564453 73.5 156 73.5 Z" stroke="none"/>
      <path d="M 19 5 C 15.26045227050781 5 11.74473571777344 6.456260681152344 9.100494384765625 9.100502014160156 C 6.456268310546875 11.74473571777344 5 15.26044845581055 5 19 L 5 57 C 5 60.73952484130859 6.456268310546875 64.25523376464844 9.100494384765625 66.89949798583984 C 11.74476623535156 69.54373931884766 15.26046752929688 71 19 71 L 156 71 C 159.7395324707031 71 163.2552337646484 69.54373931884766 165.8995056152344 66.89949798583984 C 168.5437316894531 64.25523376464844 170 60.73952484130859 170 57 L 170 19 C 170 15.26047515869141 168.5437316894531 11.74476623535156 165.8995056152344 9.100502014160156 C 163.2552337646484 6.456260681152344 159.7395324707031 5 156 5 L 19 5 M 19 0 L 156 0 C 166.4933929443359 0 175 8.506576538085938 175 19 L 175 57 C 175 67.49339294433594 166.4933929443359 76 156 76 L 19 76 C 8.506576538085938 76 0 67.49339294433594 0 57 L 0 19 C 0 8.506576538085938 8.506576538085938 0 19 0 Z" stroke="none" fill="#13de61"/>
    </g>
    <path id="Trazado_881740" data-name="Trazado 881740" d="M42.3,17V5.625h3.5a5.315,5.315,0,0,1,2.684.676,4.712,4.712,0,0,1,1.848,1.922A5.928,5.928,0,0,1,51,11.055v.523a5.945,5.945,0,0,1-.652,2.82,4.672,4.672,0,0,1-1.84,1.914,5.355,5.355,0,0,1-2.68.688Zm2.344-9.477v7.594h1.133a2.545,2.545,0,0,0,2.1-.9,4.06,4.06,0,0,0,.742-2.57v-.6a4.124,4.124,0,0,0-.719-2.629,2.537,2.537,0,0,0-2.1-.895ZM57.453,17a2.507,2.507,0,0,1-.227-.758,2.732,2.732,0,0,1-2.133.914,3,3,0,0,1-2.059-.719,2.312,2.312,0,0,1-.816-1.812,2.389,2.389,0,0,1,1-2.062,4.915,4.915,0,0,1,2.879-.727h1.039v-.484a1.393,1.393,0,0,0-.3-.937,1.183,1.183,0,0,0-.949-.352,1.345,1.345,0,0,0-.895.273.929.929,0,0,0-.324.75H52.406a2.268,2.268,0,0,1,.453-1.359,3,3,0,0,1,1.281-.98A4.669,4.669,0,0,1,56,8.391a3.689,3.689,0,0,1,2.48.785,2.747,2.747,0,0,1,.918,2.207v3.664a4.041,4.041,0,0,0,.336,1.82V17Zm-1.867-1.57a1.945,1.945,0,0,0,.922-.223,1.462,1.462,0,0,0,.625-.6V13.156h-.844q-1.7,0-1.8,1.172l-.008.133a.9.9,0,0,0,.3.7A1.153,1.153,0,0,0,55.586,15.43Zm8.25-8.961V8.547h1.445V10.2H63.836v4.219a1.007,1.007,0,0,0,.18.672.9.9,0,0,0,.688.2,3.6,3.6,0,0,0,.664-.055v1.711a4.648,4.648,0,0,1-1.367.2,2.156,2.156,0,0,1-2.422-2.4V10.2H60.344V8.547h1.234V6.469ZM65.953,12.7a5.013,5.013,0,0,1,.484-2.242A3.546,3.546,0,0,1,67.832,8.93a4.069,4.069,0,0,1,2.113-.539,3.849,3.849,0,0,1,2.793,1.047,4.2,4.2,0,0,1,1.207,2.844l.016.578a4.418,4.418,0,0,1-1.086,3.121,4.209,4.209,0,0,1-5.832,0,4.5,4.5,0,0,1-1.09-3.187Zm2.258.164a3.151,3.151,0,0,0,.453,1.84,1.629,1.629,0,0,0,2.578.008A3.448,3.448,0,0,0,71.7,12.7a3.12,3.12,0,0,0-.461-1.828,1.5,1.5,0,0,0-1.3-.648,1.475,1.475,0,0,0-1.281.645A3.506,3.506,0,0,0,68.211,12.859Zm11.719,1.8a.727.727,0,0,0-.41-.652,4.659,4.659,0,0,0-1.316-.426q-3.016-.633-3.016-2.562a2.323,2.323,0,0,1,.934-1.879,3.766,3.766,0,0,1,2.441-.754,4.053,4.053,0,0,1,2.574.758,2.388,2.388,0,0,1,.965,1.969H79.844a1.092,1.092,0,0,0-.312-.8A1.322,1.322,0,0,0,78.555,10a1.351,1.351,0,0,0-.883.258.814.814,0,0,0-.312.656.7.7,0,0,0,.355.605,3.657,3.657,0,0,0,1.2.4,9.8,9.8,0,0,1,1.422.379,2.336,2.336,0,0,1,1.789,2.273,2.2,2.2,0,0,1-.992,1.871,4.28,4.28,0,0,1-2.562.715,4.47,4.47,0,0,1-1.887-.379,3.166,3.166,0,0,1-1.293-1.039,2.414,2.414,0,0,1-.469-1.426h2.141a1.179,1.179,0,0,0,.445.922,1.766,1.766,0,0,0,1.109.32,1.635,1.635,0,0,0,.98-.246A.766.766,0,0,0,79.93,14.664ZM17.465,38.656H13.355L12.574,41H10.082l4.234-11.375h2.172L20.746,41H18.254Zm-3.477-1.9h2.844L15.4,32.5Zm9.375-4.211.07.977a2.951,2.951,0,0,1,2.43-1.133,2.453,2.453,0,0,1,2,.789,3.682,3.682,0,0,1,.672,2.359V41H26.277V35.594a1.465,1.465,0,0,0-.312-1.043,1.4,1.4,0,0,0-1.039-.324,1.553,1.553,0,0,0-1.43.813V41H21.238V32.547ZM35.145,41a2.507,2.507,0,0,1-.227-.758,2.732,2.732,0,0,1-2.133.914,3,3,0,0,1-2.059-.719,2.312,2.312,0,0,1-.816-1.812,2.389,2.389,0,0,1,1-2.062,4.915,4.915,0,0,1,2.879-.727h1.039v-.484a1.393,1.393,0,0,0-.3-.937,1.183,1.183,0,0,0-.949-.352,1.345,1.345,0,0,0-.895.273.929.929,0,0,0-.324.75H30.1a2.268,2.268,0,0,1,.453-1.359,3,3,0,0,1,1.281-.98,4.669,4.669,0,0,1,1.859-.355,3.689,3.689,0,0,1,2.48.785,2.747,2.747,0,0,1,.918,2.207v3.664a4.041,4.041,0,0,0,.336,1.82V41Zm-1.867-1.57a1.945,1.945,0,0,0,.922-.223,1.462,1.462,0,0,0,.625-.6V37.156H33.98q-1.7,0-1.8,1.172l-.008.133a.9.9,0,0,0,.3.7A1.153,1.153,0,0,0,33.277,39.43ZM34.137,29H36.6l-2.164,2.422H32.6Zm7.07,12H38.941V29h2.266Zm4.242,0H43.184V32.547h2.266Zm-2.4-10.641a1.112,1.112,0,0,1,.34-.836,1.465,1.465,0,0,1,1.848,0,1.193,1.193,0,0,1,0,1.68,1.448,1.448,0,0,1-1.836,0A1.108,1.108,0,0,1,43.051,30.359Zm8.836,8.3a.727.727,0,0,0-.41-.652,4.659,4.659,0,0,0-1.316-.426q-3.016-.633-3.016-2.562a2.323,2.323,0,0,1,.934-1.879,3.766,3.766,0,0,1,2.441-.754,4.053,4.053,0,0,1,2.574.758,2.388,2.388,0,0,1,.965,1.969H51.8a1.092,1.092,0,0,0-.312-.8A1.322,1.322,0,0,0,50.512,34a1.351,1.351,0,0,0-.883.258.814.814,0,0,0-.312.656.7.7,0,0,0,.355.605,3.657,3.657,0,0,0,1.2.4,9.8,9.8,0,0,1,1.422.379,2.336,2.336,0,0,1,1.789,2.273,2.205,2.205,0,0,1-.992,1.871,4.28,4.28,0,0,1-2.562.715,4.47,4.47,0,0,1-1.887-.379,3.166,3.166,0,0,1-1.293-1.039,2.414,2.414,0,0,1-.469-1.426H49.02a1.179,1.179,0,0,0,.445.922,1.766,1.766,0,0,0,1.109.32,1.635,1.635,0,0,0,.98-.246A.766.766,0,0,0,51.887,38.664ZM57.918,41H55.652V32.547h2.266Zm-2.4-10.641a1.112,1.112,0,0,1,.34-.836,1.465,1.465,0,0,1,1.848,0,1.193,1.193,0,0,1,0,1.68,1.448,1.448,0,0,1-1.836,0A1.108,1.108,0,0,1,55.52,30.359Zm8.836,8.3a.727.727,0,0,0-.41-.652,4.659,4.659,0,0,0-1.316-.426q-3.016-.633-3.016-2.562a2.323,2.323,0,0,1,.934-1.879,3.766,3.766,0,0,1,2.441-.754,4.053,4.053,0,0,1,2.574.758,2.388,2.388,0,0,1,.965,1.969H64.27a1.092,1.092,0,0,0-.312-.8A1.322,1.322,0,0,0,62.98,34a1.351,1.351,0,0,0-.883.258.814.814,0,0,0-.312.656.7.7,0,0,0,.355.605,3.657,3.657,0,0,0,1.2.4,9.8,9.8,0,0,1,1.422.379,2.336,2.336,0,0,1,1.789,2.273,2.2,2.2,0,0,1-.992,1.871A4.28,4.28,0,0,1,63,41.156a4.47,4.47,0,0,1-1.887-.379,3.166,3.166,0,0,1-1.293-1.039,2.414,2.414,0,0,1-.469-1.426h2.141a1.179,1.179,0,0,0,.445.922,1.766,1.766,0,0,0,1.109.32,1.635,1.635,0,0,0,.98-.246A.766.766,0,0,0,64.355,38.664ZM74.371,41H72.105V32.547h2.266Zm-2.4-10.641a1.112,1.112,0,0,1,.34-.836,1.465,1.465,0,0,1,1.848,0,1.193,1.193,0,0,1,0,1.68,1.448,1.448,0,0,1-1.836,0A1.108,1.108,0,0,1,71.973,30.359Zm6.336,2.188.07.977a2.951,2.951,0,0,1,2.43-1.133,2.453,2.453,0,0,1,2,.789,3.682,3.682,0,0,1,.672,2.359V41H81.223V35.594a1.465,1.465,0,0,0-.312-1.043,1.4,1.4,0,0,0-1.039-.324,1.553,1.553,0,0,0-1.43.813V41H76.184V32.547ZM87.574,41H85.309V32.547h2.266Zm-2.4-10.641a1.112,1.112,0,0,1,.34-.836,1.465,1.465,0,0,1,1.848,0,1.193,1.193,0,0,1,0,1.68,1.448,1.448,0,0,1-1.836,0A1.108,1.108,0,0,1,85.176,30.359Zm7.773,8.977a1.481,1.481,0,0,0,1.016-.344,1.2,1.2,0,0,0,.406-.914h2.117a2.9,2.9,0,0,1-.469,1.574,3.093,3.093,0,0,1-1.262,1.109,3.949,3.949,0,0,1-1.77.395A3.67,3.67,0,0,1,90.129,40a4.56,4.56,0,0,1-1.047-3.184v-.148a4.508,4.508,0,0,1,1.039-3.117,3.627,3.627,0,0,1,2.852-1.164,3.555,3.555,0,0,1,2.543.9,3.2,3.2,0,0,1,.973,2.4H94.371a1.539,1.539,0,0,0-.406-1.066,1.513,1.513,0,0,0-2.223.164,3.324,3.324,0,0,0-.4,1.863v.234a3.366,3.366,0,0,0,.4,1.875A1.378,1.378,0,0,0,92.949,39.336ZM100.16,41H97.895V32.547h2.266Zm-2.4-10.641a1.112,1.112,0,0,1,.34-.836,1.465,1.465,0,0,1,1.848,0,1.193,1.193,0,0,1,0,1.68,1.448,1.448,0,0,1-1.836,0A1.108,1.108,0,0,1,97.762,30.359ZM106.918,41a2.507,2.507,0,0,1-.227-.758,2.732,2.732,0,0,1-2.133.914,3,3,0,0,1-2.059-.719,2.312,2.312,0,0,1-.816-1.812,2.389,2.389,0,0,1,1-2.062,4.915,4.915,0,0,1,2.879-.727H106.6v-.484a1.393,1.393,0,0,0-.3-.937,1.183,1.183,0,0,0-.949-.352,1.345,1.345,0,0,0-.895.273.929.929,0,0,0-.324.75h-2.258a2.268,2.268,0,0,1,.453-1.359,3,3,0,0,1,1.281-.98,4.669,4.669,0,0,1,1.859-.355,3.689,3.689,0,0,1,2.48.785,2.747,2.747,0,0,1,.918,2.207v3.664a4.041,4.041,0,0,0,.336,1.82V41Zm-1.867-1.57a1.945,1.945,0,0,0,.922-.223,1.462,1.462,0,0,0,.625-.6V37.156h-.844q-1.7,0-1.8,1.172l-.008.133a.9.9,0,0,0,.3.7A1.153,1.153,0,0,0,105.051,39.43ZM112.98,41h-2.266V29h2.266Z" transform="translate(416.025 1367.104)" fill="#12263f"/>
    <g id="Trazado_881741" data-name="Trazado 881741" transform="translate(605.025 1352.104)" fill="#e6fbee">
      <path d="M 156 73.5 L 19 73.5 C 14.59269046783447 73.5 10.44919013977051 71.78369140625 7.332737922668457 68.66725921630859 C 4.216309547424316 65.55081176757812 2.5 61.40731048583984 2.5 57 L 2.5 19 C 2.5 14.59269046783447 4.216309547424316 10.44919013977051 7.332737922668457 7.332737922668457 C 10.44919013977051 4.216309547424316 14.59269046783447 2.5 19 2.5 L 156 2.5 C 160.4073028564453 2.5 164.5508117675781 4.216309547424316 167.6672668457031 7.332737922668457 C 170.78369140625 10.44919013977051 172.5 14.59269046783447 172.5 19 L 172.5 57 C 172.5 61.40731048583984 170.78369140625 65.55081176757812 167.6672668457031 68.66725921630859 C 164.5508117675781 71.78369140625 160.4073028564453 73.5 156 73.5 Z" stroke="none"/>
      <path d="M 19 5 C 15.26045227050781 5 11.74473571777344 6.456260681152344 9.100494384765625 9.100502014160156 C 6.456268310546875 11.74473571777344 5 15.26044845581055 5 19 L 5 57 C 5 60.73952484130859 6.456268310546875 64.25523376464844 9.100494384765625 66.89949798583984 C 11.74476623535156 69.54373931884766 15.26046752929688 71 19 71 L 156 71 C 159.7395324707031 71 163.2552337646484 69.54373931884766 165.8995056152344 66.89949798583984 C 168.5437316894531 64.25523376464844 170 60.73952484130859 170 57 L 170 19 C 170 15.26047515869141 168.5437316894531 11.74476623535156 165.8995056152344 9.100502014160156 C 163.2552337646484 6.456260681152344 159.7395324707031 5 156 5 L 19 5 M 19 0 L 156 0 C 166.4933929443359 0 175 8.506576538085938 175 19 L 175 57 C 175 67.49339294433594 166.4933929443359 76 156 76 L 19 76 C 8.506576538085938 76 0 67.49339294433594 0 57 L 0 19 C 0 8.506576538085938 8.506576538085938 0 19 0 Z" stroke="none" fill="#13de61"/>
    </g>
    <path id="Trazado_881742" data-name="Trazado 881742" d="M49,13.211A4.025,4.025,0,0,1,47.645,16.1a4.76,4.76,0,0,1-3.223,1.055,4.28,4.28,0,0,1-3.441-1.473,6.038,6.038,0,0,1-1.254-4.043v-.7A6.819,6.819,0,0,1,40.3,8.055a4.332,4.332,0,0,1,1.652-1.918,5.164,5.164,0,0,1,5.668.387,4.326,4.326,0,0,1,1.391,2.961H46.672a2.376,2.376,0,0,0-.613-1.6,2.271,2.271,0,0,0-1.605-.5,1.991,1.991,0,0,0-1.754.84,4.707,4.707,0,0,0-.6,2.605V11.7a5.038,5.038,0,0,0,.559,2.7,1.954,1.954,0,0,0,1.762.852,2.314,2.314,0,0,0,1.621-.5,2.241,2.241,0,0,0,.613-1.535Zm1.039-.516a5.013,5.013,0,0,1,.484-2.242A3.546,3.546,0,0,1,51.918,8.93a4.069,4.069,0,0,1,2.113-.539,3.849,3.849,0,0,1,2.793,1.047,4.2,4.2,0,0,1,1.207,2.844l.016.578a4.418,4.418,0,0,1-1.086,3.121,4.209,4.209,0,0,1-5.832,0,4.5,4.5,0,0,1-1.09-3.187Zm2.258.164a3.151,3.151,0,0,0,.453,1.84,1.629,1.629,0,0,0,2.578.008,3.448,3.448,0,0,0,.461-2.012,3.12,3.12,0,0,0-.461-1.828,1.5,1.5,0,0,0-1.3-.648,1.475,1.475,0,0,0-1.281.645A3.506,3.506,0,0,0,52.3,12.859Zm9.219-4.312.07.977a2.951,2.951,0,0,1,2.43-1.133,2.453,2.453,0,0,1,2,.789,3.682,3.682,0,0,1,.672,2.359V17H64.43V11.594a1.465,1.465,0,0,0-.312-1.043,1.4,1.4,0,0,0-1.039-.324,1.553,1.553,0,0,0-1.43.813V17H59.391V8.547ZM71.1,6.469V8.547h1.445V10.2H71.1v4.219a1.007,1.007,0,0,0,.18.672.9.9,0,0,0,.688.2,3.6,3.6,0,0,0,.664-.055v1.711a4.648,4.648,0,0,1-1.367.2,2.156,2.156,0,0,1-2.422-2.4V10.2H67.609V8.547h1.234V6.469ZM77.7,17.156a4.15,4.15,0,0,1-3.027-1.141A4.054,4.054,0,0,1,73.5,12.977v-.219a5.106,5.106,0,0,1,.492-2.277,3.612,3.612,0,0,1,1.395-1.547,3.914,3.914,0,0,1,2.059-.543,3.508,3.508,0,0,1,2.73,1.094,4.444,4.444,0,0,1,1,3.1v.922H75.789a2.1,2.1,0,0,0,.66,1.328,2,2,0,0,0,1.395.5,2.437,2.437,0,0,0,2.039-.945l1.109,1.242a3.389,3.389,0,0,1-1.375,1.121A4.511,4.511,0,0,1,77.7,17.156Zm-.258-6.937a1.414,1.414,0,0,0-1.09.453,2.341,2.341,0,0,0-.535,1.3h3.141v-.18a1.669,1.669,0,0,0-.406-1.16A1.459,1.459,0,0,0,77.438,10.219Zm8.234.852,1.422-2.523h2.414L87.1,12.688,89.609,17H87.188L85.68,14.344,84.18,17H81.75l2.508-4.312-2.4-4.141h2.422Zm7.625-4.6V8.547h1.445V10.2H93.3v4.219a1.007,1.007,0,0,0,.18.672.9.9,0,0,0,.688.2,3.6,3.6,0,0,0,.664-.055v1.711a4.648,4.648,0,0,1-1.367.2,2.156,2.156,0,0,1-2.422-2.4V10.2H89.8V8.547h1.234V6.469ZM95.414,12.7a5.013,5.013,0,0,1,.484-2.242A3.546,3.546,0,0,1,97.293,8.93a4.069,4.069,0,0,1,2.113-.539A3.849,3.849,0,0,1,102.2,9.438a4.2,4.2,0,0,1,1.207,2.844l.016.578a4.418,4.418,0,0,1-1.086,3.121,4.209,4.209,0,0,1-5.832,0,4.5,4.5,0,0,1-1.09-3.187Zm2.258.164a3.151,3.151,0,0,0,.453,1.84,1.629,1.629,0,0,0,2.578.008,3.448,3.448,0,0,0,.461-2.012,3.12,3.12,0,0,0-.461-1.828,1.5,1.5,0,0,0-1.3-.648,1.475,1.475,0,0,0-1.281.645A3.506,3.506,0,0,0,97.672,12.859ZM13.066,41H10.723L6.16,33.516V41H3.816V29.625H6.16l4.57,7.5v-7.5h2.336Zm5.789.156a4.15,4.15,0,0,1-3.027-1.141,4.054,4.054,0,0,1-1.168-3.039v-.219a5.106,5.106,0,0,1,.492-2.277,3.612,3.612,0,0,1,1.395-1.547,3.914,3.914,0,0,1,2.059-.543,3.508,3.508,0,0,1,2.73,1.094,4.444,4.444,0,0,1,1,3.1v.922H16.949a2.1,2.1,0,0,0,.66,1.328,2,2,0,0,0,1.395.5,2.437,2.437,0,0,0,2.039-.945l1.109,1.242a3.389,3.389,0,0,1-1.375,1.121A4.511,4.511,0,0,1,18.855,41.156ZM18.6,34.219a1.414,1.414,0,0,0-1.09.453,2.341,2.341,0,0,0-.535,1.3h3.141v-.18a1.669,1.669,0,0,0-.406-1.16A1.459,1.459,0,0,0,18.6,34.219Zm4.688,2.492a4.954,4.954,0,0,1,.926-3.133,3,3,0,0,1,2.5-1.187,2.631,2.631,0,0,1,2.164.953l.094-.8h2.047v8.172a3.613,3.613,0,0,1-.5,1.93A3.236,3.236,0,0,1,29.09,43.9a4.985,4.985,0,0,1-2.141.43,4.635,4.635,0,0,1-1.812-.371A3.217,3.217,0,0,1,23.8,43l1-1.375a2.645,2.645,0,0,0,2.047.945,1.936,1.936,0,0,0,1.4-.48,1.8,1.8,0,0,0,.5-1.363v-.453a2.612,2.612,0,0,1-2.055.883,2.992,2.992,0,0,1-2.465-1.191,4.953,4.953,0,0,1-.941-3.16Zm2.258.164a3.076,3.076,0,0,0,.461,1.8,1.467,1.467,0,0,0,1.266.652,1.568,1.568,0,0,0,1.477-.773V35a1.565,1.565,0,0,0-1.461-.773,1.476,1.476,0,0,0-1.277.664A3.467,3.467,0,0,0,25.543,36.875Zm6.852-.18a5.013,5.013,0,0,1,.484-2.242,3.546,3.546,0,0,1,1.395-1.523,4.069,4.069,0,0,1,2.113-.539,3.849,3.849,0,0,1,2.793,1.047,4.2,4.2,0,0,1,1.207,2.844l.016.578a4.418,4.418,0,0,1-1.086,3.121,4.209,4.209,0,0,1-5.832,0,4.5,4.5,0,0,1-1.09-3.187Zm2.258.164a3.151,3.151,0,0,0,.453,1.84,1.629,1.629,0,0,0,2.578.008,3.448,3.448,0,0,0,.461-2.012,3.12,3.12,0,0,0-.461-1.828,1.5,1.5,0,0,0-1.3-.648,1.475,1.475,0,0,0-1.281.645A3.506,3.506,0,0,0,34.652,36.859Zm10.656,2.477a1.481,1.481,0,0,0,1.016-.344,1.2,1.2,0,0,0,.406-.914h2.117a2.9,2.9,0,0,1-.469,1.574,3.093,3.093,0,0,1-1.262,1.109,3.949,3.949,0,0,1-1.77.395A3.67,3.67,0,0,1,42.488,40a4.56,4.56,0,0,1-1.047-3.184v-.148a4.508,4.508,0,0,1,1.039-3.117,3.627,3.627,0,0,1,2.852-1.164,3.555,3.555,0,0,1,2.543.9,3.2,3.2,0,0,1,.973,2.4H46.73a1.539,1.539,0,0,0-.406-1.066,1.513,1.513,0,0,0-2.223.164,3.324,3.324,0,0,0-.4,1.863v.234a3.366,3.366,0,0,0,.4,1.875A1.378,1.378,0,0,0,45.309,39.336ZM52.52,41H50.254V32.547H52.52Zm-2.4-10.641a1.112,1.112,0,0,1,.34-.836,1.465,1.465,0,0,1,1.848,0,1.193,1.193,0,0,1,0,1.68,1.448,1.448,0,0,1-1.836,0A1.108,1.108,0,0,1,50.121,30.359ZM54.027,36.7a5.013,5.013,0,0,1,.484-2.242,3.546,3.546,0,0,1,1.395-1.523,4.069,4.069,0,0,1,2.113-.539,3.849,3.849,0,0,1,2.793,1.047,4.2,4.2,0,0,1,1.207,2.844l.016.578a4.418,4.418,0,0,1-1.086,3.121,4.209,4.209,0,0,1-5.832,0,4.5,4.5,0,0,1-1.09-3.187Zm2.258.164a3.151,3.151,0,0,0,.453,1.84,1.629,1.629,0,0,0,2.578.008,3.448,3.448,0,0,0,.461-2.012,3.12,3.12,0,0,0-.461-1.828,1.5,1.5,0,0,0-1.3-.648,1.475,1.475,0,0,0-1.281.645A3.506,3.506,0,0,0,56.285,36.859Zm7.852,5.117h-1.68l4.188-12.352h1.68Zm11.836-3.32H71.863L71.082,41H68.59l4.234-11.375H75L79.254,41H76.762Zm-3.477-1.9H75.34L73.91,32.5Zm12.648,3.383a2.831,2.831,0,0,1-2.312,1.016,2.67,2.67,0,0,1-2.074-.781,3.335,3.335,0,0,1-.73-2.289V32.547h2.258v5.461q0,1.32,1.2,1.32a1.631,1.631,0,0,0,1.578-.8V32.547h2.266V41H85.207Zm3.539-3.43a5.094,5.094,0,0,1,.887-3.148A2.877,2.877,0,0,1,92,32.391a2.589,2.589,0,0,1,2.039.922V29H96.3V41H94.262l-.109-.9a2.657,2.657,0,0,1-2.172,1.055,2.869,2.869,0,0,1-2.395-1.176A5.258,5.258,0,0,1,88.684,36.711Zm2.258.164a3.328,3.328,0,0,0,.414,1.82,1.349,1.349,0,0,0,1.2.633,1.511,1.511,0,0,0,1.477-.883V35.109a1.489,1.489,0,0,0-1.461-.883Q90.941,34.227,90.941,36.875ZM100.434,41H98.168V32.547h2.266Zm-2.4-10.641a1.112,1.112,0,0,1,.34-.836,1.465,1.465,0,0,1,1.848,0,1.193,1.193,0,0,1,0,1.68,1.448,1.448,0,0,1-1.836,0A1.108,1.108,0,0,1,98.035,30.359Zm8.148,10.8a4.15,4.15,0,0,1-3.027-1.141,4.054,4.054,0,0,1-1.168-3.039v-.219a5.106,5.106,0,0,1,.492-2.277,3.612,3.612,0,0,1,1.395-1.547,3.914,3.914,0,0,1,2.059-.543,3.508,3.508,0,0,1,2.73,1.094,4.444,4.444,0,0,1,1,3.1v.922h-5.383a2.1,2.1,0,0,0,.66,1.328,2,2,0,0,0,1.395.5,2.437,2.437,0,0,0,2.039-.945l1.109,1.242a3.389,3.389,0,0,1-1.375,1.121A4.511,4.511,0,0,1,106.184,41.156Zm-.258-6.937a1.414,1.414,0,0,0-1.09.453,2.341,2.341,0,0,0-.535,1.3h3.141v-.18a1.669,1.669,0,0,0-.406-1.16A1.459,1.459,0,0,0,105.926,34.219Zm7.094-1.672.07.977a2.951,2.951,0,0,1,2.43-1.133,2.453,2.453,0,0,1,2,.789,3.682,3.682,0,0,1,.672,2.359V41h-2.258V35.594a1.465,1.465,0,0,0-.312-1.043,1.4,1.4,0,0,0-1.039-.324,1.553,1.553,0,0,0-1.43.813V41h-2.258V32.547Zm10.4,6.789a1.481,1.481,0,0,0,1.016-.344,1.2,1.2,0,0,0,.406-.914h2.117a2.9,2.9,0,0,1-.469,1.574,3.093,3.093,0,0,1-1.262,1.109,3.949,3.949,0,0,1-1.77.395A3.67,3.67,0,0,1,120.6,40a4.56,4.56,0,0,1-1.047-3.184v-.148a4.508,4.508,0,0,1,1.039-3.117,3.627,3.627,0,0,1,2.852-1.164,3.555,3.555,0,0,1,2.543.9,3.2,3.2,0,0,1,.973,2.4H124.84a1.539,1.539,0,0,0-.406-1.066,1.513,1.513,0,0,0-2.223.164,3.324,3.324,0,0,0-.4,1.863v.234a3.366,3.366,0,0,0,.4,1.875A1.378,1.378,0,0,0,123.418,39.336ZM130.629,41h-2.266V32.547h2.266Zm-2.4-10.641a1.112,1.112,0,0,1,.34-.836,1.465,1.465,0,0,1,1.848,0,1.193,1.193,0,0,1,0,1.68,1.448,1.448,0,0,1-1.836,0A1.109,1.109,0,0,1,128.23,30.359ZM137.387,41a2.507,2.507,0,0,1-.227-.758,2.732,2.732,0,0,1-2.133.914,3,3,0,0,1-2.059-.719,2.312,2.312,0,0,1-.816-1.812,2.389,2.389,0,0,1,1-2.062,4.915,4.915,0,0,1,2.879-.727h1.039v-.484a1.393,1.393,0,0,0-.3-.937,1.183,1.183,0,0,0-.949-.352,1.345,1.345,0,0,0-.895.273.929.929,0,0,0-.324.75H132.34a2.268,2.268,0,0,1,.453-1.359,3,3,0,0,1,1.281-.98,4.669,4.669,0,0,1,1.859-.355,3.689,3.689,0,0,1,2.48.785,2.747,2.747,0,0,1,.918,2.207v3.664a4.041,4.041,0,0,0,.336,1.82V41Zm-1.867-1.57a1.945,1.945,0,0,0,.922-.223,1.462,1.462,0,0,0,.625-.6V37.156h-.844q-1.7,0-1.8,1.172l-.008.133a.9.9,0,0,0,.3.7A1.153,1.153,0,0,0,135.52,39.43Z" transform="translate(621.025 1367.104)" fill="#12263f"/>
    <g id="Trazado_881743" data-name="Trazado 881743" transform="translate(821.025 1352.104)" fill="#e6fbee">
      <path d="M 156 73.5 L 19 73.5 C 14.59269046783447 73.5 10.44919013977051 71.78369140625 7.332737922668457 68.66725921630859 C 4.216309547424316 65.55081176757812 2.5 61.40731048583984 2.5 57 L 2.5 19 C 2.5 14.59269046783447 4.216309547424316 10.44919013977051 7.332737922668457 7.332737922668457 C 10.44919013977051 4.216309547424316 14.59269046783447 2.5 19 2.5 L 156 2.5 C 160.4073028564453 2.5 164.5508117675781 4.216309547424316 167.6672668457031 7.332737922668457 C 170.78369140625 10.44919013977051 172.5 14.59269046783447 172.5 19 L 172.5 57 C 172.5 61.40731048583984 170.78369140625 65.55081176757812 167.6672668457031 68.66725921630859 C 164.5508117675781 71.78369140625 160.4073028564453 73.5 156 73.5 Z" stroke="none"/>
      <path d="M 19 5 C 15.26045227050781 5 11.74473571777344 6.456260681152344 9.100494384765625 9.100502014160156 C 6.456268310546875 11.74473571777344 5 15.26044845581055 5 19 L 5 57 C 5 60.73952484130859 6.456268310546875 64.25523376464844 9.100494384765625 66.89949798583984 C 11.74476623535156 69.54373931884766 15.26046752929688 71 19 71 L 156 71 C 159.7395324707031 71 163.2552337646484 69.54373931884766 165.8995056152344 66.89949798583984 C 168.5437316894531 64.25523376464844 170 60.73952484130859 170 57 L 170 19 C 170 15.26047515869141 168.5437316894531 11.74476623535156 165.8995056152344 9.100502014160156 C 163.2552337646484 6.456260681152344 159.7395324707031 5 156 5 L 19 5 M 19 0 L 156 0 C 166.4933929443359 0 175 8.506576538085938 175 19 L 175 57 C 175 67.49339294433594 166.4933929443359 76 156 76 L 19 76 C 8.506576538085938 76 0 67.49339294433594 0 57 L 0 19 C 0 8.506576538085938 8.506576538085938 0 19 0 Z" stroke="none" fill="#13de61"/>
    </g>
    <path id="Trazado_881744" data-name="Trazado 881744" d="M48.723,17H46.379L41.816,9.516V17H39.473V5.625h2.344l4.57,7.5v-7.5h2.336Zm6.8,0a2.507,2.507,0,0,1-.227-.758,2.732,2.732,0,0,1-2.133.914,3,3,0,0,1-2.059-.719,2.312,2.312,0,0,1-.816-1.812,2.389,2.389,0,0,1,1-2.062,4.915,4.915,0,0,1,2.879-.727H55.2v-.484a1.393,1.393,0,0,0-.3-.937,1.183,1.183,0,0,0-.949-.352,1.345,1.345,0,0,0-.895.273.929.929,0,0,0-.324.75H50.473a2.268,2.268,0,0,1,.453-1.359,3,3,0,0,1,1.281-.98,4.669,4.669,0,0,1,1.859-.355,3.689,3.689,0,0,1,2.48.785,2.747,2.747,0,0,1,.918,2.207v3.664a4.041,4.041,0,0,0,.336,1.82V17Zm-1.867-1.57a1.945,1.945,0,0,0,.922-.223,1.462,1.462,0,0,0,.625-.6V13.156h-.844q-1.7,0-1.8,1.172l-.008.133a.9.9,0,0,0,.3.7A1.153,1.153,0,0,0,53.652,15.43Zm10.3-4.766a6.134,6.134,0,0,0-.812-.062,1.654,1.654,0,0,0-1.68.867V17H59.2V8.547h2.133l.063,1.008a2.092,2.092,0,0,1,1.883-1.164,2.366,2.366,0,0,1,.7.1Zm5.836,0a6.134,6.134,0,0,0-.812-.062,1.654,1.654,0,0,0-1.68.867V17H65.035V8.547h2.133l.063,1.008a2.092,2.092,0,0,1,1.883-1.164,2.366,2.366,0,0,1,.7.1ZM75.535,17a2.507,2.507,0,0,1-.227-.758,2.732,2.732,0,0,1-2.133.914,3,3,0,0,1-2.059-.719,2.312,2.312,0,0,1-.816-1.812,2.389,2.389,0,0,1,1-2.062,4.915,4.915,0,0,1,2.879-.727h1.039v-.484a1.393,1.393,0,0,0-.3-.937,1.183,1.183,0,0,0-.949-.352,1.345,1.345,0,0,0-.895.273.929.929,0,0,0-.324.75H70.488a2.268,2.268,0,0,1,.453-1.359,3,3,0,0,1,1.281-.98,4.669,4.669,0,0,1,1.859-.355,3.689,3.689,0,0,1,2.48.785,2.747,2.747,0,0,1,.918,2.207v3.664a4.041,4.041,0,0,0,.336,1.82V17Zm-1.867-1.57a1.945,1.945,0,0,0,.922-.223,1.462,1.462,0,0,0,.625-.6V13.156h-.844q-1.7,0-1.8,1.172l-.008.133a.9.9,0,0,0,.3.7A1.153,1.153,0,0,0,73.668,15.43Zm8.25-8.961V8.547h1.445V10.2H81.918v4.219a1.007,1.007,0,0,0,.18.672.9.9,0,0,0,.688.2,3.6,3.6,0,0,0,.664-.055v1.711a4.648,4.648,0,0,1-1.367.2,2.156,2.156,0,0,1-2.422-2.4V10.2H78.426V8.547H79.66V6.469ZM87,17H84.738V8.547H87Zm-2.4-10.641a1.112,1.112,0,0,1,.34-.836,1.465,1.465,0,0,1,1.848,0,1.105,1.105,0,0,1,.344.836,1.108,1.108,0,0,1-.348.844,1.448,1.448,0,0,1-1.836,0A1.108,1.108,0,0,1,84.605,6.359Zm7.422,7.883,1.57-5.7h2.359L93.105,17H90.949L88.1,8.547h2.359ZM101.73,17a2.507,2.507,0,0,1-.227-.758,2.732,2.732,0,0,1-2.133.914,3,3,0,0,1-2.059-.719,2.312,2.312,0,0,1-.816-1.812,2.389,2.389,0,0,1,1-2.062,4.915,4.915,0,0,1,2.879-.727h1.039v-.484a1.393,1.393,0,0,0-.3-.937,1.183,1.183,0,0,0-.949-.352,1.345,1.345,0,0,0-.895.273.929.929,0,0,0-.324.75H96.684a2.268,2.268,0,0,1,.453-1.359,3,3,0,0,1,1.281-.98,4.669,4.669,0,0,1,1.859-.355,3.689,3.689,0,0,1,2.48.785,2.747,2.747,0,0,1,.918,2.207v3.664a4.041,4.041,0,0,0,.336,1.82V17Zm-1.867-1.57a1.945,1.945,0,0,0,.922-.223,1.462,1.462,0,0,0,.625-.6V13.156h-.844q-1.7,0-1.8,1.172l-.008.133a.9.9,0,0,0,.3.7A1.153,1.153,0,0,0,99.863,15.43ZM15.211,41H12.867V36.125H8.3V41H5.953V29.625H8.3v4.609h4.57V29.625h2.344Zm4.281,0H17.227V32.547h2.266Zm-2.4-10.641a1.112,1.112,0,0,1,.34-.836,1.465,1.465,0,0,1,1.848,0,1.193,1.193,0,0,1,0,1.68,1.448,1.448,0,0,1-1.836,0A1.108,1.108,0,0,1,17.094,30.359Zm8.836,8.3a.727.727,0,0,0-.41-.652,4.659,4.659,0,0,0-1.316-.426q-3.016-.633-3.016-2.562a2.323,2.323,0,0,1,.934-1.879,3.766,3.766,0,0,1,2.441-.754,4.053,4.053,0,0,1,2.574.758,2.388,2.388,0,0,1,.965,1.969H25.844a1.092,1.092,0,0,0-.312-.8A1.322,1.322,0,0,0,24.555,34a1.351,1.351,0,0,0-.883.258.814.814,0,0,0-.312.656.7.7,0,0,0,.355.605,3.657,3.657,0,0,0,1.2.4,9.8,9.8,0,0,1,1.422.379,2.336,2.336,0,0,1,1.789,2.273,2.2,2.2,0,0,1-.992,1.871,4.28,4.28,0,0,1-2.562.715,4.47,4.47,0,0,1-1.887-.379,3.166,3.166,0,0,1-1.293-1.039,2.414,2.414,0,0,1-.469-1.426h2.141a1.179,1.179,0,0,0,.445.922,1.766,1.766,0,0,0,1.109.32,1.635,1.635,0,0,0,.98-.246A.766.766,0,0,0,25.93,38.664Zm6.352-8.2v2.078h1.445V34.2H32.281v4.219a1.007,1.007,0,0,0,.18.672.9.9,0,0,0,.688.2,3.6,3.6,0,0,0,.664-.055v1.711a4.648,4.648,0,0,1-1.367.2,2.156,2.156,0,0,1-2.422-2.4V34.2H28.789V32.547h1.234V30.469ZM34.4,36.7a5.013,5.013,0,0,1,.484-2.242,3.546,3.546,0,0,1,1.395-1.523,4.069,4.069,0,0,1,2.113-.539,3.849,3.849,0,0,1,2.793,1.047,4.2,4.2,0,0,1,1.207,2.844l.016.578A4.418,4.418,0,0,1,41.32,39.98a4.209,4.209,0,0,1-5.832,0A4.5,4.5,0,0,1,34.4,36.8Zm2.258.164a3.151,3.151,0,0,0,.453,1.84,1.629,1.629,0,0,0,2.578.008,3.448,3.448,0,0,0,.461-2.012,3.12,3.12,0,0,0-.461-1.828,1.5,1.5,0,0,0-1.3-.648,1.475,1.475,0,0,0-1.281.645A3.506,3.506,0,0,0,36.656,36.859Zm11.891-2.2a6.134,6.134,0,0,0-.812-.062,1.654,1.654,0,0,0-1.68.867V41H43.8V32.547H45.93l.063,1.008a2.092,2.092,0,0,1,1.883-1.164,2.366,2.366,0,0,1,.7.1ZM52.016,41H49.75V32.547h2.266Zm-2.4-10.641a1.112,1.112,0,0,1,.34-.836,1.465,1.465,0,0,1,1.848,0,1.193,1.193,0,0,1,0,1.68,1.448,1.448,0,0,1-1.836,0A1.108,1.108,0,0,1,49.617,30.359ZM58.773,41a2.507,2.507,0,0,1-.227-.758,2.732,2.732,0,0,1-2.133.914,3,3,0,0,1-2.059-.719,2.312,2.312,0,0,1-.816-1.812,2.389,2.389,0,0,1,1-2.062,4.915,4.915,0,0,1,2.879-.727h1.039v-.484a1.393,1.393,0,0,0-.3-.937,1.183,1.183,0,0,0-.949-.352,1.345,1.345,0,0,0-.895.273.929.929,0,0,0-.324.75H53.727a2.268,2.268,0,0,1,.453-1.359,3,3,0,0,1,1.281-.98,4.669,4.669,0,0,1,1.859-.355,3.689,3.689,0,0,1,2.48.785,2.747,2.747,0,0,1,.918,2.207v3.664a4.041,4.041,0,0,0,.336,1.82V41Zm-1.867-1.57a1.945,1.945,0,0,0,.922-.223,1.462,1.462,0,0,0,.625-.6V37.156h-.844q-1.7,0-1.8,1.172l-.008.133a.9.9,0,0,0,.3.7A1.153,1.153,0,0,0,56.906,39.43Zm13.047-.094a1.481,1.481,0,0,0,1.016-.344,1.2,1.2,0,0,0,.406-.914h2.117a2.9,2.9,0,0,1-.469,1.574,3.093,3.093,0,0,1-1.262,1.109,3.949,3.949,0,0,1-1.77.395A3.67,3.67,0,0,1,67.133,40a4.56,4.56,0,0,1-1.047-3.184v-.148a4.508,4.508,0,0,1,1.039-3.117,3.627,3.627,0,0,1,2.852-1.164,3.555,3.555,0,0,1,2.543.9,3.2,3.2,0,0,1,.973,2.4H71.375a1.539,1.539,0,0,0-.406-1.066,1.513,1.513,0,0,0-2.223.164,3.324,3.324,0,0,0-.4,1.863v.234a3.366,3.366,0,0,0,.4,1.875A1.378,1.378,0,0,0,69.953,39.336ZM74.43,36.7a5.013,5.013,0,0,1,.484-2.242,3.546,3.546,0,0,1,1.395-1.523,4.069,4.069,0,0,1,2.113-.539,3.849,3.849,0,0,1,2.793,1.047,4.2,4.2,0,0,1,1.207,2.844l.016.578a4.418,4.418,0,0,1-1.086,3.121,4.209,4.209,0,0,1-5.832,0A4.5,4.5,0,0,1,74.43,36.8Zm2.258.164a3.151,3.151,0,0,0,.453,1.84,1.629,1.629,0,0,0,2.578.008A3.448,3.448,0,0,0,80.18,36.7a3.12,3.12,0,0,0-.461-1.828,1.5,1.5,0,0,0-1.3-.648,1.475,1.475,0,0,0-1.281.645A3.506,3.506,0,0,0,76.688,36.859Zm9.344-3.391a2.818,2.818,0,0,1,2.258-1.078q2.75,0,2.789,3.2V41H88.82V35.648a1.57,1.57,0,0,0-.312-1.074,1.34,1.34,0,0,0-1.039-.348,1.537,1.537,0,0,0-1.437.766V41H83.773V29h2.258Zm10.641,7.688a4.15,4.15,0,0,1-3.027-1.141,4.054,4.054,0,0,1-1.168-3.039v-.219a5.106,5.106,0,0,1,.492-2.277,3.612,3.612,0,0,1,1.395-1.547,3.914,3.914,0,0,1,2.059-.543,3.508,3.508,0,0,1,2.73,1.094,4.444,4.444,0,0,1,1,3.1v.922H94.766a2.1,2.1,0,0,0,.66,1.328,2,2,0,0,0,1.395.5,2.437,2.437,0,0,0,2.039-.945l1.109,1.242a3.389,3.389,0,0,1-1.375,1.121A4.511,4.511,0,0,1,96.672,41.156Zm-.258-6.937a1.414,1.414,0,0,0-1.09.453,2.341,2.341,0,0,0-.535,1.3H97.93v-.18a1.669,1.669,0,0,0-.406-1.16A1.459,1.459,0,0,0,96.414,34.219Zm9.766.445a6.134,6.134,0,0,0-.812-.062,1.654,1.654,0,0,0-1.68.867V41H101.43V32.547h2.133l.063,1.008a2.092,2.092,0,0,1,1.883-1.164,2.366,2.366,0,0,1,.7.1Zm4.977,6.492a4.15,4.15,0,0,1-3.027-1.141,4.054,4.054,0,0,1-1.168-3.039v-.219a5.106,5.106,0,0,1,.492-2.277,3.612,3.612,0,0,1,1.395-1.547,3.914,3.914,0,0,1,2.059-.543,3.508,3.508,0,0,1,2.73,1.094,4.444,4.444,0,0,1,1,3.1v.922H109.25a2.1,2.1,0,0,0,.66,1.328,2,2,0,0,0,1.395.5,2.437,2.437,0,0,0,2.039-.945l1.109,1.242a3.389,3.389,0,0,1-1.375,1.121A4.511,4.511,0,0,1,111.156,41.156Zm-.258-6.937a1.414,1.414,0,0,0-1.09.453,2.341,2.341,0,0,0-.535,1.3h3.141v-.18a1.669,1.669,0,0,0-.406-1.16A1.459,1.459,0,0,0,110.9,34.219Zm7.094-1.672.07.977a2.951,2.951,0,0,1,2.43-1.133,2.453,2.453,0,0,1,2,.789,3.682,3.682,0,0,1,.672,2.359V41h-2.258V35.594a1.465,1.465,0,0,0-.312-1.043,1.4,1.4,0,0,0-1.039-.324,1.553,1.553,0,0,0-1.43.813V41h-2.258V32.547Zm9.586-2.078v2.078h1.445V34.2h-1.445v4.219a1.007,1.007,0,0,0,.18.672.9.9,0,0,0,.688.2,3.6,3.6,0,0,0,.664-.055v1.711a4.648,4.648,0,0,1-1.367.2,2.156,2.156,0,0,1-2.422-2.4V34.2h-1.234V32.547h1.234V30.469Zm6.594,10.688a4.15,4.15,0,0,1-3.027-1.141,4.054,4.054,0,0,1-1.168-3.039v-.219a5.106,5.106,0,0,1,.492-2.277,3.612,3.612,0,0,1,1.395-1.547,3.914,3.914,0,0,1,2.059-.543,3.508,3.508,0,0,1,2.73,1.094,4.444,4.444,0,0,1,1,3.1v.922h-5.383a2.1,2.1,0,0,0,.66,1.328,2,2,0,0,0,1.395.5,2.437,2.437,0,0,0,2.039-.945l1.109,1.242a3.389,3.389,0,0,1-1.375,1.121A4.511,4.511,0,0,1,134.172,41.156Zm-.258-6.937a1.414,1.414,0,0,0-1.09.453,2.341,2.341,0,0,0-.535,1.3h3.141v-.18a1.669,1.669,0,0,0-.406-1.16A1.459,1.459,0,0,0,133.914,34.219Z" transform="translate(837.025 1367.104)" fill="#12263f"/>
    <g id="Trazado_881745" data-name="Trazado 881745" transform="translate(1035.025 1352.104)" fill="#e6fbee">
      <path d="M 156 73.5 L 19 73.5 C 14.59269046783447 73.5 10.44919013977051 71.78369140625 7.332737922668457 68.66725921630859 C 4.216309547424316 65.55081176757812 2.5 61.40731048583984 2.5 57 L 2.5 19 C 2.5 14.59269046783447 4.216309547424316 10.44919013977051 7.332737922668457 7.332737922668457 C 10.44919013977051 4.216309547424316 14.59269046783447 2.5 19 2.5 L 156 2.5 C 160.4073028564453 2.5 164.5508117675781 4.216309547424316 167.6672668457031 7.332737922668457 C 170.78369140625 10.44919013977051 172.5 14.59269046783447 172.5 19 L 172.5 57 C 172.5 61.40731048583984 170.78369140625 65.55081176757812 167.6672668457031 68.66725921630859 C 164.5508117675781 71.78369140625 160.4073028564453 73.5 156 73.5 Z" stroke="none"/>
      <path d="M 19 5 C 15.26045227050781 5 11.74473571777344 6.456260681152344 9.100494384765625 9.100502014160156 C 6.456268310546875 11.74473571777344 5 15.26044845581055 5 19 L 5 57 C 5 60.73952484130859 6.456268310546875 64.25523376464844 9.100494384765625 66.89949798583984 C 11.74476623535156 69.54373931884766 15.26046752929688 71 19 71 L 156 71 C 159.7395324707031 71 163.2552337646484 69.54373931884766 165.8995056152344 66.89949798583984 C 168.5437316894531 64.25523376464844 170 60.73952484130859 170 57 L 170 19 C 170 15.26047515869141 168.5437316894531 11.74476623535156 165.8995056152344 9.100502014160156 C 163.2552337646484 6.456260681152344 159.7395324707031 5 156 5 L 19 5 M 19 0 L 156 0 C 166.4933929443359 0 175 8.506576538085938 175 19 L 175 57 C 175 67.49339294433594 166.4933929443359 76 156 76 L 19 76 C 8.506576538085938 76 0 67.49339294433594 0 57 L 0 19 C 0 8.506576538085938 8.506576538085938 0 19 0 Z" stroke="none" fill="#13de61"/>
    </g>
    <path id="Trazado_881746" data-name="Trazado 881746" d="M45.676,17H43.332V5.625h2.344Zm4.141-8.453.07.945a2.971,2.971,0,0,1,2.43-1.1A2.255,2.255,0,0,1,54.559,9.68,2.9,2.9,0,0,1,57.1,8.391a2.521,2.521,0,0,1,2.047.8,3.681,3.681,0,0,1,.672,2.41V17H57.551V11.609a1.61,1.61,0,0,0-.281-1.051,1.246,1.246,0,0,0-.992-.332,1.409,1.409,0,0,0-1.406.969l.008,5.8H52.621V11.617a1.59,1.59,0,0,0-.289-1.062,1.259,1.259,0,0,0-.984-.328,1.463,1.463,0,0,0-1.391.8V17H47.7V8.547Zm19.344,4.3a5.07,5.07,0,0,1-.887,3.129,2.843,2.843,0,0,1-2.395,1.176,2.633,2.633,0,0,1-2.07-.891V20.25H61.551V8.547h2.094l.078.828a2.654,2.654,0,0,1,2.141-.984,2.862,2.862,0,0,1,2.43,1.156,5.207,5.207,0,0,1,.867,3.188ZM66.9,12.688a3.327,3.327,0,0,0-.418-1.82,1.361,1.361,0,0,0-1.215-.641,1.478,1.478,0,0,0-1.461.813V14.5a1.5,1.5,0,0,0,1.477.836Q66.9,15.336,66.9,12.688ZM75.457,17a2.507,2.507,0,0,1-.227-.758,2.732,2.732,0,0,1-2.133.914,3,3,0,0,1-2.059-.719,2.312,2.312,0,0,1-.816-1.812,2.389,2.389,0,0,1,1-2.062,4.915,4.915,0,0,1,2.879-.727h1.039v-.484a1.393,1.393,0,0,0-.3-.937,1.183,1.183,0,0,0-.949-.352,1.345,1.345,0,0,0-.895.273.929.929,0,0,0-.324.75H70.41a2.268,2.268,0,0,1,.453-1.359,3,3,0,0,1,1.281-.98A4.669,4.669,0,0,1,74,8.391a3.689,3.689,0,0,1,2.48.785,2.747,2.747,0,0,1,.918,2.207v3.664a4.041,4.041,0,0,0,.336,1.82V17ZM73.59,15.43a1.945,1.945,0,0,0,.922-.223,1.462,1.462,0,0,0,.625-.6V13.156h-.844q-1.7,0-1.8,1.172l-.008.133a.9.9,0,0,0,.3.7A1.153,1.153,0,0,0,73.59,15.43Zm9.063-.094a1.481,1.481,0,0,0,1.016-.344,1.2,1.2,0,0,0,.406-.914h2.117a2.9,2.9,0,0,1-.469,1.574,3.093,3.093,0,0,1-1.262,1.109,3.949,3.949,0,0,1-1.77.395A3.67,3.67,0,0,1,79.832,16a4.56,4.56,0,0,1-1.047-3.184v-.148a4.508,4.508,0,0,1,1.039-3.117,3.627,3.627,0,0,1,2.852-1.164,3.555,3.555,0,0,1,2.543.9,3.2,3.2,0,0,1,.973,2.4H84.074a1.539,1.539,0,0,0-.406-1.066,1.513,1.513,0,0,0-2.223.164,3.324,3.324,0,0,0-.4,1.863v.234a3.366,3.366,0,0,0,.4,1.875A1.378,1.378,0,0,0,82.652,15.336Zm7.531-8.867V8.547h1.445V10.2H90.184v4.219a1.007,1.007,0,0,0,.18.672.9.9,0,0,0,.688.2,3.6,3.6,0,0,0,.664-.055v1.711a4.648,4.648,0,0,1-1.367.2,2.156,2.156,0,0,1-2.422-2.4V10.2H86.691V8.547h1.234V6.469ZM92.3,12.7a5.013,5.013,0,0,1,.484-2.242A3.546,3.546,0,0,1,94.18,8.93a4.069,4.069,0,0,1,2.113-.539,3.849,3.849,0,0,1,2.793,1.047,4.2,4.2,0,0,1,1.207,2.844l.016.578a4.418,4.418,0,0,1-1.086,3.121,4.209,4.209,0,0,1-5.832,0A4.5,4.5,0,0,1,92.3,12.8Zm2.258.164a3.151,3.151,0,0,0,.453,1.84,1.629,1.629,0,0,0,2.578.008,3.448,3.448,0,0,0,.461-2.012,3.12,3.12,0,0,0-.461-1.828,1.5,1.5,0,0,0-1.3-.648,1.475,1.475,0,0,0-1.281.645A3.506,3.506,0,0,0,94.559,12.859Zm-74.516,25.8H15.934L15.152,41H12.66l4.234-11.375h2.172L23.324,41H20.832Zm-3.477-1.9H19.41L17.98,32.5Zm11.188,2.578a1.481,1.481,0,0,0,1.016-.344,1.2,1.2,0,0,0,.406-.914h2.117a2.9,2.9,0,0,1-.469,1.574,3.093,3.093,0,0,1-1.262,1.109,3.949,3.949,0,0,1-1.77.395A3.67,3.67,0,0,1,24.934,40a4.56,4.56,0,0,1-1.047-3.184v-.148a4.508,4.508,0,0,1,1.039-3.117,3.627,3.627,0,0,1,2.852-1.164,3.555,3.555,0,0,1,2.543.9,3.2,3.2,0,0,1,.973,2.4H29.176a1.539,1.539,0,0,0-.406-1.066,1.513,1.513,0,0,0-2.223.164,3.324,3.324,0,0,0-.4,1.863v.234a3.366,3.366,0,0,0,.4,1.875A1.378,1.378,0,0,0,27.754,39.336Zm8.344,0a1.481,1.481,0,0,0,1.016-.344,1.2,1.2,0,0,0,.406-.914h2.117a2.9,2.9,0,0,1-.469,1.574,3.093,3.093,0,0,1-1.262,1.109,3.949,3.949,0,0,1-1.77.395A3.67,3.67,0,0,1,33.277,40,4.56,4.56,0,0,1,32.23,36.82v-.148a4.508,4.508,0,0,1,1.039-3.117,3.627,3.627,0,0,1,2.852-1.164,3.555,3.555,0,0,1,2.543.9,3.2,3.2,0,0,1,.973,2.4H37.52a1.539,1.539,0,0,0-.406-1.066,1.513,1.513,0,0,0-2.223.164,3.324,3.324,0,0,0-.4,1.863v.234a3.366,3.366,0,0,0,.4,1.875A1.378,1.378,0,0,0,36.1,39.336ZM43.309,41H41.043V32.547h2.266Zm-2.4-10.641a1.112,1.112,0,0,1,.34-.836,1.465,1.465,0,0,1,1.848,0,1.193,1.193,0,0,1,0,1.68,1.448,1.448,0,0,1-1.836,0A1.108,1.108,0,0,1,40.91,30.359ZM44.816,36.7a5.013,5.013,0,0,1,.484-2.242A3.546,3.546,0,0,1,46.7,32.93a4.069,4.069,0,0,1,2.113-.539A3.849,3.849,0,0,1,51.6,33.438a4.2,4.2,0,0,1,1.207,2.844l.016.578a4.418,4.418,0,0,1-1.086,3.121,4.209,4.209,0,0,1-5.832,0,4.5,4.5,0,0,1-1.09-3.187Zm2.258.164a3.151,3.151,0,0,0,.453,1.84,1.629,1.629,0,0,0,2.578.008,3.448,3.448,0,0,0,.461-2.012,3.12,3.12,0,0,0-.461-1.828,1.5,1.5,0,0,0-1.3-.648,1.475,1.475,0,0,0-1.281.645A3.506,3.506,0,0,0,47.074,36.859ZM49.254,29h2.461l-2.164,2.422H47.715Zm7.039,3.547.07.977a2.951,2.951,0,0,1,2.43-1.133,2.453,2.453,0,0,1,2,.789,3.682,3.682,0,0,1,.672,2.359V41H59.207V35.594a1.465,1.465,0,0,0-.312-1.043,1.4,1.4,0,0,0-1.039-.324,1.553,1.553,0,0,0-1.43.813V41H54.168V32.547Zm7.594,9.43h-1.68l4.188-12.352h1.68ZM69.3,41V29.625h3.5a5.315,5.315,0,0,1,2.684.676,4.712,4.712,0,0,1,1.848,1.922A5.928,5.928,0,0,1,78,35.055v.523a5.945,5.945,0,0,1-.652,2.82,4.672,4.672,0,0,1-1.84,1.914,5.355,5.355,0,0,1-2.68.688Zm2.344-9.477v7.594h1.133a2.545,2.545,0,0,0,2.1-.9,4.06,4.06,0,0,0,.742-2.57v-.6a4.124,4.124,0,0,0-.719-2.629,2.537,2.537,0,0,0-2.1-.895Zm11.8,9.633a4.15,4.15,0,0,1-3.027-1.141,4.054,4.054,0,0,1-1.168-3.039v-.219a5.106,5.106,0,0,1,.492-2.277,3.612,3.612,0,0,1,1.395-1.547,3.914,3.914,0,0,1,2.059-.543,3.508,3.508,0,0,1,2.73,1.094,4.444,4.444,0,0,1,1,3.1v.922H81.535a2.1,2.1,0,0,0,.66,1.328,2,2,0,0,0,1.395.5,2.437,2.437,0,0,0,2.039-.945l1.109,1.242a3.389,3.389,0,0,1-1.375,1.121A4.511,4.511,0,0,1,83.441,41.156Zm-.258-6.937a1.414,1.414,0,0,0-1.09.453,2.341,2.341,0,0,0-.535,1.3H84.7v-.18a1.669,1.669,0,0,0-.406-1.16A1.459,1.459,0,0,0,83.184,34.219Zm8.531,5.117a1.481,1.481,0,0,0,1.016-.344,1.2,1.2,0,0,0,.406-.914h2.117a2.9,2.9,0,0,1-.469,1.574,3.093,3.093,0,0,1-1.262,1.109,3.949,3.949,0,0,1-1.77.395A3.67,3.67,0,0,1,88.895,40a4.56,4.56,0,0,1-1.047-3.184v-.148a4.508,4.508,0,0,1,1.039-3.117,3.627,3.627,0,0,1,2.852-1.164,3.555,3.555,0,0,1,2.543.9,3.2,3.2,0,0,1,.973,2.4H93.137a1.539,1.539,0,0,0-.406-1.066,1.513,1.513,0,0,0-2.223.164,3.324,3.324,0,0,0-.4,1.863v.234a3.366,3.366,0,0,0,.4,1.875A1.378,1.378,0,0,0,91.715,39.336ZM98.926,41H96.66V32.547h2.266Zm-2.4-10.641a1.112,1.112,0,0,1,.34-.836,1.465,1.465,0,0,1,1.848,0,1.193,1.193,0,0,1,0,1.68,1.448,1.448,0,0,1-1.836,0A1.108,1.108,0,0,1,96.527,30.359Zm8.836,8.3a.727.727,0,0,0-.41-.652,4.659,4.659,0,0,0-1.316-.426q-3.016-.633-3.016-2.562a2.323,2.323,0,0,1,.934-1.879A3.766,3.766,0,0,1,104,32.391a4.053,4.053,0,0,1,2.574.758,2.388,2.388,0,0,1,.965,1.969h-2.258a1.092,1.092,0,0,0-.312-.8,1.322,1.322,0,0,0-.977-.316,1.351,1.351,0,0,0-.883.258.814.814,0,0,0-.312.656.7.7,0,0,0,.355.605,3.657,3.657,0,0,0,1.2.4,9.8,9.8,0,0,1,1.422.379,2.336,2.336,0,0,1,1.789,2.273,2.2,2.2,0,0,1-.992,1.871,4.28,4.28,0,0,1-2.562.715,4.47,4.47,0,0,1-1.887-.379,3.166,3.166,0,0,1-1.293-1.039,2.414,2.414,0,0,1-.469-1.426H102.5a1.179,1.179,0,0,0,.445.922,1.766,1.766,0,0,0,1.109.32,1.635,1.635,0,0,0,.98-.246A.766.766,0,0,0,105.363,38.664ZM111.395,41h-2.266V32.547h2.266ZM109,30.359a1.112,1.112,0,0,1,.34-.836,1.465,1.465,0,0,1,1.848,0,1.193,1.193,0,0,1,0,1.68,1.448,1.448,0,0,1-1.836,0A1.108,1.108,0,0,1,109,30.359ZM112.9,36.7a5.013,5.013,0,0,1,.484-2.242,3.546,3.546,0,0,1,1.395-1.523,4.069,4.069,0,0,1,2.113-.539,3.849,3.849,0,0,1,2.793,1.047,4.2,4.2,0,0,1,1.207,2.844l.016.578a4.418,4.418,0,0,1-1.086,3.121,4.209,4.209,0,0,1-5.832,0A4.5,4.5,0,0,1,112.9,36.8Zm2.258.164a3.151,3.151,0,0,0,.453,1.84,1.629,1.629,0,0,0,2.578.008,3.448,3.448,0,0,0,.461-2.012,3.12,3.12,0,0,0-.461-1.828,1.5,1.5,0,0,0-1.3-.648,1.475,1.475,0,0,0-1.281.645A3.506,3.506,0,0,0,115.16,36.859ZM117.34,29H119.8l-2.164,2.422H115.8Zm7.039,3.547.07.977a2.951,2.951,0,0,1,2.43-1.133,2.453,2.453,0,0,1,2,.789,3.682,3.682,0,0,1,.672,2.359V41h-2.258V35.594a1.465,1.465,0,0,0-.312-1.043,1.4,1.4,0,0,0-1.039-.324,1.553,1.553,0,0,0-1.43.813V41h-2.258V32.547Z" transform="translate(1051.025 1367.104)" fill="#12263f"/>
    <path id="Trazado_881747" data-name="Trazado 881747" d="M10,0,20,17H0Z" transform="translate(605.733 1380.104) rotate(90)" fill="#083471"/>
    <path id="Trazado_881748" data-name="Trazado 881748" d="M0,0H28V5H0Z" transform="translate(563.233 1387.604)" fill="#083471"/>
    <path id="Trazado_881749" data-name="Trazado 881749" d="M10,0,20,17H0Z" transform="translate(821.992 1380.104) rotate(90)" fill="#083471"/>
    <path id="Trazado_881750" data-name="Trazado 881750" d="M0,0H28V5H0Z" transform="translate(779.492 1387.604)" fill="#083471"/>
    <path id="Trazado_881751" data-name="Trazado 881751" d="M10,0,20,17H0Z" transform="translate(1037.214 1380.104) rotate(90)" fill="#083471"/>
    <path id="Trazado_881752" data-name="Trazado 881752" d="M0,0H28V5H0Z" transform="translate(994.714 1387.604)" fill="#083471"/>
    <g id="Trazado_881753" data-name="Trazado 881753" transform="translate(390.025 1458.104)" fill="#ded5db">
      <path d="M 805 155.5 L 15 155.5 C 11.39400005340576 155.5 8.003889083862305 154.0957794189453 5.454111099243164 151.5458831787109 C 2.904222249984741 148.9961090087891 1.5 145.6060028076172 1.5 142 L 1.5 15 C 1.5 11.39400005340576 2.904222249984741 8.003889083862305 5.454111099243164 5.454111099243164 C 8.003889083862305 2.904222249984741 11.39400005340576 1.5 15 1.5 L 805 1.5 C 808.6060180664062 1.5 811.99609375 2.904222249984741 814.5460205078125 5.454111099243164 C 817.0957641601562 8.003889083862305 818.5 11.39400005340576 818.5 15 L 818.5 142 C 818.5 145.6060028076172 817.0957641601562 148.9961090087891 814.5460205078125 151.5458831787109 C 811.99609375 154.0957794189453 808.6060180664062 155.5 805 155.5 Z" stroke="none"/>
      <path d="M 15 3 C 11.794677734375 3 8.78125 4.248214721679688 6.5146484375 6.5147705078125 C 4.24822998046875 8.781219482421875 3 11.79466247558594 3 15 L 3 142 C 3 145.2053375244141 4.24822998046875 148.2187805175781 6.5146484375 150.4852294921875 C 8.78125 152.7517700195312 11.794677734375 154 15 154 L 805 154 C 808.205322265625 154 811.21875 152.7517700195312 813.4853515625 150.4852294921875 C 815.7517700195312 148.2187805175781 817 145.2053375244141 817 142 L 817 15 C 817 11.79466247558594 815.7517700195312 8.781219482421875 813.4853515625 6.5147705078125 C 811.21875 4.248214721679688 808.205322265625 3 805 3 L 15 3 M 15 0 L 805 0 C 813.2843627929688 0 820 6.715774536132812 820 15 L 820 142 C 820 150.2842254638672 813.2843627929688 157 805 157 L 15 157 C 6.71563720703125 157 0 150.2842254638672 0 142 L 0 15 C 0 6.715774536132812 6.71563720703125 0 15 0 Z" stroke="none" fill="#5e3552"/>
    </g>
    <path id="Trazado_881754" data-name="Trazado 881754" d="M26.152,14.18,28.73,5.625H31.34L27.379,17H24.934L20.988,5.625h2.6ZM34.645,17H32.379V8.547h2.266Zm-2.4-10.641a1.112,1.112,0,0,1,.34-.836,1.465,1.465,0,0,1,1.848,0,1.105,1.105,0,0,1,.344.836,1.108,1.108,0,0,1-.348.844,1.448,1.448,0,0,1-1.836,0A1.108,1.108,0,0,1,32.246,6.359Zm8.836,8.3a.727.727,0,0,0-.41-.652,4.659,4.659,0,0,0-1.316-.426q-3.016-.633-3.016-2.562a2.323,2.323,0,0,1,.934-1.879,3.766,3.766,0,0,1,2.441-.754,4.053,4.053,0,0,1,2.574.758,2.388,2.388,0,0,1,.965,1.969H41a1.092,1.092,0,0,0-.312-.8A1.322,1.322,0,0,0,39.707,10a1.351,1.351,0,0,0-.883.258.814.814,0,0,0-.312.656.7.7,0,0,0,.355.605,3.657,3.657,0,0,0,1.2.4,9.8,9.8,0,0,1,1.422.379,2.336,2.336,0,0,1,1.789,2.273,2.2,2.2,0,0,1-.992,1.871,4.28,4.28,0,0,1-2.562.715,4.47,4.47,0,0,1-1.887-.379,3.166,3.166,0,0,1-1.293-1.039,2.414,2.414,0,0,1-.469-1.426h2.141a1.179,1.179,0,0,0,.445.922,1.766,1.766,0,0,0,1.109.32,1.635,1.635,0,0,0,.98-.246A.766.766,0,0,0,41.082,14.664Zm8.711,1.477a2.831,2.831,0,0,1-2.312,1.016,2.67,2.67,0,0,1-2.074-.781,3.335,3.335,0,0,1-.73-2.289V8.547h2.258v5.461q0,1.32,1.2,1.32a1.631,1.631,0,0,0,1.578-.8V8.547H51.98V17H49.855ZM58.582,17a2.507,2.507,0,0,1-.227-.758,2.732,2.732,0,0,1-2.133.914,3,3,0,0,1-2.059-.719,2.312,2.312,0,0,1-.816-1.812,2.389,2.389,0,0,1,1-2.062,4.915,4.915,0,0,1,2.879-.727h1.039v-.484a1.393,1.393,0,0,0-.3-.937,1.183,1.183,0,0,0-.949-.352,1.345,1.345,0,0,0-.895.273.929.929,0,0,0-.324.75H53.535a2.268,2.268,0,0,1,.453-1.359,3,3,0,0,1,1.281-.98,4.669,4.669,0,0,1,1.859-.355,3.689,3.689,0,0,1,2.48.785,2.747,2.747,0,0,1,.918,2.207v3.664a4.041,4.041,0,0,0,.336,1.82V17Zm-1.867-1.57a1.945,1.945,0,0,0,.922-.223,1.462,1.462,0,0,0,.625-.6V13.156h-.844q-1.7,0-1.8,1.172l-.008.133a.9.9,0,0,0,.3.7A1.153,1.153,0,0,0,56.715,15.43ZM64.645,17H62.379V5h2.266Zm4.242,0H66.621V8.547h2.266Zm-2.4-10.641a1.112,1.112,0,0,1,.34-.836,1.465,1.465,0,0,1,1.848,0,1.105,1.105,0,0,1,.344.836,1.108,1.108,0,0,1-.348.844,1.448,1.448,0,0,1-1.836,0A1.108,1.108,0,0,1,66.488,6.359Zm6.852,8.82h4.133V17H70.457V15.625l3.977-5.25H70.574V8.547h6.773V9.883ZM83.785,17a2.507,2.507,0,0,1-.227-.758,2.732,2.732,0,0,1-2.133.914,3,3,0,0,1-2.059-.719,2.312,2.312,0,0,1-.816-1.812,2.389,2.389,0,0,1,1-2.062,4.915,4.915,0,0,1,2.879-.727h1.039v-.484a1.393,1.393,0,0,0-.3-.937,1.183,1.183,0,0,0-.949-.352,1.345,1.345,0,0,0-.895.273.929.929,0,0,0-.324.75H78.738a2.268,2.268,0,0,1,.453-1.359,3,3,0,0,1,1.281-.98,4.669,4.669,0,0,1,1.859-.355,3.689,3.689,0,0,1,2.48.785,2.747,2.747,0,0,1,.918,2.207v3.664a4.041,4.041,0,0,0,.336,1.82V17Zm-1.867-1.57a1.945,1.945,0,0,0,.922-.223,1.462,1.462,0,0,0,.625-.6V13.156h-.844q-1.7,0-1.8,1.172l-.008.133a.9.9,0,0,0,.3.7A1.153,1.153,0,0,0,81.918,15.43Zm9.063-.094A1.481,1.481,0,0,0,92,14.992a1.2,1.2,0,0,0,.406-.914H94.52a2.9,2.9,0,0,1-.469,1.574,3.093,3.093,0,0,1-1.262,1.109,3.949,3.949,0,0,1-1.77.395A3.67,3.67,0,0,1,88.16,16a4.56,4.56,0,0,1-1.047-3.184v-.148a4.508,4.508,0,0,1,1.039-3.117A3.627,3.627,0,0,1,91,8.391a3.555,3.555,0,0,1,2.543.9,3.2,3.2,0,0,1,.973,2.4H92.4A1.539,1.539,0,0,0,92,10.629a1.513,1.513,0,0,0-2.223.164,3.324,3.324,0,0,0-.4,1.863v.234a3.366,3.366,0,0,0,.4,1.875A1.378,1.378,0,0,0,90.98,15.336ZM98.191,17H95.926V8.547h2.266Zm-2.4-10.641a1.112,1.112,0,0,1,.34-.836,1.465,1.465,0,0,1,1.848,0,1.105,1.105,0,0,1,.344.836,1.108,1.108,0,0,1-.348.844,1.448,1.448,0,0,1-1.836,0A1.108,1.108,0,0,1,95.793,6.359ZM99.7,12.7a5.013,5.013,0,0,1,.484-2.242,3.546,3.546,0,0,1,1.395-1.523,4.069,4.069,0,0,1,2.113-.539,3.849,3.849,0,0,1,2.793,1.047,4.2,4.2,0,0,1,1.207,2.844l.016.578a4.418,4.418,0,0,1-1.086,3.121,4.209,4.209,0,0,1-5.832,0A4.5,4.5,0,0,1,99.7,12.8Zm2.258.164a3.151,3.151,0,0,0,.453,1.84,1.629,1.629,0,0,0,2.578.008,3.448,3.448,0,0,0,.461-2.012,3.12,3.12,0,0,0-.461-1.828,1.5,1.5,0,0,0-1.3-.648,1.475,1.475,0,0,0-1.281.645A3.506,3.506,0,0,0,101.957,12.859Zm9.219-4.312.07.977a2.951,2.951,0,0,1,2.43-1.133,2.453,2.453,0,0,1,2,.789,3.682,3.682,0,0,1,.672,2.359V17H114.09V11.594a1.465,1.465,0,0,0-.312-1.043,1.4,1.4,0,0,0-1.039-.324,1.553,1.553,0,0,0-1.43.813V17h-2.258V8.547Zm10.773,8.609a4.15,4.15,0,0,1-3.027-1.141,4.054,4.054,0,0,1-1.168-3.039v-.219a5.106,5.106,0,0,1,.492-2.277,3.612,3.612,0,0,1,1.395-1.547,3.914,3.914,0,0,1,2.059-.543,3.508,3.508,0,0,1,2.73,1.094,4.444,4.444,0,0,1,1,3.1v.922h-5.383a2.1,2.1,0,0,0,.66,1.328,2,2,0,0,0,1.395.5,2.437,2.437,0,0,0,2.039-.945l1.109,1.242a3.389,3.389,0,0,1-1.375,1.121A4.511,4.511,0,0,1,121.949,17.156Zm-.258-6.937a1.414,1.414,0,0,0-1.09.453,2.341,2.341,0,0,0-.535,1.3h3.141v-.18a1.669,1.669,0,0,0-.406-1.16A1.459,1.459,0,0,0,121.691,10.219Zm9.594,4.445a.727.727,0,0,0-.41-.652,4.659,4.659,0,0,0-1.316-.426q-3.016-.633-3.016-2.562a2.323,2.323,0,0,1,.934-1.879,3.766,3.766,0,0,1,2.441-.754,4.053,4.053,0,0,1,2.574.758,2.388,2.388,0,0,1,.965,1.969H131.2a1.092,1.092,0,0,0-.312-.8A1.322,1.322,0,0,0,129.91,10a1.351,1.351,0,0,0-.883.258.814.814,0,0,0-.312.656.7.7,0,0,0,.355.605,3.657,3.657,0,0,0,1.2.4,9.8,9.8,0,0,1,1.422.379,2.336,2.336,0,0,1,1.789,2.273,2.205,2.205,0,0,1-.992,1.871,4.28,4.28,0,0,1-2.562.715,4.47,4.47,0,0,1-1.887-.379,3.166,3.166,0,0,1-1.293-1.039,2.414,2.414,0,0,1-.469-1.426h2.141a1.179,1.179,0,0,0,.445.922,1.766,1.766,0,0,0,1.109.32,1.635,1.635,0,0,0,.98-.246A.766.766,0,0,0,131.285,14.664Z" transform="translate(455.025 1522.104)" fill="#12263f"/>
    <path id="Trazado_881755" data-name="Trazado 881755" d="M14.535,12.07h-4.5v3.047h5.281V17H7.691V5.625H15.3v1.9H10.035v2.711h4.5ZM18.926,17H16.66V5h2.266Zm5.75.156a4.15,4.15,0,0,1-3.027-1.141,4.054,4.054,0,0,1-1.168-3.039v-.219a5.106,5.106,0,0,1,.492-2.277,3.612,3.612,0,0,1,1.395-1.547,3.914,3.914,0,0,1,2.059-.543,3.508,3.508,0,0,1,2.73,1.094,4.444,4.444,0,0,1,1,3.1v.922H22.77a2.1,2.1,0,0,0,.66,1.328,2,2,0,0,0,1.395.5,2.437,2.437,0,0,0,2.039-.945l1.109,1.242A3.389,3.389,0,0,1,26.6,16.754,4.511,4.511,0,0,1,24.676,17.156Zm-.258-6.937a1.414,1.414,0,0,0-1.09.453,2.341,2.341,0,0,0-.535,1.3h3.141v-.18a1.669,1.669,0,0,0-.406-1.16A1.459,1.459,0,0,0,24.418,10.219Zm7.133-1.672.07.945a2.971,2.971,0,0,1,2.43-1.1A2.255,2.255,0,0,1,36.293,9.68a2.9,2.9,0,0,1,2.539-1.289,2.521,2.521,0,0,1,2.047.8,3.681,3.681,0,0,1,.672,2.41V17H39.285V11.609A1.61,1.61,0,0,0,39,10.559a1.246,1.246,0,0,0-.992-.332,1.409,1.409,0,0,0-1.406.969l.008,5.8H34.355V11.617a1.59,1.59,0,0,0-.289-1.062,1.259,1.259,0,0,0-.984-.328,1.463,1.463,0,0,0-1.391.8V17H29.434V8.547Zm15.625,8.609a4.15,4.15,0,0,1-3.027-1.141,4.054,4.054,0,0,1-1.168-3.039v-.219a5.106,5.106,0,0,1,.492-2.277,3.612,3.612,0,0,1,1.395-1.547,3.914,3.914,0,0,1,2.059-.543,3.508,3.508,0,0,1,2.73,1.094,4.444,4.444,0,0,1,1,3.1v.922H45.27a2.1,2.1,0,0,0,.66,1.328,2,2,0,0,0,1.395.5,2.437,2.437,0,0,0,2.039-.945l1.109,1.242A3.389,3.389,0,0,1,49.1,16.754,4.511,4.511,0,0,1,47.176,17.156Zm-.258-6.937a1.414,1.414,0,0,0-1.09.453,2.341,2.341,0,0,0-.535,1.3h3.141v-.18a1.669,1.669,0,0,0-.406-1.16A1.459,1.459,0,0,0,46.918,10.219Zm7.094-1.672.07.977a2.951,2.951,0,0,1,2.43-1.133,2.453,2.453,0,0,1,2,.789,3.682,3.682,0,0,1,.672,2.359V17H56.926V11.594a1.465,1.465,0,0,0-.312-1.043,1.4,1.4,0,0,0-1.039-.324,1.553,1.553,0,0,0-1.43.813V17H51.887V8.547ZM63.6,6.469V8.547h1.445V10.2H63.6v4.219a1.007,1.007,0,0,0,.18.672.9.9,0,0,0,.688.2,3.6,3.6,0,0,0,.664-.055v1.711a4.648,4.648,0,0,1-1.367.2,2.156,2.156,0,0,1-2.422-2.4V10.2H60.105V8.547H61.34V6.469ZM65.715,12.7a5.013,5.013,0,0,1,.484-2.242A3.546,3.546,0,0,1,67.594,8.93a4.069,4.069,0,0,1,2.113-.539A3.849,3.849,0,0,1,72.5,9.438a4.2,4.2,0,0,1,1.207,2.844l.016.578a4.418,4.418,0,0,1-1.086,3.121,4.209,4.209,0,0,1-5.832,0,4.5,4.5,0,0,1-1.09-3.187Zm2.258.164a3.151,3.151,0,0,0,.453,1.84A1.629,1.629,0,0,0,71,14.707a3.448,3.448,0,0,0,.461-2.012A3.12,3.12,0,0,0,71,10.867a1.5,1.5,0,0,0-1.3-.648,1.475,1.475,0,0,0-1.281.645A3.506,3.506,0,0,0,67.973,12.859Zm11.719,1.8a.727.727,0,0,0-.41-.652,4.659,4.659,0,0,0-1.316-.426q-3.016-.633-3.016-2.562a2.323,2.323,0,0,1,.934-1.879,3.766,3.766,0,0,1,2.441-.754,4.053,4.053,0,0,1,2.574.758,2.388,2.388,0,0,1,.965,1.969H79.605a1.092,1.092,0,0,0-.312-.8A1.322,1.322,0,0,0,78.316,10a1.351,1.351,0,0,0-.883.258.814.814,0,0,0-.312.656.7.7,0,0,0,.355.605,3.657,3.657,0,0,0,1.2.4A9.8,9.8,0,0,1,80.1,12.3a2.336,2.336,0,0,1,1.789,2.273,2.2,2.2,0,0,1-.992,1.871,4.28,4.28,0,0,1-2.562.715,4.47,4.47,0,0,1-1.887-.379,3.166,3.166,0,0,1-1.293-1.039,2.414,2.414,0,0,1-.469-1.426h2.141a1.179,1.179,0,0,0,.445.922,1.766,1.766,0,0,0,1.109.32,1.635,1.635,0,0,0,.98-.246A.766.766,0,0,0,79.691,14.664Zm7.281-1.953a5.094,5.094,0,0,1,.887-3.148,2.877,2.877,0,0,1,2.426-1.172,2.589,2.589,0,0,1,2.039.922V5H94.59V17H92.551l-.109-.9a2.657,2.657,0,0,1-2.172,1.055,2.869,2.869,0,0,1-2.395-1.176A5.258,5.258,0,0,1,86.973,12.711Zm2.258.164a3.328,3.328,0,0,0,.414,1.82,1.349,1.349,0,0,0,1.2.633,1.511,1.511,0,0,0,1.477-.883V11.109a1.489,1.489,0,0,0-1.461-.883Q89.23,10.227,89.23,12.875Zm11,4.281A4.15,4.15,0,0,1,97.2,16.016a4.054,4.054,0,0,1-1.168-3.039v-.219a5.106,5.106,0,0,1,.492-2.277,3.612,3.612,0,0,1,1.395-1.547,3.914,3.914,0,0,1,2.059-.543,3.508,3.508,0,0,1,2.73,1.094,4.444,4.444,0,0,1,1,3.1v.922H98.324a2.1,2.1,0,0,0,.66,1.328,2,2,0,0,0,1.395.5,2.437,2.437,0,0,0,2.039-.945l1.109,1.242a3.389,3.389,0,0,1-1.375,1.121A4.511,4.511,0,0,1,100.23,17.156Zm-.258-6.937a1.414,1.414,0,0,0-1.09.453,2.341,2.341,0,0,0-.535,1.3h3.141v-.18a1.669,1.669,0,0,0-.406-1.16A1.459,1.459,0,0,0,99.973,10.219Zm15.047,3.8a1.2,1.2,0,0,0-.469-1.02,6.148,6.148,0,0,0-1.687-.75,11.963,11.963,0,0,1-1.93-.777A3.153,3.153,0,0,1,109,8.648,2.747,2.747,0,0,1,109.516,7a3.389,3.389,0,0,1,1.492-1.129,5.616,5.616,0,0,1,2.184-.406,5.112,5.112,0,0,1,2.172.441,3.458,3.458,0,0,1,1.48,1.246,3.261,3.261,0,0,1,.527,1.828h-2.344a1.534,1.534,0,0,0-.492-1.215,2.023,2.023,0,0,0-1.383-.434,2.162,2.162,0,0,0-1.336.363,1.146,1.146,0,0,0-.477.957,1.1,1.1,0,0,0,.559.93,6.311,6.311,0,0,0,1.645.7,7.106,7.106,0,0,1,2.914,1.492A2.972,2.972,0,0,1,117.371,14a2.737,2.737,0,0,1-1.117,2.316,4.891,4.891,0,0,1-3.008.84,5.808,5.808,0,0,1-2.391-.48,3.783,3.783,0,0,1-1.645-1.316,3.371,3.371,0,0,1-.566-1.937H111q0,1.883,2.25,1.883a2.189,2.189,0,0,0,1.3-.34A1.106,1.106,0,0,0,115.02,14.016Zm3.438-1.32a5.013,5.013,0,0,1,.484-2.242,3.546,3.546,0,0,1,1.395-1.523,4.069,4.069,0,0,1,2.113-.539,3.849,3.849,0,0,1,2.793,1.047,4.2,4.2,0,0,1,1.207,2.844l.016.578a4.418,4.418,0,0,1-1.086,3.121,4.209,4.209,0,0,1-5.832,0,4.5,4.5,0,0,1-1.09-3.187Zm2.258.164a3.151,3.151,0,0,0,.453,1.84,1.629,1.629,0,0,0,2.578.008,3.448,3.448,0,0,0,.461-2.012,3.12,3.12,0,0,0-.461-1.828,1.5,1.5,0,0,0-1.3-.648,1.475,1.475,0,0,0-1.281.645A3.506,3.506,0,0,0,120.715,12.859Zm14.75-.008a5.07,5.07,0,0,1-.887,3.129,2.843,2.843,0,0,1-2.395,1.176,2.633,2.633,0,0,1-2.07-.891V20.25h-2.258V8.547h2.094l.078.828a2.654,2.654,0,0,1,2.141-.984,2.862,2.862,0,0,1,2.43,1.156,5.207,5.207,0,0,1,.867,3.188Zm-2.258-.164a3.327,3.327,0,0,0-.418-1.82,1.361,1.361,0,0,0-1.215-.641,1.479,1.479,0,0,0-1.461.813V14.5a1.5,1.5,0,0,0,1.477.836Q133.207,15.336,133.207,12.688Zm3.3.008A5.013,5.013,0,0,1,137,10.453a3.546,3.546,0,0,1,1.395-1.523,4.069,4.069,0,0,1,2.113-.539A3.849,3.849,0,0,1,143.3,9.438a4.2,4.2,0,0,1,1.207,2.844l.016.578a4.418,4.418,0,0,1-1.086,3.121,4.209,4.209,0,0,1-5.832,0,4.5,4.5,0,0,1-1.09-3.187Zm2.258.164a3.151,3.151,0,0,0,.453,1.84,1.629,1.629,0,0,0,2.578.008,3.448,3.448,0,0,0,.461-2.012,3.12,3.12,0,0,0-.461-1.828,1.5,1.5,0,0,0-1.3-.648,1.475,1.475,0,0,0-1.281.645A3.506,3.506,0,0,0,138.77,12.859Zm11.891-2.2a6.134,6.134,0,0,0-.812-.062,1.654,1.654,0,0,0-1.68.867V17H145.91V8.547h2.133l.063,1.008a2.092,2.092,0,0,1,1.883-1.164,2.366,2.366,0,0,1,.7.1Zm4.18-4.2V8.547h1.445V10.2H154.84v4.219a1.007,1.007,0,0,0,.18.672.9.9,0,0,0,.688.2,3.6,3.6,0,0,0,.664-.055v1.711a4.648,4.648,0,0,1-1.367.2,2.156,2.156,0,0,1-2.422-2.4V10.2h-1.234V8.547h1.234V6.469Zm6.594,10.688a4.15,4.15,0,0,1-3.027-1.141,4.054,4.054,0,0,1-1.168-3.039v-.219a5.106,5.106,0,0,1,.492-2.277,3.612,3.612,0,0,1,1.395-1.547,3.914,3.914,0,0,1,2.059-.543,3.508,3.508,0,0,1,2.73,1.094,4.444,4.444,0,0,1,1,3.1v.922h-5.383a2.1,2.1,0,0,0,.66,1.328,2,2,0,0,0,1.395.5,2.437,2.437,0,0,0,2.039-.945l1.109,1.242a3.389,3.389,0,0,1-1.375,1.121A4.511,4.511,0,0,1,161.434,17.156Zm-.258-6.937a1.414,1.414,0,0,0-1.09.453,2.341,2.341,0,0,0-.535,1.3h3.141v-.18a1.669,1.669,0,0,0-.406-1.16A1.459,1.459,0,0,0,161.176,10.219Z" transform="translate(714.025 1492.104)" fill="#12263f"/>
    <path id="Trazado_881756" data-name="Trazado 881756" d="M36.484,5.625l2.922,8.25,2.906-8.25h3.078V17H43.039V13.891l.234-5.367L40.2,17H38.594L35.531,8.531l.234,5.359V17H33.422V5.625Zm14.7,11.531a4.15,4.15,0,0,1-3.027-1.141,4.054,4.054,0,0,1-1.168-3.039v-.219a5.106,5.106,0,0,1,.492-2.277,3.612,3.612,0,0,1,1.395-1.547,3.914,3.914,0,0,1,2.059-.543,3.508,3.508,0,0,1,2.73,1.094,4.444,4.444,0,0,1,1,3.1v.922H49.273a2.1,2.1,0,0,0,.66,1.328,2,2,0,0,0,1.395.5,2.437,2.437,0,0,0,2.039-.945l1.109,1.242A3.389,3.389,0,0,1,53.1,16.754,4.511,4.511,0,0,1,51.18,17.156Zm-.258-6.937a1.414,1.414,0,0,0-1.09.453,2.341,2.341,0,0,0-.535,1.3h3.141v-.18a1.669,1.669,0,0,0-.406-1.16A1.459,1.459,0,0,0,50.922,10.219ZM51.125,5h2.461L51.422,7.422H49.586Zm7.516,1.469V8.547h1.445V10.2H58.641v4.219a1.007,1.007,0,0,0,.18.672.9.9,0,0,0,.688.2,3.6,3.6,0,0,0,.664-.055v1.711a4.648,4.648,0,0,1-1.367.2,2.156,2.156,0,0,1-2.422-2.4V10.2H55.148V8.547h1.234V6.469Zm7.453,4.2a6.134,6.134,0,0,0-.812-.062,1.654,1.654,0,0,0-1.68.867V17H61.344V8.547h2.133l.063,1.008a2.092,2.092,0,0,1,1.883-1.164,2.366,2.366,0,0,1,.7.1ZM69.563,17H67.3V8.547h2.266Zm-2.4-10.641a1.112,1.112,0,0,1,.34-.836,1.465,1.465,0,0,1,1.848,0,1.105,1.105,0,0,1,.344.836,1.108,1.108,0,0,1-.348.844,1.448,1.448,0,0,1-1.836,0A1.108,1.108,0,0,1,67.164,6.359Zm7.773,8.977a1.481,1.481,0,0,0,1.016-.344,1.2,1.2,0,0,0,.406-.914h2.117a2.9,2.9,0,0,1-.469,1.574,3.093,3.093,0,0,1-1.262,1.109,3.949,3.949,0,0,1-1.77.395A3.67,3.67,0,0,1,72.117,16,4.56,4.56,0,0,1,71.07,12.82v-.148a4.508,4.508,0,0,1,1.039-3.117,3.627,3.627,0,0,1,2.852-1.164,3.555,3.555,0,0,1,2.543.9,3.2,3.2,0,0,1,.973,2.4H76.359a1.539,1.539,0,0,0-.406-1.066,1.513,1.513,0,0,0-2.223.164,3.324,3.324,0,0,0-.4,1.863v.234a3.366,3.366,0,0,0,.4,1.875A1.378,1.378,0,0,0,74.938,15.336ZM84.664,17a2.507,2.507,0,0,1-.227-.758,2.732,2.732,0,0,1-2.133.914,3,3,0,0,1-2.059-.719,2.312,2.312,0,0,1-.816-1.812,2.389,2.389,0,0,1,1-2.062,4.915,4.915,0,0,1,2.879-.727h1.039v-.484a1.393,1.393,0,0,0-.3-.937,1.183,1.183,0,0,0-.949-.352,1.345,1.345,0,0,0-.895.273.929.929,0,0,0-.324.75H79.617a2.268,2.268,0,0,1,.453-1.359,3,3,0,0,1,1.281-.98,4.669,4.669,0,0,1,1.859-.355,3.689,3.689,0,0,1,2.48.785,2.747,2.747,0,0,1,.918,2.207v3.664a4.041,4.041,0,0,0,.336,1.82V17ZM82.8,15.43a1.945,1.945,0,0,0,.922-.223,1.462,1.462,0,0,0,.625-.6V13.156H83.5q-1.7,0-1.8,1.172l-.008.133a.9.9,0,0,0,.3.7A1.153,1.153,0,0,0,82.8,15.43Zm10.125-.766a.727.727,0,0,0-.41-.652,4.659,4.659,0,0,0-1.316-.426q-3.016-.633-3.016-2.562a2.323,2.323,0,0,1,.934-1.879,3.766,3.766,0,0,1,2.441-.754,4.053,4.053,0,0,1,2.574.758,2.388,2.388,0,0,1,.965,1.969H92.836a1.092,1.092,0,0,0-.312-.8A1.322,1.322,0,0,0,91.547,10a1.351,1.351,0,0,0-.883.258.814.814,0,0,0-.312.656.7.7,0,0,0,.355.605,3.657,3.657,0,0,0,1.2.4,9.8,9.8,0,0,1,1.422.379,2.336,2.336,0,0,1,1.789,2.273,2.2,2.2,0,0,1-.992,1.871,4.28,4.28,0,0,1-2.562.715,4.47,4.47,0,0,1-1.887-.379,3.166,3.166,0,0,1-1.293-1.039,2.414,2.414,0,0,1-.469-1.426h2.141a1.179,1.179,0,0,0,.445.922,1.766,1.766,0,0,0,1.109.32,1.635,1.635,0,0,0,.98-.246A.766.766,0,0,0,92.922,14.664Zm16.711-1.453a4.025,4.025,0,0,1-1.355,2.891,4.76,4.76,0,0,1-3.223,1.055,4.28,4.28,0,0,1-3.441-1.473,6.038,6.038,0,0,1-1.254-4.043v-.7a6.819,6.819,0,0,1,.578-2.891,4.332,4.332,0,0,1,1.652-1.918,5.164,5.164,0,0,1,5.668.387,4.326,4.326,0,0,1,1.391,2.961H107.3a2.376,2.376,0,0,0-.613-1.6,2.271,2.271,0,0,0-1.605-.5,1.991,1.991,0,0,0-1.754.84,4.707,4.707,0,0,0-.6,2.605V11.7a5.038,5.038,0,0,0,.559,2.7,1.954,1.954,0,0,0,1.762.852,2.314,2.314,0,0,0,1.621-.5,2.241,2.241,0,0,0,.613-1.535ZM113.406,17h-2.266V5h2.266Zm6.758,0a2.507,2.507,0,0,1-.227-.758,2.732,2.732,0,0,1-2.133.914,3,3,0,0,1-2.059-.719,2.312,2.312,0,0,1-.816-1.812,2.389,2.389,0,0,1,1-2.062,4.915,4.915,0,0,1,2.879-.727h1.039v-.484a1.393,1.393,0,0,0-.3-.937,1.183,1.183,0,0,0-.949-.352,1.345,1.345,0,0,0-.895.273.929.929,0,0,0-.324.75h-2.258a2.268,2.268,0,0,1,.453-1.359,3,3,0,0,1,1.281-.98,4.669,4.669,0,0,1,1.859-.355,3.689,3.689,0,0,1,2.48.785,2.747,2.747,0,0,1,.918,2.207v3.664a4.041,4.041,0,0,0,.336,1.82V17ZM118.3,15.43a1.945,1.945,0,0,0,.922-.223,1.462,1.462,0,0,0,.625-.6V13.156H119q-1.7,0-1.8,1.172l-.008.133a.9.9,0,0,0,.3.7A1.153,1.153,0,0,0,118.3,15.43Zm8.594-1.187,1.57-5.7h2.359L127.969,17h-2.156l-2.852-8.453h2.359Zm8.813,2.914a4.15,4.15,0,0,1-3.027-1.141,4.054,4.054,0,0,1-1.168-3.039v-.219A5.106,5.106,0,0,1,132,10.48a3.612,3.612,0,0,1,1.395-1.547,3.914,3.914,0,0,1,2.059-.543,3.508,3.508,0,0,1,2.73,1.094,4.444,4.444,0,0,1,1,3.1v.922H133.8a2.1,2.1,0,0,0,.66,1.328,2,2,0,0,0,1.395.5,2.437,2.437,0,0,0,2.039-.945L139,15.633a3.389,3.389,0,0,1-1.375,1.121A4.511,4.511,0,0,1,135.7,17.156Zm-.258-6.937a1.414,1.414,0,0,0-1.09.453,2.341,2.341,0,0,0-.535,1.3h3.141v-.18a1.669,1.669,0,0,0-.406-1.16A1.459,1.459,0,0,0,135.445,10.219Z" transform="translate(714.025 1564.104)" fill="#12263f"/>
    <path id="Trazado_881757" data-name="Trazado 881757" d="M18.211,17H15.867V12.125H11.3V17H8.953V5.625H11.3v4.609h4.57V5.625h2.344Zm6.8,0a2.507,2.507,0,0,1-.227-.758,2.732,2.732,0,0,1-2.133.914,3,3,0,0,1-2.059-.719,2.312,2.312,0,0,1-.816-1.812,2.389,2.389,0,0,1,1-2.062,4.915,4.915,0,0,1,2.879-.727h1.039v-.484a1.393,1.393,0,0,0-.3-.937,1.183,1.183,0,0,0-.949-.352,1.345,1.345,0,0,0-.895.273.929.929,0,0,0-.324.75H19.961a2.268,2.268,0,0,1,.453-1.359,3,3,0,0,1,1.281-.98,4.669,4.669,0,0,1,1.859-.355,3.689,3.689,0,0,1,2.48.785,2.747,2.747,0,0,1,.918,2.207v3.664a4.041,4.041,0,0,0,.336,1.82V17Zm-1.867-1.57a1.945,1.945,0,0,0,.922-.223,1.462,1.462,0,0,0,.625-.6V13.156h-.844q-1.7,0-1.8,1.172l-.008.133a.9.9,0,0,0,.3.7A1.153,1.153,0,0,0,23.141,15.43ZM31.07,17H28.8V5H31.07Zm4.242,0H33.047V5h2.266Zm6.758,0a2.507,2.507,0,0,1-.227-.758,2.732,2.732,0,0,1-2.133.914,3,3,0,0,1-2.059-.719,2.312,2.312,0,0,1-.816-1.812,2.389,2.389,0,0,1,1-2.062,4.915,4.915,0,0,1,2.879-.727H41.75v-.484a1.393,1.393,0,0,0-.3-.937,1.183,1.183,0,0,0-.949-.352,1.345,1.345,0,0,0-.895.273.929.929,0,0,0-.324.75H37.023a2.268,2.268,0,0,1,.453-1.359,3,3,0,0,1,1.281-.98,4.669,4.669,0,0,1,1.859-.355,3.689,3.689,0,0,1,2.48.785,2.747,2.747,0,0,1,.918,2.207v3.664a4.041,4.041,0,0,0,.336,1.82V17ZM40.2,15.43a1.945,1.945,0,0,0,.922-.223,1.462,1.462,0,0,0,.625-.6V13.156h-.844q-1.7,0-1.8,1.172l-.008.133a.9.9,0,0,0,.3.7A1.153,1.153,0,0,0,40.2,15.43Zm8.141-.25h4.133V17H45.461V15.625l3.977-5.25H45.578V8.547h6.773V9.883Zm5.219-2.469a4.954,4.954,0,0,1,.926-3.133,3,3,0,0,1,2.5-1.187,2.631,2.631,0,0,1,2.164.953l.094-.8h2.047v8.172a3.613,3.613,0,0,1-.5,1.93,3.236,3.236,0,0,1-1.418,1.25,4.985,4.985,0,0,1-2.141.43,4.635,4.635,0,0,1-1.812-.371A3.217,3.217,0,0,1,54.078,19l1-1.375a2.645,2.645,0,0,0,2.047.945,1.936,1.936,0,0,0,1.4-.48,1.8,1.8,0,0,0,.5-1.363v-.453a2.612,2.612,0,0,1-2.055.883A2.992,2.992,0,0,1,54.5,15.965a4.953,4.953,0,0,1-.941-3.16Zm2.258.164a3.076,3.076,0,0,0,.461,1.8,1.467,1.467,0,0,0,1.266.652,1.568,1.568,0,0,0,1.477-.773V11a1.565,1.565,0,0,0-1.461-.773,1.476,1.476,0,0,0-1.277.664A3.467,3.467,0,0,0,55.82,12.875Zm6.852-.18a5.013,5.013,0,0,1,.484-2.242A3.546,3.546,0,0,1,64.551,8.93a4.069,4.069,0,0,1,2.113-.539,3.849,3.849,0,0,1,2.793,1.047,4.2,4.2,0,0,1,1.207,2.844l.016.578a4.418,4.418,0,0,1-1.086,3.121,4.209,4.209,0,0,1-5.832,0,4.5,4.5,0,0,1-1.09-3.187Zm2.258.164a3.151,3.151,0,0,0,.453,1.84,1.629,1.629,0,0,0,2.578.008,3.448,3.448,0,0,0,.461-2.012,3.12,3.12,0,0,0-.461-1.828,1.5,1.5,0,0,0-1.3-.648,1.475,1.475,0,0,0-1.281.645A3.506,3.506,0,0,0,64.93,12.859Zm11.719,1.8a.727.727,0,0,0-.41-.652,4.659,4.659,0,0,0-1.316-.426q-3.016-.633-3.016-2.562a2.323,2.323,0,0,1,.934-1.879,3.766,3.766,0,0,1,2.441-.754,4.053,4.053,0,0,1,2.574.758,2.388,2.388,0,0,1,.965,1.969H76.563a1.092,1.092,0,0,0-.312-.8A1.322,1.322,0,0,0,75.273,10a1.351,1.351,0,0,0-.883.258.814.814,0,0,0-.312.656.7.7,0,0,0,.355.605,3.657,3.657,0,0,0,1.2.4,9.8,9.8,0,0,1,1.422.379,2.336,2.336,0,0,1,1.789,2.273,2.2,2.2,0,0,1-.992,1.871,4.28,4.28,0,0,1-2.562.715,4.47,4.47,0,0,1-1.887-.379,3.166,3.166,0,0,1-1.293-1.039,2.414,2.414,0,0,1-.469-1.426h2.141a1.179,1.179,0,0,0,.445.922,1.766,1.766,0,0,0,1.109.32,1.635,1.635,0,0,0,.98-.246A.766.766,0,0,0,76.648,14.664Zm10.125-1.672V17H84.43V5.625h4.438a5.134,5.134,0,0,1,2.254.469,3.454,3.454,0,0,1,1.5,1.332,3.714,3.714,0,0,1,.523,1.965A3.266,3.266,0,0,1,92,12.027a4.767,4.767,0,0,1-3.168.965Zm0-1.9h2.094a2.059,2.059,0,0,0,1.418-.437,1.591,1.591,0,0,0,.488-1.25,1.876,1.876,0,0,0-.492-1.352,1.839,1.839,0,0,0-1.359-.531H86.773Zm12.578-.43a6.134,6.134,0,0,0-.812-.062,1.654,1.654,0,0,0-1.68.867V17H94.6V8.547h2.133L96.8,9.555A2.092,2.092,0,0,1,98.68,8.391a2.366,2.366,0,0,1,.7.1ZM102.82,17h-2.266V8.547h2.266Zm-2.4-10.641a1.112,1.112,0,0,1,.34-.836,1.465,1.465,0,0,1,1.848,0,1.105,1.105,0,0,1,.344.836,1.108,1.108,0,0,1-.348.844,1.448,1.448,0,0,1-1.836,0A1.108,1.108,0,0,1,100.422,6.359Zm6.336,2.188.07.977a2.951,2.951,0,0,1,2.43-1.133,2.453,2.453,0,0,1,2,.789,3.682,3.682,0,0,1,.672,2.359V17h-2.258V11.594a1.465,1.465,0,0,0-.312-1.043,1.4,1.4,0,0,0-1.039-.324,1.553,1.553,0,0,0-1.43.813V17h-2.258V8.547Zm10.4,6.789a1.481,1.481,0,0,0,1.016-.344,1.2,1.2,0,0,0,.406-.914H120.7a2.9,2.9,0,0,1-.469,1.574,3.093,3.093,0,0,1-1.262,1.109,3.949,3.949,0,0,1-1.77.395A3.67,3.67,0,0,1,114.336,16a4.56,4.56,0,0,1-1.047-3.184v-.148a4.508,4.508,0,0,1,1.039-3.117,3.627,3.627,0,0,1,2.852-1.164,3.555,3.555,0,0,1,2.543.9,3.2,3.2,0,0,1,.973,2.4h-2.117a1.539,1.539,0,0,0-.406-1.066,1.513,1.513,0,0,0-2.223.164,3.324,3.324,0,0,0-.4,1.863v.234a3.366,3.366,0,0,0,.4,1.875A1.378,1.378,0,0,0,117.156,15.336ZM124.367,17H122.1V8.547h2.266Zm-2.4-10.641a1.112,1.112,0,0,1,.34-.836,1.465,1.465,0,0,1,1.848,0,1.105,1.105,0,0,1,.344.836,1.108,1.108,0,0,1-.348.844,1.448,1.448,0,0,1-1.836,0A1.108,1.108,0,0,1,121.969,6.359Zm11.867,6.492a5.07,5.07,0,0,1-.887,3.129,2.843,2.843,0,0,1-2.395,1.176,2.633,2.633,0,0,1-2.07-.891V20.25h-2.258V8.547h2.094l.078.828a2.654,2.654,0,0,1,2.141-.984,2.862,2.862,0,0,1,2.43,1.156,5.207,5.207,0,0,1,.867,3.188Zm-2.258-.164a3.327,3.327,0,0,0-.418-1.82,1.361,1.361,0,0,0-1.215-.641,1.479,1.479,0,0,0-1.461.813V14.5a1.5,1.5,0,0,0,1.477.836Q131.578,15.336,131.578,12.688ZM140.133,17a2.507,2.507,0,0,1-.227-.758,2.732,2.732,0,0,1-2.133.914,3,3,0,0,1-2.059-.719,2.312,2.312,0,0,1-.816-1.812,2.389,2.389,0,0,1,1-2.062,4.915,4.915,0,0,1,2.879-.727h1.039v-.484a1.393,1.393,0,0,0-.3-.937,1.183,1.183,0,0,0-.949-.352,1.345,1.345,0,0,0-.895.273.929.929,0,0,0-.324.75h-2.258a2.268,2.268,0,0,1,.453-1.359,3,3,0,0,1,1.281-.98,4.669,4.669,0,0,1,1.859-.355,3.689,3.689,0,0,1,2.48.785,2.747,2.747,0,0,1,.918,2.207v3.664a4.041,4.041,0,0,0,.336,1.82V17Zm-1.867-1.57a1.945,1.945,0,0,0,.922-.223,1.462,1.462,0,0,0,.625-.6V13.156h-.844q-1.7,0-1.8,1.172l-.008.133a.9.9,0,0,0,.3.7A1.153,1.153,0,0,0,138.266,15.43ZM146.2,17H143.93V5H146.2Zm5.75.156a4.15,4.15,0,0,1-3.027-1.141,4.054,4.054,0,0,1-1.168-3.039v-.219a5.106,5.106,0,0,1,.492-2.277,3.612,3.612,0,0,1,1.395-1.547,3.914,3.914,0,0,1,2.059-.543,3.508,3.508,0,0,1,2.73,1.094,4.444,4.444,0,0,1,1,3.1v.922h-5.383a2.1,2.1,0,0,0,.66,1.328,2,2,0,0,0,1.395.5,2.437,2.437,0,0,0,2.039-.945l1.109,1.242a3.389,3.389,0,0,1-1.375,1.121A4.511,4.511,0,0,1,151.945,17.156Zm-.258-6.937a1.414,1.414,0,0,0-1.09.453,2.341,2.341,0,0,0-.535,1.3H153.2v-.18a1.669,1.669,0,0,0-.406-1.16A1.459,1.459,0,0,0,151.688,10.219Zm9.594,4.445a.727.727,0,0,0-.41-.652,4.659,4.659,0,0,0-1.316-.426q-3.016-.633-3.016-2.562a2.323,2.323,0,0,1,.934-1.879,3.766,3.766,0,0,1,2.441-.754,4.053,4.053,0,0,1,2.574.758,2.388,2.388,0,0,1,.965,1.969H161.2a1.092,1.092,0,0,0-.312-.8,1.322,1.322,0,0,0-.977-.316,1.351,1.351,0,0,0-.883.258.814.814,0,0,0-.312.656.7.7,0,0,0,.355.605,3.657,3.657,0,0,0,1.2.4,9.8,9.8,0,0,1,1.422.379,2.336,2.336,0,0,1,1.789,2.273,2.205,2.205,0,0,1-.992,1.871,4.28,4.28,0,0,1-2.562.715,4.47,4.47,0,0,1-1.887-.379,3.166,3.166,0,0,1-1.293-1.039,2.414,2.414,0,0,1-.469-1.426h2.141a1.179,1.179,0,0,0,.445.922,1.766,1.766,0,0,0,1.109.32,1.635,1.635,0,0,0,.98-.246A.766.766,0,0,0,161.281,14.664Z" transform="translate(964.025 1522.104)" fill="#12263f"/>
  </g>
</svg>
